<svg xmlns="http://www.w3.org/2000/svg" xmlns:xlink="http://www.w3.org/1999/xlink" width="40" height="40" viewBox="0 0 40 40">
    <defs>
        <path id="a" d="M20 40h20V0H0v40z"/>
    </defs>
    <g fill="none" fill-rule="evenodd">
        <path fill="#EE4123" d="M15.217 23.439h-.025c-.073.475-.231 1.024-.402 1.56l-.28.903h1.414l-.33-1.036c-.145-.476-.292-.915-.377-1.427M7.33 12.353a3.67 3.67 0 0 0-.427.025v1.768c.085.012.256.024.378.024.622 0 1.049-.329 1.049-.938 0-.488-.257-.879-1-.879M38.732 13.195c-.074.475-.232 1.024-.403 1.56l-.28.903h1.414l-.329-1.036c-.146-.476-.293-.915-.378-1.427h-.024zM7.33 22.597a3.67 3.67 0 0 0-.427.025v1.768c.085.012.256.024.378.024.622 0 1.049-.329 1.049-.939 0-.488-.257-.878-1-.878"/>
        <g>
            <mask id="b" fill="#fff">
                <use xlink:href="#a"/>
            </mask>
            <path fill="#EE4123" d="M37.484 29.024h-4.537v-8.232h2.269V27h2.268v2.024zM32.122 18.78h2.268v-8.232h-2.268v8.232zm-.211 3.939h-2.549v1.159h2.415v1.853h-2.415v1.33h2.549v1.963h-4.817v-8.232h4.817v1.927zm-7.976 6.305h-2.67l-2.708-8.232h2.44l1.255 4.122c.135.44.281.903.403 1.464h.024c.098-.512.159-.83.39-1.586l1.22-4h2.317l-2.67 8.232zm-7.01 0l-.427-1.341H13.96l-.415 1.341h-2.244l2.683-8.232h2.598l2.817 8.232h-2.476zM8.536 18.78l-1.55-3h-.085v3H4.634v-8.232c.768-.048 1.78-.06 2.817-.06 2.098 0 3.269.743 3.269 2.573 0 .975-.549 1.914-1.5 2.256.22.33.414.634.597.951l1.476 2.512H8.537zm0 10.244l-1.55-3h-.085v3H4.634v-8.232c.768-.049 1.78-.06 2.817-.06 2.098 0 3.269.743 3.269 2.573 0 .975-.549 1.914-1.5 2.256.22.329.414.634.597.951l1.476 2.512H8.537zm3.244-18.476h2.268v5.147c0 .878.268 1.354 1.207 1.354.915 0 1.208-.39 1.208-1.415v-5.086h2.244v4.964c0 2.39-1.378 3.44-3.586 3.44-2.646 0-3.341-1.403-3.341-3.147v-5.257zm11.243-.158c.415 0 .988.049 1.5.134l-.122 1.963a5.382 5.382 0 0 0-1.463-.219c-.634 0-.903.256-.903.573 0 1.037 3.074.634 3.074 3.208 0 1.646-1.33 2.89-3.525 2.89a7.917 7.917 0 0 1-1.695-.17l.122-2.074a5.735 5.735 0 0 0 1.756.293c.549 0 .903-.232.903-.61 0-1.195-3.074-.488-3.074-3.305 0-1.634 1.256-2.683 3.427-2.683zm6.122 0c.415 0 .988.049 1.5.134l-.122 1.963a5.382 5.382 0 0 0-1.463-.219c-.634 0-.903.256-.903.573 0 1.037 3.074.634 3.074 3.208 0 1.646-1.33 2.89-3.525 2.89a7.917 7.917 0 0 1-1.695-.17l.122-2.074a5.735 5.735 0 0 0 1.756.293c.549 0 .903-.232.903-.61 0-1.195-3.074-.488-3.074-3.305 0-1.634 1.256-2.683 3.427-2.683zm8.354 7.049l-.415 1.341h-2.244l2.683-8.232H40V0H0v20.792h4.025v1.951h-1.78v6.281H0V40h40V17.439h-2.5z" mask="url(#b)"/>
        </g>
    </g>
</svg>
