<?xml version="1.0" encoding="UTF-8" standalone="no"?>
<svg xmlns="http://www.w3.org/2000/svg" height="576px" width="720px" version="1.1" xmlns:xlink="http://www.w3.org/1999/xlink" viewBox="0 0 720 576"><!-- Generator: Sketch 48.2 (47327) - http://www.bohemiancoding.com/sketch -->
 <title>lifehack/cupe</title>
 <desc>Created with Sketch.</desc>
 <defs>
  <polygon id="path-1" points="0.0864 0.0576 720 0.0576 720 576 0.0864 576"/>
  <path id="path-3" d="m0.68112 134.31v-125.15c0-4.3763 3.5453-7.9216 7.92-7.9216h259.81c4.37 0 7.92 3.5453 7.92 7.92v125.15c0 4.38-3.55 7.92-7.92 7.92h-259.81c-4.3736 0-7.9189-3.54-7.9189-7.92z"/>
 </defs>
 <g id="+poputchik-laifhak-ver2-1440" fill-rule="evenodd" transform="translate(-644 -979)" fill="none">
  <g id="mainmenu" transform="translate(86 979)">
   <g id="lifehack/cupe" transform="translate(558)">
    <g id="Group-3">
     <mask id="mask-2" fill="white">
      <use xlink:href="#path-1"/>
     </mask>
     <polygon id="Fill-1" points="0.0864 576 720 576 720 0.0576 0.0864 0.0576" mask="url(#mask-2)" fill="#EBFCFC"/>
    </g>
    <path id="Fill-4" fill="#C6F6F7" d="m616.93 386.37h-524.64c-16.896 0-30.592-13.7-30.592-30.59v-265.19c0-16.894 13.696-30.59 30.59-30.59h524.64c16.9 0 30.59 13.696 30.59 30.59v265.19c0 16.89-13.69 30.59-30.59 30.59"/>
    <polygon id="Fill-5" points="61.698 480.35 647.52 480.35 647.52 352.96 61.698 352.96" fill="#B4EAED"/>
    <path id="Fill-6" fill="#85C6C9" d="m479.63 378.73h-250.25c-17.89 0-32.4-14.51-32.4-32.4v-120.06c0-17.9 14.51-32.4 32.4-32.4h250.25c17.89 0 32.4 14.5 32.4 32.4v120.06c0 17.89-14.51 32.4-32.4 32.4"/>
    <path id="Fill-7" fill="#A5F5FD" d="m205.09 347.38v-122.16c0-12.33 10-22.32 22.32-22.32h254.18c12.33 0 22.32 9.99 22.32 22.32v122.16c0 12.32-9.99 22.32-22.32 22.32h-254.18c-12.32 0-22.32-10-22.32-22.32"/>
    <path id="Fill-8" fill="#53A9AD" d="m210.89 348.13v-123.66c0-8.35 6.77-15.12 15.12-15.12h256.99c8.35 0 15.12 6.77 15.12 15.12v123.66c0 8.35-6.77 15.12-15.12 15.12h-256.99c-8.35 0-15.12-6.77-15.12-15.12"/>
    <path id="Fill-9" fill="#75D9FC" d="m216.68 348.87v-125.15c0-4.38 3.55-7.92 7.92-7.92h259.81c4.37 0 7.92 3.54 7.92 7.92v125.15c0 4.38-3.55 7.92-7.92 7.92h-259.81c-4.37 0-7.92-3.54-7.92-7.92"/>
    <g id="Group-33" transform="translate(216 214.56)">
     <mask id="mask-4" fill="white">
      <use xlink:href="#path-3"/>
     </mask>
     <polygon id="Fill-10" points="0.94608 142.23 276.33 142.23 276.33 1.2384 0.94608 1.2384" mask="url(#mask-4)" fill="#5BDEF4"/>
     <path id="Fill-12" fill="#8EB1B4" mask="url(#mask-4)" d="m72.831 142.16c-3.106 0-4.49-1.72-3.076-3.82l55.675-82.638c2.78-4.118 7.32-4.118 10.09 0l55.68 82.638c1.41 2.1 0.03 3.82-3.08 3.82h-115.29"/>
     <path id="Fill-13" fill="#8EB1B4" mask="url(#mask-4)" d="m183.86 118.04c-2.62 0-3.79-1.72-2.59-3.81l49.11-86.318c1.19-2.099 3.15-2.099 4.34 0l49.11 86.318c1.2 2.09 0.03 3.81-2.6 3.81h-97.37"/>
     <path id="Fill-14" fill="#8EB1B4" mask="url(#mask-4)" d="m24.818 123.47c-2.507 0-3.143-1.78-1.414-3.95l59.744-75.139c1.73-2.176 4.561-2.176 6.29 0l59.742 75.139c1.73 2.17 1.1 3.95-1.41 3.95h-122.95"/>
     <path id="Fill-15" fill="#8EB1B4" mask="url(#mask-4)" d="m135.5 96.87c-2.04 0-2.56-1.624-1.15-3.611l48.57-68.605c1.4-1.986 3.7-1.986 5.11 0l48.57 68.605c1.4 1.987 0.89 3.611-1.15 3.611h-99.95"/>
     <path id="Fill-16" fill="#B0A09C" mask="url(#mask-4)" d="m160.17 114c-2.62 0-3.79-1.72-2.59-3.82l49.11-86.312c1.19-2.1 3.15-2.1 4.34 0l49.11 86.312c1.2 2.1 0.03 3.82-2.59 3.82h-97.38"/>
     <path id="Fill-17" fill="#B0A09C" mask="url(#mask-4)" d="m114.89 109.04c-2.04 0-2.56-1.62-1.15-3.61l48.57-68.603c1.4-1.986 3.7-1.986 5.11 0l48.57 68.603c1.4 1.99 0.89 3.61-1.15 3.61h-99.95"/>
     <path id="Fill-18" fill="#386850" mask="url(#mask-4)" d="m113.33 101.31v-0.02c-0.05-0.14-0.09-0.28-0.13-0.42l-0.01-0.03c-0.05-0.14-0.09-0.28-0.13-0.42l-0.02-0.04-0.1-0.32-0.05-0.16-0.07-0.235-0.08-0.234-0.07-0.224-0.15-0.482-0.07-0.226-0.08-0.241-0.06-0.191c0.38-0.04 0.76-0.084 1.13-0.135 0.41-0.055 0.83-0.116 1.24-0.186 0 0-0.07-0.257-0.21-0.704l-0.08-0.271c-0.09-0.313-0.2-0.691-0.33-1.12l-0.03-0.107-0.07-0.228-0.01-0.047-0.09-0.297v-0.004c-0.07-0.217-0.14-0.448-0.21-0.683-0.38 0.293-0.99 0.288-1.25-0.223-0.62-1.221-1.22-2.432-1.71-3.703-0.47 0.05-0.97-0.273-0.95-0.827l0.02-0.212c-0.78-2 0.18-5.185 1.09-6.861 0.11-0.212 0.29-0.33 0.5-0.379 0.09-0.181 0.28-0.305 0.49-0.364-1.38-4.364-3.04-9.2-3.62-9.2-0.86 0-4.14 10.795-5.29 14.67l-0.02-0.088-0.06-0.247-0.07-0.219-0.07-0.205c-0.05-0.132-0.1-0.26-0.16-0.384v-0.004c0-0.146 0.01-0.293 0-0.441 0-0.164-0.01-0.328-0.02-0.495-0.25-3.251-2.24-5.707-4.427-5.484l-0.357 0.063-0.117 0.031-0.233 0.079-0.125 0.049-0.303 0.15-0.06-0.301-0.084-0.273-0.01-0.031-0.155-0.344-0.048-0.081-0.147-0.235-0.062-0.079-0.168-0.206-0.064-0.063-0.204-0.192-0.058-0.044-0.243-0.176-0.045-0.029-0.286-0.157-0.029-0.014-0.328-0.134-0.013-0.004c-0.948-0.326-2.103-0.26-3.217 0.279-1.292 0.625-2.222 1.737-2.594 2.925-1.66 0.3-2.829 2.481-2.632 4.993 0.016 0.209 0.045 0.412 0.079 0.612-0.711 1.073-1.137 2.545-1.139 4.161l-0.173 0.185c-0.263-1.46-1.27-2.628-2.572-3.019-0.895-1.25-1.971-1.98-3.13-1.98l-0.177 0.013c-1.061 0.069-2.048 0.743-2.882 1.87-1.585 0.257-2.832 1.639-3.035 3.38-1.578-9.889-3.491-20.702-4.3-20.702-0.996 0-3.666 16.414-5.325 27.29-1.812-6.044-3.823-11.987-4.722-11.987-0.795 0-2.452 4.626-4.077 9.864 0.013-0.226 0.024-0.453 0.024-0.684 0-1.372-0.235-2.667-0.644-3.824 0.409-1.325 0.644-2.804 0.644-4.372 0-3.498-1.14-6.58-2.872-8.394 0.075-0.422 0.117-0.858 0.117-1.309 0-2.674-1.383-4.922-3.262-5.597-0.942-1.58-2.047-2.595-3.24-2.86-0.206-0.046-0.415-0.072-0.625-0.072l-0.16 0.014c-1.33 0.077-2.57 1.08-3.614 2.774-2.141 0.415-3.787 2.824-3.787 5.741 0 0.451 0.043 0.887 0.118 1.309-1.01 1.057-1.815 2.546-2.313 4.294-0.835-1.16-2.039-1.852-3.316-1.738l-0.357 0.056-0.118 0.028-0.232 0.067-0.127 0.043-0.301 0.133v-0.001l-0.06-0.263-0.094-0.267-0.168-0.323-0.064-0.092-0.151-0.203-0.079-0.089-0.184-0.182-0.077-0.068-0.26-0.193-0.032-0.021c-0.331-0.212-0.716-0.363-1.133-0.454l-0.018-0.004c-0.138-0.029-0.279-0.052-0.424-0.066-0.779-0.082-1.641 0.037-2.479 0.394-1.29 0.549-2.22 1.527-2.593 2.572-1.66 0.265-2.828 2.183-2.631 4.394 0.016 0.184 0.045 0.362 0.078 0.538-0.205 0.272-0.383 0.573-0.537 0.896-0.87-1.266-1.888-2.978-2.444-4.731-1.099 3.459-3.999 6.773-3.999 6.773 0.32 0.041 1.537 0.19 1.85 0.219-0.275 1.887-1.128 3.306-1.883 4.235-1.48-1.602-2.959-3.877-3.216-6.729 0.837-0.062 2.814-0.265 3.664-0.366 0 0-3.881-2.802-4.65-8.087 0.4608-0.042 2.244-0.261 2.71-0.321 0 0-4.2464-4.85-5.8549-9.918-1.6085 5.068-5.8551 9.918-5.8551 9.918 0.46804 0.06 2.2493 0.279 2.7101 0.321-0.7689 5.285-4.6497 8.087-4.6497 8.087 0.84956 0.101 2.8267 0.304 3.6633 0.366-0.5371 5.994-6.4785 9.443-6.4785 9.443 0.7675 0.092 3.7872 0.622 4.5446 0.69-0.97488 6.211-7.9819 9.331-7.9819 9.331 2.4134 0.95 5.0054 1.53 7.632 1.86l-0.00002 5.22h111.4v-5.49c0.36-0.02 0.72-0.05 1.07-0.08 0.2-0.02 0.39-0.04 0.59-0.06 0.3-0.04 0.6-0.07 0.9-0.11 0.51-0.07 1.02-0.14 1.52-0.23h0.01s-0.87-3.02-2.02-6.72"/>
     <path id="Fill-19" fill="#386850" mask="url(#mask-4)" d="m215.01 101.31l-0.01-0.02c-0.04-0.14-0.08-0.28-0.13-0.42l-0.01-0.03c-0.04-0.14-0.08-0.28-0.13-0.42l-0.01-0.04-0.1-0.32-0.05-0.16-0.08-0.235-0.07-0.234-0.07-0.224-0.15-0.482-0.08-0.226-0.07-0.241-0.06-0.191c0.38-0.04 0.75-0.084 1.13-0.135 0.41-0.055 0.82-0.116 1.24-0.186 0 0-0.08-0.257-0.21-0.704l-0.08-0.271c-0.09-0.313-0.2-0.691-0.33-1.12l-0.1-0.335-0.02-0.047-0.09-0.297v-0.004c-0.15-0.517-0.32-1.087-0.51-1.693l-0.01-0.025-0.1-0.327-0.01-0.056-0.11-0.35-0.01-0.021-0.1-0.343-0.02-0.058-0.1-0.33-0.02-0.069-0.12-0.357-0.01-0.034-0.1-0.347-0.03-0.077-0.1-0.338-0.03-0.069-0.13-0.437-0.1-0.299-0.03-0.112-0.1-0.306-0.04-0.119-0.1-0.303-0.02-0.073c0.3-0.033 0.61-0.069 0.91-0.111 0.35-0.047 0.7-0.099 1.06-0.158 0 0-4.65-16.04-5.7-16.04-0.87 0-4.15 10.795-5.29 14.67l-0.02-0.088-0.07-0.247-0.06-0.219-0.07-0.205c-0.05-0.132-0.1-0.26-0.16-0.384v-0.004-0.441c0-0.164-0.01-0.328-0.02-0.495-0.26-3.251-2.24-5.707-4.43-5.484l-0.36 0.063-0.11 0.031-0.24 0.079-0.12 0.049-0.3 0.15-0.07-0.301-0.08-0.273-0.01-0.031-0.15-0.344-0.05-0.081-0.15-0.235-0.06-0.079-0.17-0.206-0.06-0.063-0.21-0.192-0.05-0.044-0.25-0.176-0.04-0.029-0.29-0.157-0.03-0.014-0.33-0.134-0.01-0.004c-0.95-0.326-2.1-0.26-3.22 0.279-1.29 0.625-2.22 1.737-2.59 2.925-1.66 0.3-2.83 2.481-2.63 4.993 0.01 0.209 0.04 0.412 0.08 0.612-0.72 1.073-1.14 2.545-1.14 4.161l-0.17 0.185c-0.27-1.46-1.27-2.628-2.58-3.019-0.89-1.25-1.97-1.98-3.13-1.98l-0.17 0.013c-1.07 0.069-2.05 0.743-2.89 1.87-1.58 0.257-2.83 1.639-3.03 3.38-1.58-9.889-3.49-20.702-4.3-20.702-1 0-3.67 16.414-5.33 27.29-1.81-6.044-3.82-11.987-4.72-11.987-0.79 0-2.45 4.626-4.07 9.864 0.01-0.226 0.02-0.453 0.02-0.684 0-1.372-0.24-2.667-0.65-3.824 0.41-1.325 0.65-2.804 0.65-4.372 0-3.498-1.14-6.58-2.87-8.394 0.07-0.422 0.11-0.858 0.11-1.309 0-2.674-1.38-4.922-3.26-5.597-0.94-1.58-2.05-2.595-3.24-2.86-0.21-0.046-0.41-0.072-0.62-0.072l-0.16 0.014c-1.33 0.077-2.57 1.08-3.62 2.774-2.14 0.415-3.78 2.824-3.78 5.741 0 0.451 0.04 0.887 0.11 1.309-1.01 1.057-1.81 2.546-2.31 4.294-0.83-1.16-2.04-1.852-3.32-1.738l-0.35 0.056-0.12 0.028-0.23 0.067-0.13 0.043-0.3 0.133v-0.001l-0.06-0.263-0.1-0.267-0.16-0.323-0.07-0.092-0.15-0.203-0.08-0.089-0.18-0.182-0.08-0.068-0.26-0.193-0.03-0.021c-0.33-0.212-0.72-0.363-1.13-0.454l-0.02-0.004c-0.14-0.029-0.28-0.052-0.43-0.066-0.77-0.082-1.63 0.037-2.47 0.394-1.29 0.549-2.22 1.527-2.6 2.572-1.66 0.265-2.83 2.183-2.63 4.394 0.02 0.184 0.05 0.362 0.08 0.538-0.2 0.272-0.38 0.573-0.54 0.896-0.87-1.266-1.88-2.978-2.44-4.731-1.1 3.459-4 6.773-4 6.773 0.32 0.041 1.54 0.19 1.85 0.219-0.27 1.887-1.13 3.306-1.88 4.235-1.48-1.602-2.96-3.877-3.22-6.729 0.84-0.062 2.81-0.265 3.66-0.366 0 0-3.88-2.802-4.65-8.087 0.47-0.042 2.25-0.261 2.71-0.321 0 0-4.24-4.85-5.85-9.918-1.61 5.068-5.85 9.918-5.85 9.918 0.46 0.06 2.25 0.279 2.71 0.321-0.77 5.285-4.66 8.087-4.66 8.087 0.86 0.101 2.83 0.304 3.67 0.366-0.54 5.994-6.479 9.443-6.479 9.443 0.766 0.092 3.789 0.622 4.549 0.69-0.98 6.211-7.986 9.331-7.986 9.331 2.413 0.95 5.004 1.53 7.636 1.86v5.22h111.4v-5.49c0.36-0.02 0.72-0.05 1.07-0.08 0.2-0.02 0.39-0.04 0.58-0.06 0.3-0.04 0.6-0.07 0.9-0.11 0.51-0.07 1.02-0.14 1.53-0.23h0.01s-0.87-3.02-2.02-6.72"/>
     <path id="Fill-20" fill="#386850" mask="url(#mask-4)" d="m278.93 101.84l-0.01-0.03c-0.04-0.13-0.08-0.27-0.12-0.41l-0.02-0.04c-0.04-0.13-0.08-0.27-0.13-0.41l-0.01-0.04-0.1-0.32-0.05-0.16-0.07-0.24-0.08-0.231-0.07-0.223-0.07-0.239-0.08-0.245-0.07-0.225-0.08-0.24-0.06-0.192c0.38-0.04 0.75-0.083 1.13-0.135 0.41-0.055 0.83-0.115 1.24-0.186 0 0-0.08-0.256-0.21-0.704l-0.08-0.272c-0.09-0.311-0.2-0.69-0.33-1.119l-0.1-0.334-0.01-0.048-0.09-0.296v-0.006c-0.16-0.515-0.33-1.086-0.52-1.692v-0.024l-0.1-0.329-0.02-0.054-0.11-0.35v-0.022l-0.11-0.344-0.02-0.056-0.1-0.332-0.02-0.069-0.11-0.355-0.01-0.035-0.11-0.347-0.02-0.076-0.11-0.339-0.02-0.069-0.14-0.436-0.09-0.301-0.04-0.111-0.1-0.305-0.04-0.12-0.09-0.304-0.03-0.072c0.31-0.033 0.61-0.069 0.91-0.11 0.35-0.048 0.71-0.1 1.06-0.16 0 0-4.64-16.039-5.7-16.039-0.86 0-4.14 10.794-5.29 14.671l-0.02-0.088-0.06-0.248-0.07-0.219-0.07-0.206c-0.05-0.131-0.1-0.259-0.16-0.383v-0.004c0-0.147 0.01-0.292 0-0.441 0-0.164-0.01-0.328-0.02-0.495-0.26-3.25-2.24-5.707-4.43-5.485l-0.36 0.063-0.11 0.032-0.24 0.078-0.12 0.049-0.3 0.151-0.06-0.301-0.09-0.272-0.01-0.032-0.15-0.344-0.05-0.081-0.15-0.234-0.06-0.079-0.17-0.206-0.06-0.064-0.21-0.191-0.05-0.046-0.25-0.175-0.04-0.028-0.29-0.157-0.03-0.015-0.32-0.134-0.02-0.004c-0.94-0.325-2.1-0.259-3.21 0.279-1.3 0.625-2.23 1.736-2.6 2.925-1.66 0.301-2.83 2.481-2.63 4.992 0.02 0.211 0.04 0.414 0.08 0.614-0.71 1.073-1.14 2.543-1.14 4.16l-0.17 0.186c-0.27-1.46-1.27-2.628-2.57-3.02-0.9-1.25-1.98-1.98-3.14-1.98l-0.17 0.013c-1.06 0.069-2.05 0.743-2.88 1.871-1.59 0.256-2.84 1.638-3.04 3.379-1.58-9.888-3.49-20.701-4.3-20.701-0.99 0-3.66 16.413-5.32 27.288-1.82-6.042-3.83-11.985-4.73-11.985-0.79 0-2.45 4.625-4.07 9.864 0.01-0.226 0.02-0.454 0.02-0.684 0-1.373-0.23-2.667-0.64-3.825 0.41-1.325 0.64-2.804 0.64-4.372 0-3.497-1.14-6.579-2.87-8.395 0.07-0.42 0.12-0.857 0.12-1.307 0-2.674-1.39-4.922-3.27-5.598-0.94-1.579-2.04-2.595-3.24-2.86-0.2-0.046-0.41-0.072-0.62-0.072l-0.16 0.015c-1.33 0.075-2.57 1.08-3.61 2.773-2.15 0.415-3.79 2.824-3.79 5.742 0 0.45 0.04 0.887 0.12 1.307-1.01 1.059-1.82 2.547-2.32 4.296-0.83-1.161-2.04-1.852-3.31-1.738l-0.36 0.054-0.12 0.029-0.23 0.068-0.13 0.043-0.3 0.132v-0.001l-0.06-0.262-0.09-0.268-0.17-0.322-0.06-0.093-0.16-0.203-0.07-0.089-0.19-0.181-0.08-0.068-0.26-0.193-0.03-0.022c-0.33-0.211-0.71-0.363-1.13-0.453l-0.02-0.005c-0.14-0.028-0.28-0.051-0.42-0.066-0.78-0.082-1.64 0.038-2.48 0.395-1.29 0.548-2.22 1.526-2.59 2.572-1.66 0.265-2.83 2.183-2.64 4.393 0.02 0.184 0.05 0.363 0.08 0.539-0.2 0.27-0.38 0.573-0.53 0.895-0.87-1.265-1.89-2.978-2.45-4.732-1.1 3.461-4 6.774-4 6.774 0.32 0.042 1.54 0.19 1.85 0.219-0.27 1.888-1.13 3.306-1.88 4.235-1.48-1.603-2.96-3.876-3.21-6.729 0.83-0.062 2.81-0.265 3.66-0.366 0 0-3.88-2.802-4.65-8.087 0.46-0.043 2.24-0.26 2.71-0.321 0 0-4.25-4.851-5.86-9.917-1.61 5.066-5.85 9.917-5.85 9.917 0.47 0.061 2.25 0.278 2.71 0.321-0.77 5.285-4.65 8.087-4.65 8.087 0.85 0.101 2.82 0.304 3.66 0.366-0.54 5.995-6.48 9.444-6.48 9.444 0.77 0.09 3.79 0.622 4.55 0.688-0.98 6.214-7.98 9.334-7.98 9.334 2.41 0.95 5 1.53 7.63 1.86v5.22h111.4v-5.49c0.36-0.02 0.72-0.05 1.07-0.08 0.2-0.02 0.39-0.04 0.59-0.07 0.3-0.03 0.6-0.06 0.89-0.1 0.52-0.07 1.03-0.14 1.53-0.23h0.01s-0.87-3.02-2.02-6.72"/>
     <polygon id="Fill-21" points="0.68112 142.23 276.33 142.23 276.33 119.05 0.68112 119.05" mask="url(#mask-4)" fill="#30659B"/>
     <polygon id="Fill-22" points="0.68112 121.53 276.33 121.53 276.33 114 0.68112 114" mask="url(#mask-4)" fill="#458741"/>
     <path id="Fill-23" fill="#4FAF4A" mask="url(#mask-4)" d="m215.77 103.88c0-1.99-0.78-3.74-1.96-4.769 0.05-0.239 0.08-0.488 0.08-0.743 0-1.521-0.94-2.798-2.23-3.183-0.75-1.052-1.65-1.666-2.63-1.666-0.95 0-1.83 0.584-2.57 1.584-1.46 0.237-2.58 1.606-2.58 3.265 0 0.255 0.03 0.504 0.08 0.743-1.18 1.029-1.96 2.779-1.96 4.769 0 0.89 0.16 1.73 0.44 2.49-0.28 0.66-0.44 1.39-0.44 2.17 0 2.65 1.8 4.82 4.09 5.01 0.81 0.3 1.83 0.48 2.94 0.48 1.19 0 2.27-0.21 3.11-0.55 2.06-0.42 3.63-2.47 3.63-4.94 0-0.78-0.17-1.51-0.44-2.17 0.27-0.76 0.44-1.6 0.44-2.49"/>
     <path id="Fill-24" fill="#89633D" mask="url(#mask-4)" d="m207.82 116.86s0.48-17.897 1.06-17.897 1.06 17.897 1.06 17.897h-2.12"/>
     <path id="Fill-25" fill="#89633D" mask="url(#mask-4)" d="m208.75 113.19s-4.13-4.47-3.93-4.68c0.21-0.2 4.68 3.93 4.68 3.93l-0.75 0.75"/>
     <path id="Fill-26" fill="#89633D" mask="url(#mask-4)" d="m209.02 113.19s4.13-4.47 3.92-4.68c-0.2-0.2-4.67 3.93-4.67 3.93l0.75 0.75"/>
     <path id="Fill-27" fill="#89633D" mask="url(#mask-4)" d="m208.78 108.89s-3.05-3.31-2.9-3.46 3.46 2.9 3.46 2.9l-0.56 0.56"/>
     <path id="Fill-28" fill="#89633D" mask="url(#mask-4)" d="m208.98 108.89s3.06-3.31 2.91-3.46c-0.16-0.15-3.46 2.9-3.46 2.9l0.55 0.56"/>
     <polyline id="Fill-29" points="208.81 104.73 206.72 102.24 209.21 104.34 208.81 104.73" mask="url(#mask-4)" fill="#89633D"/>
     <polyline id="Fill-30" points="208.95 104.73 211.05 102.24 208.56 104.34 208.95 104.73" mask="url(#mask-4)" fill="#89633D"/>
     <path id="Fill-31" fill="#66AF4A" mask="url(#mask-4)" d="m98.114 108.1c0.454-0.04 2.266-0.35 2.716-0.41 0 0-3.551-2.06-3.872-5.65 0.501-0.04 1.683-0.16 2.192-0.22 0 0-2.322-1.68-2.782-4.837 0.275-0.025 1.342-0.156 1.621-0.192 0 0-2.54-2.902-3.502-5.933-0.963 3.031-3.503 5.933-3.503 5.933 0.279 0.036 1.346 0.167 1.621 0.192-0.461 3.157-2.782 4.837-2.782 4.837 0.508 0.06 1.692 0.18 2.192 0.22-0.322 3.59-3.877 5.65-3.877 5.65 0.459 0.06 2.267 0.37 2.72 0.41-0.584 3.72-4.776 5.59-4.776 5.59 2.621 1.02 5.59 1.33 8.405 1.32 2.814 0.01 5.783-0.3 8.403-1.32 0 0-4.191-1.87-4.776-5.59"/>
     <path id="Fill-32" fill="#89633D" mask="url(#mask-4)" d="m93.383 117.64s0.498-18.639 1.104-18.639c0.605 0 1.103 18.639 1.103 18.639h-2.207"/>
    </g>
    <path id="Fill-34" fill="#8DE8F7" d="m484.6 302.02l-0.29-0.52c-0.05-0.13-0.1-0.25-0.16-0.37 0-0.15 0.01-0.3 0-0.44 0-0.17-0.01-0.33-0.02-0.5-0.23-2.87-1.8-5.12-3.67-5.46l-0.06-0.09 11.93-13.62v12.36c-1.06-3.14-2.08-5.78-2.51-5.78-0.84 0-4.01 10.35-5.22 14.42"/>
    <path id="Fill-35" fill="#B0C9CB" d="m484.53 302.27l-0.02-0.08-0.06-0.25-0.07-0.22-0.07-0.21v-0.01l0.29 0.52c-0.02 0.09-0.05 0.17-0.07 0.25m-4.07-7.54c-0.04 0-0.08-0.01-0.12-0.01l0.06-0.08 0.06 0.09"/>
    <path id="Fill-36" fill="#749685" d="m492.33 328.56h-41.62l29.63-33.84c0.04 0 0.08 0.01 0.12 0.01 1.87 0.34 3.44 2.59 3.67 5.46 0.01 0.17 0.02 0.33 0.02 0.5 0.01 0.14 0 0.29 0 0.44 0.06 0.12 0.11 0.24 0.16 0.37v0.01l0.07 0.21 0.07 0.22 0.06 0.25 0.02 0.08c0.02-0.08 0.05-0.16 0.07-0.25 1.21-4.07 4.38-14.42 5.22-14.42 0.43 0 1.45 2.64 2.51 5.78v35.18"/>
    <path id="Fill-37" fill="#6F94B9" d="m484.41 356.79h-58.41l18.12-20.7h48.21v12.78c0 4.38-3.55 7.92-7.92 7.92m-28.71-5.27c1.48 0 2.17 0.42 2.98 0.9 0.87 0.52 1.86 1.11 3.76 1.11 0.41 0 0.75-0.34 0.75-0.75 0-0.42-0.34-0.76-0.75-0.76-1.48 0-2.18-0.41-2.99-0.89-0.87-0.53-1.86-1.12-3.75-1.12s-2.88 0.59-3.75 1.12c-0.81 0.48-1.51 0.89-2.98 0.89-1.48 0-2.18-0.41-2.98-0.89-0.87-0.53-1.86-1.12-3.75-1.12s-2.88 0.59-3.76 1.12c-0.8 0.48-1.5 0.89-2.98 0.89-0.41 0-0.75 0.34-0.75 0.76 0 0.41 0.34 0.75 0.75 0.75 1.89 0 2.88-0.59 3.76-1.11 0.8-0.48 1.5-0.9 2.98-0.9 1.47 0 2.17 0.42 2.97 0.9 0.88 0.52 1.87 1.11 3.76 1.11s2.88-0.59 3.75-1.11c0.81-0.48 1.5-0.9 2.98-0.9"/>
    <polyline id="Fill-38" points="492.33 336.09 444.12 336.09 450.71 328.56 492.33 328.56 492.33 336.09" fill="#7DAB7A"/>
    <path id="Fill-39" fill="#8BA9C7" d="m462.44 353.53c-1.9 0-2.89-0.59-3.76-1.11-0.81-0.48-1.5-0.9-2.98-0.9s-2.17 0.42-2.98 0.9c-0.87 0.52-1.86 1.11-3.75 1.11s-2.88-0.59-3.76-1.11c-0.8-0.48-1.5-0.9-2.97-0.9-1.48 0-2.18 0.42-2.98 0.9-0.88 0.52-1.87 1.11-3.76 1.11-0.41 0-0.75-0.34-0.75-0.75 0-0.42 0.34-0.76 0.75-0.76 1.48 0 2.18-0.41 2.98-0.89 0.88-0.53 1.87-1.12 3.76-1.12s2.88 0.59 3.75 1.12c0.8 0.48 1.5 0.89 2.98 0.89 1.47 0 2.17-0.41 2.98-0.89 0.87-0.53 1.86-1.12 3.75-1.12s2.88 0.59 3.75 1.12c0.81 0.48 1.51 0.89 2.99 0.89 0.41 0 0.75 0.34 0.75 0.76 0 0.41-0.34 0.75-0.75 0.75"/>
    <path id="Fill-40" fill="#8DE8F7" d="m470.3 276.89l-6.02-10.58 27.79-31.74c0.08 0.28 0.17 0.56 0.26 0.84v16.32l-22.03 25.16"/>
    <polyline id="Fill-41" points="457.34 291.7 451.32 281.12 464.28 266.31 470.3 276.89 457.34 291.7" fill="#B0C9CB"/>
    <polyline id="Fill-42" points="457.34 291.7 451.32 281.12 457.34 291.7" fill="#C8BDBA"/>
    <path id="Fill-43" fill="#BDB3B0" d="m436.67 310.6c0.01-0.23 0.02-0.45 0.02-0.68 0-1.38-0.23-2.67-0.64-3.83 0.41-1.32 0.64-2.8 0.64-4.37 0-1.21-0.14-2.37-0.39-3.45l15.02-17.15 6.02 10.58-3.92 4.48c-1.08-6.04-2.1-10.75-2.63-10.75-0.74 0-2.41 9.08-3.89 18.2l-3.16 3.61c-1.24-3.71-2.38-6.5-3-6.5-0.79 0-2.45 4.62-4.07 9.86"/>
    <path id="Fill-44" fill="#749685" d="m423.91 328.56h-8.21v-6.75l2.33-2.66c0.06 0.63 0.21 1.23 0.41 1.78-0.28 0.66-0.44 1.39-0.44 2.17 0 2.65 1.8 4.82 4.09 5.01 0.53 0.2 1.15 0.34 1.82 0.42v0.03m7.55-7.29c-0.04-0.12-0.09-0.23-0.13-0.34 0.27-0.76 0.44-1.6 0.44-2.49 0-1.99-0.78-3.74-1.96-4.77 0.05-0.24 0.08-0.49 0.08-0.74 0-1.52-0.94-2.8-2.23-3.18-0.22-0.31-0.45-0.58-0.69-0.81l9.33-10.67c0.25 1.08 0.39 2.24 0.39 3.45 0 1.57-0.23 3.05-0.64 4.37 0.41 1.16 0.64 2.45 0.64 3.83 0 0.23-0.01 0.45-0.02 0.68 1.62-5.24 3.28-9.86 4.07-9.86 0.62 0 1.76 2.79 3 6.5l-12.28 14.03m15.44-17.64c1.48-9.12 3.15-18.2 3.89-18.2 0.53 0 1.55 4.71 2.63 10.75l-6.52 7.45"/>
    <path id="Fill-45" fill="#6F94B9" d="m400.36 356.79h-15.28l2.05-2.33h15.28l-2.05 2.33m15.34-17.52v-3.18h2.79l-2.79 3.18"/>
    <path id="Fill-46" fill="#7DAB7A" d="m418.49 336.09h-2.79v-7.53h8.21c-0.02 0.52-0.03 0.99-0.04 1.39l-5.38 6.14"/>
    <path id="Fill-47" fill="#84C781" d="m423.91 328.53c-0.67-0.08-1.29-0.22-1.82-0.42-2.29-0.19-4.09-2.36-4.09-5.01 0-0.78 0.16-1.51 0.44-2.17-0.2-0.55-0.35-1.15-0.41-1.78l8.94-10.21c0.24 0.23 0.47 0.5 0.69 0.81 1.29 0.38 2.23 1.66 2.23 3.18 0 0.25-0.03 0.5-0.08 0.74 1.18 1.03 1.96 2.78 1.96 4.77 0 0.89-0.17 1.73-0.44 2.49 0.04 0.11 0.09 0.22 0.13 0.34l-5.63 6.43c-0.01-0.26-0.02-0.53-0.03-0.81 1.19-1.31 3.29-3.67 3.14-3.82h-0.02c-0.24 0-1.9 1.44-3.16 2.58-0.04-0.94-0.08-1.93-0.12-2.93 0.89-0.98 2.35-2.63 2.25-2.73-0.01 0-0.01-0.01-0.02-0.01-0.17 0-1.34 1.02-2.27 1.85-0.05-1.08-0.1-2.14-0.15-3.12l1.6-1.91-1.63 1.37c-0.16-2.65-0.34-4.65-0.54-4.65-0.19 0-0.37 2-0.53 4.65l-1.63-1.37 1.6 1.91c-0.06 0.98-0.11 2.04-0.16 3.12-0.93-0.83-2.09-1.85-2.27-1.85l-0.01 0.01c-0.11 0.1 1.35 1.75 2.24 2.73-0.04 1-0.08 1.99-0.11 2.93-1.27-1.14-2.92-2.58-3.16-2.58h-0.03c-0.14 0.15 1.96 2.51 3.14 3.82-0.02 0.58-0.03 1.13-0.05 1.64"/>
    <path id="Fill-48" fill="#AD9278" d="m423.87 329.95c0.01-0.4 0.02-0.87 0.04-1.39v-0.03c0.02-0.51 0.03-1.06 0.05-1.64 0.47 0.51 0.79 0.86 0.79 0.86l0.13-0.14 0.14 0.14s0.32-0.35 0.78-0.86c0.01 0.28 0.02 0.55 0.03 0.81l-1.96 2.25m1.01-3.51c-0.24-0.23-0.54-0.5-0.87-0.79 0.03-0.94 0.07-1.93 0.11-2.93 0.39 0.43 0.66 0.73 0.66 0.73l0.1-0.1 0.1 0.1s0.28-0.3 0.66-0.73c0.04 1 0.08 1.99 0.12 2.93-0.33 0.29-0.63 0.56-0.88 0.79m0-3.96c-0.2-0.18-0.45-0.41-0.72-0.65 0.05-1.08 0.1-2.14 0.16-3.12l0.49 0.58 0.07-0.07 0.07 0.07 0.5-0.58c0.05 0.98 0.1 2.04 0.15 3.12-0.27 0.24-0.52 0.47-0.72 0.65m0-3.86l-0.53-0.45c0.16-2.65 0.34-4.65 0.53-4.65 0.2 0 0.38 2 0.54 4.65l-0.54 0.45"/>
    <path id="Fill-49" fill="#AD9278" d="m424.75 327.75s-0.32-0.35-0.79-0.86c-1.18-1.31-3.28-3.67-3.14-3.82h0.03c0.24 0 1.89 1.44 3.16 2.58 0.33 0.29 0.63 0.56 0.87 0.79-0.37 0.34-0.61 0.56-0.61 0.56l0.61 0.61-0.13 0.14"/>
    <path id="Fill-50" fill="#AD9278" d="m425.02 327.75l-0.14-0.14-0.61-0.61s0.24-0.22 0.61-0.56c0.25-0.23 0.55-0.5 0.88-0.79 1.26-1.14 2.92-2.58 3.16-2.58h0.02c0.15 0.15-1.95 2.51-3.14 3.82-0.46 0.51-0.78 0.86-0.78 0.86"/>
    <path id="Fill-51" fill="#AD9278" d="m424.78 323.45s-0.27-0.3-0.66-0.73c-0.89-0.98-2.35-2.63-2.24-2.73l0.01-0.01c0.18 0 1.34 1.02 2.27 1.85 0.27 0.24 0.52 0.47 0.72 0.65-0.27 0.25-0.45 0.41-0.45 0.41l0.45 0.46-0.1 0.1"/>
    <path id="Fill-52" fill="#AD9278" d="m424.98 323.45l-0.1-0.1-0.45-0.46s0.18-0.16 0.45-0.41c0.2-0.18 0.45-0.41 0.72-0.65 0.93-0.83 2.1-1.85 2.27-1.85 0.01 0 0.01 0.01 0.02 0.01 0.1 0.1-1.36 1.75-2.25 2.73-0.38 0.43-0.66 0.73-0.66 0.73"/>
    <polyline id="Fill-53" points="424.81 319.29 422.72 316.8 424.35 318.17 424.88 318.62 424.56 318.9 424.88 319.22 424.81 319.29" fill="#AD9278"/>
    <polyline id="Fill-54" points="424.95 319.29 424.88 319.22 424.56 318.9 424.88 318.62 425.42 318.17 427.05 316.8 424.95 319.29" fill="#AD9278"/>
    <path id="Fill-55" fill="#9FE4FD" d="m216.68 306.41v-4.53c0.09 0.01 0.18 0.02 0.27 0.03v4.03c-0.09 0.16-0.18 0.32-0.27 0.47m0-7.04v-6.1c0.08 0.01 0.17 0.03 0.27 0.04v5.7c-0.09 0.12-0.18 0.25-0.27 0.36m0-6.44v-55.97c0.09-0.28 0.18-0.57 0.27-0.85v56.5c-0.1 0.12-0.19 0.23-0.27 0.32"/>
    <path id="Fill-56" fill="#8DE8F7" d="m228.46 307.32c-1.02-1.43-1.87-3.21-2.05-5.3 0.83-0.07 2.81-0.27 3.66-0.37 0 0-3.88-2.8-4.65-8.09 0.46-0.04 2.24-0.26 2.71-0.32 0 0-4.25-4.85-5.86-9.92-1.26 3.97-4.14 7.81-5.32 9.29v-56.5c2.05-6.58 3.9-13.26 5.54-20.03 0.67-0.18 1.38-0.28 2.11-0.28h259.81-1.55l-28.68 32.76-3.46-6.09c-0.59-1.05-1.38-1.57-2.17-1.57s-1.57 0.52-2.17 1.57l-8.52 14.98-10.83-19.02c0-0.01-0.01-0.01-0.01-0.02s-0.01-0.01-0.01-0.02-0.01-0.01-0.01-0.01v-0.01l-0.01-0.01v-0.01c-0.01 0-0.01-0.01-0.01-0.01v-0.01h-0.01c0-0.01 0-0.01-0.01-0.02 0-0.01 0-0.01-0.01-0.01v-0.01s0-0.01-0.01-0.01v-0.01l-0.01-0.01c0-0.01-0.01-0.01-0.01-0.01v-0.01c0-0.01-0.01-0.01-0.01-0.01v-0.01l-0.01-0.01s0-0.01-0.01-0.01v-0.01l-0.01-0.01s0-0.01-0.01-0.01v-0.01l-0.01-0.01c0-0.01-0.01-0.01-0.01-0.02-0.57-0.85-1.28-1.28-1.99-1.28-0.78 0-1.57 0.52-2.17 1.57v0.01l-8.56 15.05-10.1-14.27c-0.7-0.99-1.63-1.48-2.56-1.48-0.92 0-1.85 0.49-2.55 1.48l-12.06 17.04-3.44-4.86c-0.15-0.21-0.31-0.4-0.47-0.57-0.26-0.25-0.53-0.45-0.81-0.6-0.01 0-0.02-0.01-0.03-0.01-0.01-0.01-0.02-0.01-0.03-0.02-0.01 0-0.01 0-0.02-0.01h-0.01l-0.01-0.01c-0.01 0-0.01 0-0.02-0.01h-0.01c-0.01-0.01-0.01-0.01-0.02-0.01 0 0-0.01 0-0.01-0.01-0.14-0.06-0.28-0.11-0.42-0.15-0.19-0.05-0.38-0.08-0.57-0.09h-0.01-0.12c-0.92 0-1.85 0.49-2.55 1.49l-20.24 28.59-6.55-9.72c-1.39-2.06-3.21-3.09-5.04-3.09s-3.66 1.03-5.05 3.09l-12.38 18.38-8.42-10.59 29.02-33.15h17.66c2 0 3.63-1.63 3.63-3.63v-1.12c0-1.99-1.63-3.62-3.63-3.62h-0.72c0-2.81-1.82-5.19-4.33-6.03l12.86-14.7h-25.63l-9.42 10.76c-4.26 0.65-7.54 4.29-7.62 8.71l-1.11 1.26h-0.3c-1.99 0-3.62 1.63-3.62 3.62v0.86l-18.99 21.69-2.99-3.76c-0.87-1.09-2.01-1.63-3.15-1.63s-2.28 0.54-3.14 1.63l-29.14 36.65c-0.48-1.1-1.08-2.05-1.79-2.79 0.08-0.42 0.12-0.86 0.12-1.31 0-0.14-0.01-0.28-0.01-0.42l65.88-75.27h-25.64l-33.37 38.12c-0.3-0.07-0.62-0.11-0.95-0.11h-0.16c0-3.51-2.85-6.36-6.37-6.36-0.13 0-0.27 0.01-0.4 0.02-1.09-4.25-4.94-7.38-9.52-7.38-4.11 0-7.62 2.51-9.09 6.09-1.01-0.54-2.17-0.85-3.39-0.85-3.98 0-7.2 3.23-7.2 7.21 0 0.43 0.04 0.86 0.11 1.27h-1.14c-2.3 0-4.18 1.89-4.18 4.19s1.88 4.19 4.18 4.19h30.88l-33.19 37.92c-0.44-0.82-0.84-1.7-1.13-2.59-1.1 3.46-4 6.77-4 6.77 0.22 0.03 0.85 0.11 1.33 0.16l-2.52 2.87m-11.51-1.38v-4.03c0.47 0.05 0.9 0.08 1.19 0.11-0.13 1.46-0.58 2.77-1.19 3.92m0-6.93v-5.7c0.72 0.09 1.83 0.22 2.18 0.25-0.33 2.29-1.25 4.12-2.18 5.45"/>
    <path id="Fill-57" fill="#B0C9CB" d="m338.21 300.16l-9.16-11.52 12.38-18.38c1.39-2.06 3.22-3.09 5.05-3.09s3.65 1.03 5.04 3.09l6.55 9.72-10.15 14.33-0.04-0.05-0.08-0.07-0.26-0.19-0.03-0.02c-0.33-0.21-0.72-0.36-1.13-0.45l-0.02-0.01c-0.14-0.03-0.28-0.05-0.43-0.07-0.15-0.01-0.31-0.02-0.47-0.02-0.65 0-1.33 0.13-2 0.42-1.29 0.55-2.22 1.53-2.6 2.57-1.49 0.24-2.59 1.82-2.65 3.74"/>
    <path id="Fill-58" fill="#B0C9CB" d="m441.22 263.37l-3.36-5.92 8.52-14.98c0.6-1.05 1.38-1.57 2.17-1.57s1.58 0.52 2.17 1.57l3.46 6.09-12.96 14.81"/>
    <path id="Fill-59" fill="#B0C9CB" d="m331.3 308.74c-1.48-1.6-2.96-3.87-3.22-6.72 0.84-0.07 2.81-0.27 3.66-0.37 0 0-2.55-1.85-3.93-5.37h0.03c-0.19-0.61-0.38-1.22-0.58-1.82-0.07-0.29-0.12-0.59-0.17-0.9 0.47-0.04 2.25-0.26 2.71-0.32 0 0-4.24-4.85-5.85-9.92-1.61 5.07-5.85 9.92-5.85 9.92 0.46 0.06 2.25 0.28 2.71 0.32-0.35 2.41-1.35 4.3-2.33 5.64-0.38-2.88-2.13-5.04-4.1-5.04-0.09 0-0.18 0.01-0.28 0.02l-0.35 0.06-0.12 0.03-0.23 0.08-0.13 0.05-0.3 0.15-0.06-0.3-0.09-0.27-0.01-0.03-0.15-0.35-0.05-0.08-0.15-0.23-0.06-0.08-0.17-0.21-0.06-0.06-0.2-0.19-0.06-0.05-0.25-0.17-0.04-0.03-0.29-0.16-0.03-0.01-0.32-0.14h-0.02c-0.37-0.13-0.79-0.2-1.21-0.2-0.51 0-1.04 0.1-1.57 0.29l12.45-14.23 17.58 22.11c0 0.21 0 0.43 0.02 0.65 0.02 0.19 0.05 0.37 0.08 0.54-0.2 0.28-0.38 0.58-0.54 0.9-0.87-1.27-1.88-2.98-2.44-4.73-1.1 3.46-4 6.77-4 6.77 0.32 0.04 1.54 0.19 1.85 0.22-0.27 1.89-1.13 3.31-1.88 4.23m-60.72-2.79c-0.04-0.13-0.09-0.26-0.13-0.39 0.41-1.32 0.64-2.8 0.64-4.37 0-2.07-0.4-4-1.08-5.6l29.14-36.65c0.86-1.09 2-1.63 3.14-1.63s2.28 0.54 3.15 1.63l2.99 3.76-22.13 25.29c-0.46-1.92-0.84-3.08-1.11-3.08-0.39 0-1.06 2.6-1.82 6.42l-7.92 9.06c-0.11-0.12-0.21-0.18-0.3-0.18-0.33 0-0.81 0.79-1.37 2.08l-3.2 3.66m30.71-0.61c-0.23-1.26-1.02-2.31-2.07-2.82l3.38-3.87c-0.09 0.54-0.13 1.13-0.08 1.74 0.02 0.2 0.05 0.41 0.08 0.61-0.71 1.07-1.14 2.54-1.14 4.16l-0.17 0.18"/>
    <path id="Fill-60" fill="#B0C9CB" d="m401.1 276.36l-14.24-20.11 12.06-17.04c0.7-0.99 1.63-1.48 2.55-1.48 0.93 0 1.86 0.49 2.56 1.48l10.1 14.27-1.5 2.62-11.53 20.26"/>
    <path id="Fill-61" fill="#C8BDBA" d="m414.48 293.92l-0.14-0.32-0.05-0.08-0.15-0.23-0.06-0.08-0.17-0.21-0.06-0.06-0.21-0.19-0.05-0.05-0.25-0.17-0.04-0.03-0.29-0.16-0.03-0.01-0.33-0.14h-0.01c-0.13-0.05-0.27-0.09-0.42-0.12l-11.12-15.71 11.53-20.26c0.14-0.02 0.28-0.04 0.42-0.04h0.03c3.08 0.05 5.6 6.6 8.69 6.64h0.03c1.04 0 2.06-0.62 3.06-1.51v20.87l-10.38 11.86m26.74-30.55l-1.13-1.99 1.13 1.99m-18.53-24.95c0.6-1.05 1.39-1.57 2.17-1.57v0.01h-0.08c-0.75 0.03-1.51 0.55-2.09 1.56"/>
    <path id="Fill-62" fill="#C8BDBA" d="m372.82 309.82h-0.06c0-0.15 0.01-0.29 0.01-0.43 0-1.37-0.24-2.67-0.65-3.83 0.41-1.32 0.65-2.8 0.65-4.37 0-3.5-1.14-6.58-2.87-8.39 0.07-0.42 0.11-0.86 0.11-1.31 0-2.67-1.38-4.92-3.26-5.6-0.94-1.58-2.05-2.59-3.24-2.86-0.21-0.04-0.41-0.07-0.62-0.07l-0.16 0.01c-1.33 0.08-2.57 1.08-3.62 2.78-2.14 0.41-3.78 2.82-3.78 5.74 0 0.45 0.04 0.89 0.11 1.31-1.01 1.06-1.81 2.54-2.31 4.29-0.77-1.07-1.87-1.75-3.04-1.75-0.09 0-0.18 0.01-0.28 0.01l-0.35 0.06-0.12 0.03-0.23 0.07-0.13 0.04-0.3 0.13-0.06-0.26-0.1-0.27-0.16-0.32-0.07-0.1-0.15-0.2-0.08-0.09-0.14-0.13 21.57-30.47c1.63-0.9 3.08-4.6 4.75-4.62h0.02c1.14 0 2.23 1.41 3.31 2.82 1.09 1.41 2.17 2.81 3.29 2.83v36.63c-0.47 0.45-0.78 0.68-0.78 0.68 0.2 0.02 0.48 0.05 0.78 0.09v6.63c-0.08 0.09-0.16 0.19-0.24 0.28-1.54-4.86-3.05-8.97-3.8-8.97-0.78 0-2.4 4.48-4 9.61m-0.46-50.04l5.95-8.39c0.7-1 1.63-1.49 2.55-1.49-0.92 0-1.85 0.49-2.55 1.49l-5.95 8.39"/>
    <path id="Fill-63" fill="#FCFEFF" d="m369.49 263.84l2.87-4.06-2.87 4.06"/>
    <path id="Fill-64" fill="#FEFDFD" d="m380.86 264.87c-1.12-0.02-2.2-1.42-3.29-2.83-1.08-1.41-2.17-2.82-3.31-2.82h-0.02c-1.67 0.02-3.12 3.72-4.75 4.62l8.82-12.45c0.7-1 1.63-1.49 2.55-1.49v14.97"/>
    <path id="Fill-65" fill="#FCFEFF" d="m382.95 250.82c-0.25-0.24-0.51-0.43-0.78-0.58-0.01-0.01-0.02-0.01-0.03-0.02 0.28 0.15 0.55 0.35 0.81 0.6"/>
    <path id="Fill-66" fill="#FEFDFD" d="m383.42 251.39l-0.27-0.35c-0.19-0.22-0.39-0.41-0.6-0.56-0.12-0.09-0.25-0.17-0.38-0.24 0.27 0.15 0.53 0.34 0.78 0.58 0.16 0.17 0.32 0.36 0.47 0.57m-1.25-1.15c-0.01-0.01-0.02-0.01-0.03-0.02 0.01 0.01 0.02 0.01 0.03 0.02"/>
    <path id="Fill-67" fill="#FCFEFF" d="m382.14 250.22c-0.01 0-0.02-0.01-0.03-0.01 0.01 0 0.02 0.01 0.03 0.01"/>
    <path id="Fill-68" fill="#FEFDFD" d="m382.14 250.22c-0.01 0-0.02-0.01-0.03-0.01 0.01 0 0.02 0.01 0.03 0.01"/>
    <path id="Fill-69" fill="#FCFEFF" d="m382.11 250.21v-0.01h-0.02l-0.01-0.01c0.01 0.01 0.02 0.01 0.03 0.02"/>
    <path id="Fill-70" fill="#FEFDFD" d="m382.11 250.2h-0.02 0.02m-0.02 0l-0.01-0.01 0.01 0.01"/>
    <path id="Fill-71" fill="#FCFEFF" d="m382.08 250.19c-0.01 0-0.01 0-0.01-0.01h-0.01c0.01 0.01 0.01 0.01 0.02 0.01"/>
    <path id="Fill-72" fill="#FEFDFD" d="m382.08 250.19c-0.01 0-0.01 0-0.01-0.01 0 0.01 0 0.01 0.01 0.01"/>
    <path id="Fill-73" fill="#FCFEFF" d="m382.06 250.18h-0.01 0.01"/>
    <path id="Fill-74" fill="#FEFDFD" d="m382.06 250.18h-0.01 0.01"/>
    <path id="Fill-75" fill="#FCFEFF" d="m382.04 250.17"/>
    <path id="Fill-76" fill="#FEFDFD" d="m382.04 250.17"/>
    <path id="Fill-77" fill="#FCFEFF" d="m382.02 250.16"/>
    <path id="Fill-78" fill="#FEFDFD" d="m382.02 250.16"/>
    <path id="Fill-79" fill="#FCFEFF" d="m382.01 250.16"/>
    <polyline id="Fill-80" points="382.01 250.16 382.01 250.16 382.01 250.16" fill="#FEFDFD"/>
    <path id="Fill-81" fill="#FCFEFF" d="m381.99 250.15m-1-0.25h-0.01 0.01m-0.01 0h-0.12 0.12"/>
    <path id="Fill-82" fill="#FEFDFD" d="m380.98 249.9h-0.12 0.12"/>
    <path id="Fill-83" fill="#FCFEFF" d="m414.13 253.48l8.56-15.05-8.56 15.05m8.56-15.05v-0.01 0.01"/>
    <polyline id="Fill-84" points="412.63 256.1 414.13 253.48 412.63 256.1" fill="#FCFEFE"/>
    <path id="Fill-85" fill="#FEFDFD" d="m421.8 262.7h-0.03c-3.09-0.04-5.61-6.59-8.69-6.64h-0.03c-0.14 0-0.28 0.02-0.42 0.04l1.5-2.62 8.56-15.05v-0.01c0.58-1.01 1.34-1.53 2.09-1.56h0.08v24.33c-1 0.89-2.02 1.51-3.06 1.51"/>
    <polyline id="Fill-86" points="437.86 257.45 427.03 238.43 437.86 257.45" fill="#FCFEFF"/>
    <polyline id="Fill-87" points="440.09 261.38 440.09 261.38 437.86 257.45 440.09 261.38" fill="#FCFEFE"/>
    <polyline id="Fill-88" points="440.09 261.38 440.09 261.38 427.03 238.43 440.09 261.38" fill="#FEFDFD"/>
    <path id="Fill-89" fill="#FCFEFF" d="m427.02 238.41m-0.01-0.02m-0.01-0.01v-0.01 0.01m-0.01-0.02v-0.01 0.01m-0.01-0.02v-0.01 0.01m-0.01-0.01c0-0.01 0-0.01-0.01-0.02 0.01 0.01 0.01 0.01 0.01 0.02m-0.01-0.02c0-0.01 0-0.01-0.01-0.01 0.01 0 0.01 0 0.01 0.01m-0.01-0.02s0-0.01-0.01-0.01c0.01 0 0.01 0.01 0.01 0.01m-0.01-0.02l-0.01-0.01 0.01 0.01m-0.01-0.01c0-0.01-0.01-0.01-0.01-0.01s0.01 0 0.01 0.01m-0.01-0.02l-0.01-0.01s0.01 0 0.01 0.01m-0.01-0.02l-0.01-0.01 0.01 0.01m-0.02-0.02v-0.01 0.01m-0.01-0.02m-0.01-0.01v-0.01 0.01m-0.02-0.04"/>
    <path id="Fill-90" fill="#BDB3B0" d="m424.86 282.06v-20.87c0.74-0.66 1.49-1.46 2.23-2.27 1.73-1.89 3.47-3.78 5.28-3.78h0.02c2.72 0.03 5.06 5.15 7.7 6.24l1.13 1.99-16.36 18.69"/>
    <path id="Fill-91" fill="#87DAE8" d="m427.03 238.43c0-0.01 0-0.01-0.01-0.02 0 0.01 0.01 0.01 0.01 0.02"/>
    <path id="Fill-92" fill="#BDB3B0" d="m427.03 238.43c0-0.01 0-0.01-0.01-0.02 0.01 0.01 0.01 0.01 0.01 0.02"/>
    <path id="Fill-93" fill="#87DAE8" d="m427.02 238.41c0-0.01 0-0.01-0.01-0.01v-0.01c0 0.01 0.01 0.01 0.01 0.02"/>
    <path id="Fill-94" fill="#BDB3B0" d="m427.02 238.41c0-0.01 0-0.01-0.01-0.01 0.01 0 0.01 0 0.01 0.01"/>
    <path id="Fill-95" fill="#87DAE8" d="m427.01 238.39v-0.01h-0.01s0.01 0 0.01 0.01"/>
    <path id="Fill-96" fill="#BDB3B0" d="m427.01 238.38h-0.01 0.01"/>
    <path id="Fill-97" fill="#87DAE8" d="m427 238.37l-0.01-0.01 0.01 0.01"/>
    <path id="Fill-98" fill="#BDB3B0" d="m427 238.37l-0.01-0.01 0.01 0.01"/>
    <path id="Fill-99" fill="#87DAE8" d="m426.99 238.35c-0.01 0-0.01-0.01-0.01-0.01s0 0.01 0.01 0.01m-0.01-0.02h-0.01 0.01m-0.02-0.02m-0.01-0.01v-0.01 0.01m-0.01-0.02v-0.01 0.01m-0.01-0.02m-0.01-0.01v-0.01 0.01m-0.01-0.02v-0.01 0.01m-0.01-0.02s0-0.01-0.01-0.01c0.01 0 0.01 0.01 0.01 0.01m-0.01-0.02l-0.01-0.01 0.01 0.01m-0.01-0.01s0-0.01-0.01-0.01c0.01 0 0.01 0.01 0.01 0.01m-0.01-0.02l-0.01-0.01 0.01 0.01m-0.01-0.01c0-0.01-0.01-0.01-0.01-0.02 0 0.01 0.01 0.01 0.01 0.02m-0.01-0.02c-0.05-0.07-0.09-0.13-0.14-0.2-0.01 0-0.01 0-0.01-0.01l-0.01-0.01-0.01-0.01v-0.01c-0.01 0-0.01 0-0.01-0.01-0.54-0.68-1.17-1.03-1.81-1.03 0.71 0 1.42 0.43 1.99 1.28"/>
    <path id="Fill-100" fill="#BDB3B0" d="m426.71 237.93m-0.01-0.01l-0.01-0.01 0.01 0.01m-0.01-0.01l-0.01-0.01 0.01 0.01m-0.01-0.02c-0.01 0-0.01 0-0.01-0.01 0 0.01 0 0.01 0.01 0.01m-0.01-0.01c-0.37-0.47-0.79-0.78-1.21-0.93-0.2-0.04-0.4-0.07-0.6-0.09v-0.01c0.64 0 1.27 0.35 1.81 1.03"/>
    <path id="Fill-101" fill="#ECEEEF" d="m427.02 238.41m-0.01-0.01v-0.02 0.01 0.01m-0.01-0.02v-0.01 0.01m-0.01-0.02c-0.09-0.15-0.18-0.29-0.28-0.43 0.05 0.07 0.09 0.13 0.14 0.2 0 0.01 0.01 0.01 0.01 0.02l0.01 0.01v0.01c0.01 0 0.01 0.01 0.01 0.01l0.01 0.01v0.01c0.01 0 0.01 0.01 0.01 0.01l0.01 0.01v0.01l0.01 0.01v0.01s0.01 0 0.01 0.01l0.01 0.01v0.01c0.01 0 0.01 0.01 0.01 0.01v0.01c0.01 0 0.01 0 0.01 0.01 0.01 0.01 0.01 0.01 0.01 0.02h0.01v0.01s0 0.01 0.01 0.01v0.01m-0.28-0.43c-0.01 0-0.01 0-0.01-0.01 0 0.01 0 0.01 0.01 0.01m-0.02-0.02m-0.01-0.01v-0.01 0.01m-0.01-0.02"/>
    <path id="Fill-102" fill="#EEEDEE" d="m440.09 261.38c-2.64-1.09-4.98-6.21-7.7-6.24h-0.02c-1.81 0-3.55 1.89-5.28 3.78-0.74 0.81-1.49 1.61-2.23 2.27v-24.33c0.2 0.02 0.4 0.05 0.6 0.09 0.42 0.15 0.84 0.46 1.21 0.93 0 0.01 0 0.01 0.01 0.01v0.01l0.01 0.01 0.01 0.01c0 0.01 0 0.01 0.01 0.01 0.1 0.14 0.19 0.28 0.28 0.43l0.01 0.01v0.01h0.01v0.02c0.01 0 0.01 0 0.01 0.01 0.01 0.01 0.01 0.01 0.01 0.02l13.06 22.95"/>
    <polyline id="Fill-103" points="401.1 276.36 392.86 264.71 401.1 276.36" fill="#A7BDBF"/>
    <polyline id="Fill-104" points="412.22 292.07 412.22 292.07 401.1 276.36 412.22 292.07" fill="#BDB3B0"/>
    <path id="Fill-105" fill="#BDB3B0" d="m380.86 308.9v-6.63c0.69 0.07 1.55 0.16 2.21 0.22-0.23 1.43-0.46 2.86-0.68 4.27-0.46 0.8-0.99 1.51-1.53 2.14m11.26-5.49c-0.05-0.28-0.09-0.57-0.11-0.87 0.36-0.02 0.93-0.08 1.53-0.14-0.54 0.21-1.03 0.56-1.42 1.01m9.58-0.63c-0.87-1.27-1.89-2.98-2.45-4.73-0.27 0.84-0.64 1.67-1.05 2.45-0.31-0.1-0.62-0.16-0.94-0.16l-0.17 0.02c-0.8 0.05-1.56 0.44-2.24 1.11-1.18-1.13-3.29-3.63-3.83-7.38 0.46-0.04 2.24-0.26 2.71-0.32 0 0-4.25-4.85-5.86-9.92-0.17 0.55-0.38 1.1-0.61 1.64-0.15-0.38-0.28-0.58-0.39-0.58-0.3 0-0.75 1.48-1.28 3.85-1.72 2.9-3.57 5.01-3.57 5.01 0.41 0.05 1.87 0.23 2.51 0.3-0.16 0.84-0.31 1.71-0.47 2.61-0.89 2.35-2.31 3.98-3.2 4.82v-36.63h0.03 0.02c1.94-0.03 3.52-4.93 5.46-4.97h0.02c1 0 1.97 1.25 2.93 2.49 0.97 1.24 1.94 2.48 2.93 2.48h0.09c0.18-0.01 0.35-0.07 0.52-0.16l19.36 27.36c-0.25-0.05-0.52-0.08-0.8-0.08-0.64 0-1.33 0.15-2 0.48-0.93 0.45-1.68 1.15-2.16 1.96-1.23 0.56-2.11 1.51-2.47 2.52-1.66 0.26-2.83 2.18-2.64 4.39 0.02 0.19 0.05 0.37 0.08 0.54-0.2 0.27-0.38 0.57-0.53 0.9"/>
    <path id="Fill-106" fill="#87DAE8" d="m382.11 250.21m-0.03-0.02m-0.02-0.01m-0.01 0l-0.01-0.01 0.01 0.01m-0.01-0.01c-0.01 0-0.01 0-0.02-0.01 0.01 0.01 0.01 0.01 0.02 0.01m-0.02-0.01h-0.01 0.01m-0.01 0c-0.01-0.01-0.01-0.01-0.02-0.01 0.01 0 0.01 0 0.02 0.01m-0.02-0.01s-0.01 0-0.01-0.01c0 0.01 0.01 0.01 0.01 0.01m-0.01-0.01c-0.32-0.14-0.66-0.22-0.99-0.24 0.19 0.01 0.38 0.04 0.57 0.09 0.14 0.04 0.28 0.09 0.42 0.15"/>
    <path id="Fill-107" fill="#ECEEEF" d="m386.86 256.25l-3.44-4.86 3.44 4.86m-4.72-6.03m-0.03-0.01v-0.01 0.01m-0.02-0.01m-0.01-0.01m-0.01-0.01h-0.01 0.01m-0.02 0l-0.01-0.01 0.01 0.01m-0.01-0.01c-0.01 0-0.01 0-0.02-0.01 0.01 0.01 0.01 0.01 0.02 0.01m-0.02-0.01h-0.01 0.01m-0.01 0c-0.34-0.16-0.68-0.25-1.03-0.26h0.01c0.33 0.02 0.67 0.1 0.99 0.24 0 0.01 0.01 0.01 0.01 0.01 0.01 0 0.01 0 0.02 0.01"/>
    <polyline id="Fill-108" points="392.86 264.71 386.86 256.25 392.86 264.71" fill="#EDEEEE"/>
    <path id="Fill-109" fill="#EEEDEE" d="m392.25 264.87c-0.99 0-1.96-1.24-2.93-2.48-0.96-1.24-1.93-2.49-2.93-2.49h-0.02c-1.94 0.04-3.52 4.94-5.46 4.97h-0.02-0.03v-14.97h0.12c0.35 0.01 0.69 0.1 1.03 0.26h0.01c0.01 0.01 0.01 0.01 0.02 0.01l0.01 0.01h0.01 0.01c0 0.01 0 0.01 0.01 0.01l0.01 0.01h0.02v0.01c0.01 0 0.02 0.01 0.03 0.01 0.01 0.01 0.02 0.01 0.03 0.02 0.13 0.07 0.26 0.15 0.38 0.24 0.21 0.15 0.41 0.34 0.6 0.56l0.27 0.35 9.44 13.32c-0.17 0.09-0.34 0.15-0.52 0.16h-0.09"/>
    <path id="Fill-110" fill="#749685" d="m302.95 328.56h-8.75c-0.36-0.82-0.96-1.37-1.44-1.81-0.64-0.57-0.89-0.83-0.89-1.42 0-0.56 0.22-0.81 0.89-1.42 0.74-0.67 1.76-1.59 1.76-3.38s-1.02-2.71-1.76-3.38c-0.67-0.61-0.89-0.86-0.89-1.42 0-0.73-0.6-1.33-1.33-1.33s-1.33 0.6-1.33 1.33c0 1.79 1.02 2.71 1.77 3.38 0.67 0.61 0.89 0.86 0.89 1.42s-0.22 0.81-0.89 1.42c-0.75 0.67-1.77 1.59-1.77 3.38 0 1.65 0.87 2.57 1.59 3.23h-2.45c-0.33-1.06-1.02-1.72-1.56-2.24-0.63-0.62-0.92-0.92-0.92-1.61 0-0.68 0.29-0.99 0.92-1.6 0.73-0.71 1.74-1.67 1.74-3.51 0-1.61-0.76-2.55-1.44-3.23l12.13-13.85c1.05 0.51 1.84 1.56 2.07 2.82l0.17-0.18c0-1.62 0.43-3.09 1.14-4.16-0.03-0.2-0.06-0.41-0.08-0.61-0.05-0.61-0.01-1.2 0.08-1.74l5.58-6.37c0.53-0.19 1.06-0.29 1.57-0.29 0.42 0 0.84 0.07 1.21 0.2h0.02l0.32 0.14 0.03 0.01 0.29 0.16 0.04 0.03 0.25 0.17 0.06 0.05 0.2 0.19 0.06 0.06 0.17 0.21 0.06 0.08 0.15 0.23 0.05 0.08 0.15 0.35 0.01 0.03 0.09 0.27 0.06 0.3 0.3-0.15 0.13-0.05 0.23-0.08 0.12-0.03 0.35-0.06c0.1-0.01 0.19-0.02 0.28-0.02 1.97 0 3.72 2.16 4.1 5.04-1.17 1.62-2.33 2.45-2.33 2.45 0.86 0.1 2.83 0.3 3.67 0.37-0.45 4.95-4.58 8.16-6 9.13-0.58-0.7-2.52-3.17-3.33-5.73-0.97 3.03-3.51 5.93-3.51 5.93 0.28 0.04 1.35 0.17 1.62 0.19-0.46 3.16-2.78 4.84-2.78 4.84 0.51 0.06 1.69 0.18 2.19 0.22-0.32 3.59-3.87 5.65-3.87 5.65 0.46 0.06 2.26 0.37 2.72 0.41-0.59 3.72-4.78 5.59-4.78 5.59 0.29 0.11 0.58 0.21 0.87 0.31m-17.66 0h-8.86l8.91-10.18c0.36 0.39 0.53 0.69 0.53 1.22 0 0.68-0.28 0.98-0.92 1.6-0.73 0.7-1.73 1.67-1.73 3.51 0 1.85 1 2.81 1.73 3.52 0.13 0.12 0.24 0.23 0.34 0.33m-34.5 0h-15.28l32.82-37.49c0 0.14 0.01 0.28 0.01 0.42 0 0.45-0.04 0.89-0.12 1.31 0.71 0.74 1.31 1.69 1.79 2.79 0.68 1.6 1.08 3.53 1.08 5.6 0 1.57-0.23 3.05-0.64 4.37 0.04 0.13 0.09 0.26 0.13 0.39l-19.79 22.61m66.75-1.1c-1.27-0.86-3.01-2.43-3.41-4.7 1.12 0.24 2.26 0.44 3.41 0.58v4.12m-100.86-6.68v-14.37c0.09-0.15 0.18-0.31 0.27-0.47 0.61-1.15 1.06-2.46 1.19-3.92-0.29-0.03-0.72-0.06-1.19-0.11-0.09-0.01-0.18-0.02-0.27-0.03v-2.51c0.09-0.11 0.18-0.24 0.27-0.36 0.93-1.33 1.85-3.16 2.18-5.45-0.35-0.03-1.46-0.16-2.18-0.25-0.1-0.01-0.19-0.03-0.27-0.04v-0.34c0.08-0.09 0.17-0.2 0.27-0.32 1.18-1.48 4.06-5.32 5.32-9.29 1.61 5.07 5.86 9.92 5.86 9.92-0.47 0.06-2.25 0.28-2.71 0.32 0.77 5.29 4.65 8.09 4.65 8.09-0.85 0.1-2.83 0.3-3.66 0.37 0.18 2.09 1.03 3.87 2.05 5.3l-11.78 13.46m97.02-1.78c-0.38-0.7-0.66-1.5-0.74-2.4 0.5-0.04 1.68-0.16 2.19-0.22 0 0-2.32-1.68-2.78-4.84 0.17-0.01 0.63-0.07 1.03-0.12-0.04 0.03-0.06 0.04-0.06 0.04 0.77 0.09 3.79 0.62 4.55 0.69-0.48 3.01-2.37 5.29-4.19 6.85m-82.72-14.55c-0.48-0.05-1.11-0.13-1.33-0.16 0 0 2.9-3.31 4-6.77 0.29 0.89 0.69 1.77 1.13 2.59l-3.8 4.34m42.8-2.16c0.56-1.29 1.04-2.08 1.37-2.08 0.09 0 0.19 0.06 0.3 0.18l-1.67 1.9m54.03-6.01c-0.22-0.56-0.41-1.17-0.55-1.82 0.2 0.6 0.39 1.21 0.58 1.82h-0.03m-44.44-4.95c0.76-3.82 1.43-6.42 1.82-6.42 0.27 0 0.65 1.16 1.11 3.08l-2.93 3.34"/>
    <path id="Fill-111" fill="#749685" d="m343.24 328.56h-25.22c0.3-0.1 0.59-0.2 0.87-0.31 0 0-0.59-0.26-1.35-0.79v-4.12c-1.15-0.14-2.29-0.34-3.41-0.58-0.01-0.03-0.01-0.07-0.02-0.1 0.46-0.04 2.27-0.35 2.72-0.41 0 0-1.99-1.16-3.13-3.25 1.82-1.56 3.71-3.84 4.19-6.85-0.76-0.07-3.78-0.6-4.55-0.69 0 0 0.02-0.01 0.06-0.04 0.25-0.03 0.48-0.05 0.59-0.07 0 0-0.06-0.07-0.17-0.2 1.42-0.97 5.55-4.18 6-9.13-0.84-0.07-2.81-0.27-3.67-0.37 0 0 1.16-0.83 2.33-2.45 0.98-1.34 1.98-3.23 2.33-5.64-0.46-0.04-2.25-0.26-2.71-0.32 0 0 4.24-4.85 5.85-9.92 1.61 5.07 5.85 9.92 5.85 9.92-0.46 0.06-2.24 0.28-2.71 0.32 0.05 0.31 0.1 0.61 0.17 0.9 0.14 0.65 0.33 1.26 0.55 1.82 1.38 3.52 3.93 5.37 3.93 5.37-0.85 0.1-2.82 0.3-3.66 0.37 0.26 2.85 1.74 5.12 3.22 6.72 0.75-0.92 1.61-2.34 1.88-4.23-0.31-0.03-1.53-0.18-1.85-0.22 0 0 2.9-3.31 4-6.77 0.56 1.75 1.57 3.46 2.44 4.73 0.16-0.32 0.34-0.62 0.54-0.9-0.03-0.17-0.06-0.35-0.08-0.54-0.02-0.22-0.02-0.44-0.02-0.65 0.06-1.92 1.16-3.5 2.65-3.74 0.38-1.04 1.31-2.02 2.6-2.57 0.67-0.29 1.35-0.42 2-0.42 0.16 0 0.32 0.01 0.47 0.02 0.15 0.02 0.29 0.04 0.43 0.07l0.02 0.01c0.41 0.09 0.8 0.24 1.13 0.45l0.03 0.02 0.26 0.19 0.08 0.07 0.04 0.05 0.14 0.13 0.08 0.09 0.15 0.2 0.07 0.1 0.16 0.32 0.1 0.27 0.06 0.26 0.3-0.13 0.13-0.04 0.23-0.07 0.12-0.03 0.35-0.06c0.1 0 0.19-0.01 0.28-0.01 1.17 0 2.27 0.68 3.04 1.75 0.5-1.75 1.3-3.23 2.31-4.29-0.07-0.42-0.11-0.86-0.11-1.31 0-2.92 1.64-5.33 3.78-5.74 1.05-1.7 2.29-2.7 3.62-2.78l0.16-0.01c0.21 0 0.41 0.03 0.62 0.07 1.19 0.27 2.3 1.28 3.24 2.86 1.88 0.68 3.26 2.93 3.26 5.6 0 0.45-0.04 0.89-0.11 1.31 1.73 1.81 2.87 4.89 2.87 8.39 0 1.57-0.24 3.05-0.65 4.37 0.41 1.16 0.65 2.46 0.65 3.83 0 0.14-0.01 0.28-0.01 0.43h-27.98c-0.85 0-1.54 0.69-1.54 1.54v17.2m36.76-18.74h-7.18c1.6-5.13 3.22-9.61 4-9.61 0.75 0 2.26 4.11 3.8 8.97-0.21 0.22-0.42 0.44-0.62 0.64m15.22-0.55c-1.33-1.43-2.65-3.41-3.1-5.86 0.39-0.45 0.88-0.8 1.42-1.01 0.8-0.07 1.64-0.16 2.13-0.22 0 0-0.33-0.24-0.82-0.71 0.68-0.67 1.44-1.06 2.24-1.11l0.17-0.02c0.32 0 0.63 0.06 0.94 0.16-1.29 2.42-2.95 4.32-2.95 4.32 0.32 0.04 1.54 0.19 1.85 0.22-0.27 1.89-1.13 3.3-1.88 4.23m-12.83-2.51c0.22-1.41 0.45-2.84 0.68-4.27 0.26 0.02 0.49 0.04 0.67 0.05-0.14 1.59-0.66 3-1.35 4.22m1.67-10.08c0.16-0.9 0.31-1.77 0.47-2.61 0.08 0.01 0.15 0.02 0.2 0.02-0.14 0.95-0.38 1.81-0.67 2.59m28.52-0.58l-0.04-0.15-0.09-0.27-0.17-0.32-0.06-0.1-0.16-0.2-0.07-0.09-0.19-0.18-0.08-0.07-0.26-0.19-0.03-0.02c-0.33-0.21-0.71-0.37-1.13-0.46h-0.02c-0.14-0.03-0.28-0.05-0.42-0.07-0.16-0.01-0.32-0.02-0.48-0.02-0.64 0-1.33 0.13-2 0.42-0.04 0.01-0.08 0.03-0.12 0.05 0.48-0.81 1.23-1.51 2.16-1.96 0.67-0.33 1.36-0.48 2-0.48 0.28 0 0.55 0.03 0.8 0.08 0.15 0.03 0.29 0.07 0.42 0.12h0.01l0.33 0.14 0.03 0.01 0.29 0.16 0.04 0.03 0.25 0.17 0.05 0.05 0.21 0.19 0.06 0.06 0.17 0.21 0.06 0.08 0.15 0.23 0.05 0.08 0.14 0.32-1.9 2.18m-26.99-7.34c0.53-2.37 0.98-3.85 1.28-3.85 0.11 0 0.24 0.2 0.39 0.58-0.48 1.15-1.07 2.26-1.67 3.27"/>
    <path id="Fill-112" fill="#749685" d="m400.57 309.82h-20.57c0.2-0.2 0.41-0.42 0.62-0.64 0.08-0.09 0.16-0.19 0.24-0.28 0.54-0.63 1.07-1.34 1.53-2.14 0.69-1.22 1.21-2.63 1.35-4.22-0.18-0.01-0.41-0.03-0.67-0.05-0.66-0.06-1.52-0.15-2.21-0.22-0.3-0.04-0.58-0.07-0.78-0.09 0 0 0.31-0.23 0.78-0.68 0.89-0.84 2.31-2.47 3.2-4.82 0.29-0.78 0.53-1.64 0.67-2.59-0.05 0-0.12-0.01-0.2-0.02-0.64-0.07-2.1-0.25-2.51-0.3 0 0 1.85-2.11 3.57-5.01 0.6-1.01 1.19-2.12 1.67-3.27 0.23-0.54 0.44-1.09 0.61-1.64 1.61 5.07 5.86 9.92 5.86 9.92-0.47 0.06-2.25 0.28-2.71 0.32 0.54 3.75 2.65 6.25 3.83 7.38 0.49 0.47 0.82 0.71 0.82 0.71-0.49 0.06-1.33 0.15-2.13 0.22-0.6 0.06-1.17 0.12-1.53 0.14 0.02 0.3 0.06 0.59 0.11 0.87 0.45 2.45 1.77 4.43 3.1 5.86 0.75-0.93 1.61-2.34 1.88-4.23-0.31-0.03-1.53-0.18-1.85-0.22 0 0 1.66-1.9 2.95-4.32 0.41-0.78 0.78-1.61 1.05-2.45 0.56 1.75 1.58 3.46 2.45 4.73 0.15-0.33 0.33-0.63 0.53-0.9-0.03-0.17-0.06-0.35-0.08-0.54-0.19-2.21 0.98-4.13 2.64-4.39 0.36-1.01 1.24-1.96 2.47-2.52 0.04-0.02 0.08-0.04 0.12-0.05 0.67-0.29 1.36-0.42 2-0.42 0.16 0 0.32 0.01 0.48 0.02 0.14 0.02 0.28 0.04 0.42 0.07h0.02c0.42 0.09 0.8 0.25 1.13 0.46l0.03 0.02 0.26 0.19 0.08 0.07 0.19 0.18 0.07 0.09 0.16 0.2 0.06 0.1 0.17 0.32 0.09 0.27 0.04 0.15-12.01 13.72"/>
    <path id="Fill-113" fill="#6F94B9" d="m359.45 356.79h-107.74l4.4-5.02h0.34c2.19 0 3.35-0.57 4.37-1.08 0.96-0.48 1.86-0.93 3.71-0.93 1.84 0 2.74 0.45 3.7 0.93 1.02 0.51 2.17 1.08 4.37 1.08s3.35-0.57 4.38-1.08c0.95-0.48 1.86-0.93 3.7-0.93s2.75 0.45 3.7 0.93c1.02 0.51 2.18 1.08 4.38 1.08 2.19 0 3.35-0.57 4.37-1.08 0.96-0.48 1.86-0.93 3.71-0.93 1.84 0 2.74 0.45 3.7 0.93 1.02 0.51 2.18 1.08 4.38 1.08 0.41 0 0.75-0.34 0.75-0.75 0-0.42-0.34-0.75-0.75-0.75-1.85 0-2.75-0.46-3.71-0.93-1.02-0.51-2.18-1.08-4.37-1.08-2.2 0-3.36 0.57-4.38 1.08-0.96 0.47-1.86 0.93-3.7 0.93-1.85 0-2.75-0.46-3.71-0.93-1.02-0.51-2.17-1.08-4.37-1.08s-3.35 0.57-4.38 1.08c-0.95 0.47-1.86 0.93-3.7 0.93s-2.74-0.46-3.7-0.93c-1.02-0.51-2.18-1.08-4.37-1.08-2.2 0-3.36 0.57-4.38 1.08-0.76 0.38-1.49 0.74-2.68 0.87l12.36-14.12h14.05c0.19 0.12 0.42 0.18 0.67 0.18 0.24 0 0.47-0.06 0.66-0.18h4.66c0.2 0.12 0.43 0.18 0.67 0.18s0.47-0.06 0.67-0.18h52.03v16.3c0 1.14 0.93 2.07 2.07 2.07h16.18l-2.04 2.33m-133.37 0h-1.48c-4 0-7.3-2.96-7.84-6.81l12.16-13.89h15.28l-18.12 20.7"/>
    <path id="Fill-114" fill="#7DAB7A" d="m343.24 336.09h-52.03c0.39-0.23 0.66-0.65 0.66-1.14 0-0.59 0.25-0.85 0.89-1.42 0.74-0.68 1.76-1.6 1.76-3.39 0-0.62-0.12-1.14-0.32-1.58h8.75c2.07 0.67 4.32 0.95 6.51 1-0.05 1.59-0.08 2.64-0.08 2.64h2.21s-0.03-1.05-0.08-2.64c2.19-0.05 4.44-0.33 6.51-1h25.22v7.53m-53.37 0h-4.66c0.4-0.23 0.66-0.65 0.66-1.14 0-0.69 0.29-0.99 0.92-1.61 0.73-0.7 1.74-1.67 1.74-3.51 0-0.48-0.07-0.9-0.18-1.27h2.45c0.06 0.05 0.12 0.11 0.18 0.16 0.63 0.57 0.89 0.83 0.89 1.42s-0.26 0.84-0.89 1.42c-0.75 0.67-1.77 1.6-1.77 3.39 0 0.49 0.27 0.91 0.66 1.14m-5.99 0h-14.05l6.6-7.53h8.86c0.4 0.42 0.58 0.72 0.58 1.27 0 0.69-0.28 0.99-0.92 1.6-0.73 0.71-1.73 1.67-1.73 3.52 0 0.49 0.26 0.91 0.66 1.14m-39.68 0h-15.28l6.59-7.53h15.28l-6.59 7.53"/>
    <path id="Fill-115" fill="#8BA9C7" d="m304.92 351.77c-2.2 0-3.36-0.57-4.38-1.08-0.96-0.48-1.86-0.93-3.7-0.93-1.85 0-2.75 0.45-3.71 0.93-1.02 0.51-2.18 1.08-4.37 1.08-2.2 0-3.36-0.57-4.38-1.08-0.95-0.48-1.86-0.93-3.7-0.93s-2.75 0.45-3.7 0.93c-1.03 0.51-2.18 1.08-4.38 1.08s-3.35-0.57-4.37-1.08c-0.96-0.48-1.86-0.93-3.7-0.93-1.85 0-2.75 0.45-3.71 0.93-1.02 0.51-2.18 1.08-4.37 1.08h-0.34l1.36-1.56c1.19-0.13 1.92-0.49 2.68-0.87 1.02-0.51 2.18-1.08 4.38-1.08 2.19 0 3.35 0.57 4.37 1.08 0.96 0.47 1.86 0.93 3.7 0.93s2.75-0.46 3.7-0.93c1.03-0.51 2.18-1.08 4.38-1.08s3.35 0.57 4.37 1.08c0.96 0.47 1.86 0.93 3.71 0.93 1.84 0 2.74-0.46 3.7-0.93 1.02-0.51 2.18-1.08 4.38-1.08 2.19 0 3.35 0.57 4.37 1.08 0.96 0.47 1.86 0.93 3.71 0.93 0.41 0 0.75 0.33 0.75 0.75 0 0.41-0.34 0.75-0.75 0.75"/>
    <path id="Fill-116" fill="#fff" d="m332.45 235.27c0.08-4.42 3.36-8.06 7.62-8.71l-7.62 8.71"/>
    <path id="Fill-117" fill="#fff" d="m366.59 236.53h-9.61l5.28-6.03c2.51 0.84 4.33 3.22 4.33 6.03"/>
    <path id="Fill-118" fill="#fff" d="m367.31 244.9h-17.66l7.33-8.37h10.33c2 0 3.63 1.63 3.63 3.62v1.12c0 2-1.63 3.63-3.63 3.63m-39.89-3.89v-0.86c0-1.99 1.63-3.62 3.62-3.62h0.3l-3.92 4.48"/>
    <path id="Fill-119" fill="#fff" d="m248.78 253.81h-10.55c-0.07-0.41-0.11-0.84-0.11-1.27 0-3.98 3.22-7.21 7.2-7.21 1.22 0 2.38 0.31 3.39 0.85-0.48 1.15-0.74 2.41-0.74 3.73 0 1.39 0.29 2.71 0.81 3.9"/>
    <path id="Fill-120" fill="#fff" d="m261.36 253.81h-12.58c-0.52-1.19-0.81-2.51-0.81-3.9 0-1.32 0.26-2.58 0.74-3.73 1.47-3.58 4.98-6.09 9.09-6.09 4.58 0 8.43 3.13 9.52 7.38-3.33 0.21-5.96 2.97-5.96 6.34"/>
    <path id="Fill-121" fill="#fff" d="m274.09 253.81h-12.73c0-3.37 2.63-6.13 5.96-6.34 0.13-0.01 0.27-0.02 0.4-0.02 3.52 0 6.37 2.85 6.37 6.36"/>
    <path id="Fill-122" fill="#fff" d="m267.97 262.19h-30.88c-2.3 0-4.18-1.89-4.18-4.19s1.88-4.19 4.18-4.19h37.16c0.33 0 0.65 0.04 0.95 0.11l-7.23 8.27"/>
    <path id="Fill-123" fill="#94C781" d="m311.51 329.56c-0.16-5.14-0.56-16-1.02-16-0.47 0-0.87 10.86-1.03 16-2.19-0.05-4.44-0.33-6.51-1-0.29-0.1-0.58-0.2-0.87-0.31 0 0 4.19-1.87 4.78-5.59-0.46-0.04-2.26-0.35-2.72-0.41 0 0 3.55-2.06 3.87-5.65-0.5-0.04-1.68-0.16-2.19-0.22 0 0 2.32-1.68 2.78-4.84-0.27-0.02-1.34-0.15-1.62-0.19 0 0 2.54-2.9 3.51-5.93 0.81 2.56 2.75 5.03 3.33 5.73 0.11 0.13 0.17 0.2 0.17 0.2-0.11 0.02-0.34 0.04-0.59 0.07-0.4 0.05-0.86 0.11-1.03 0.12 0.46 3.16 2.78 4.84 2.78 4.84-0.51 0.06-1.69 0.18-2.19 0.22 0.08 0.9 0.36 1.7 0.74 2.4 1.14 2.09 3.13 3.25 3.13 3.25-0.45 0.06-2.26 0.37-2.72 0.41 0.01 0.03 0.01 0.07 0.02 0.1 0.4 2.27 2.14 3.84 3.41 4.7 0.76 0.53 1.35 0.79 1.35 0.79-0.28 0.11-0.57 0.21-0.87 0.31-2.07 0.67-4.32 0.95-6.51 1"/>
    <path id="Fill-124" fill="#AD9278" d="m311.59 332.2h-2.21s0.03-1.05 0.08-2.64c0.16-5.14 0.56-16 1.03-16 0.46 0 0.86 10.86 1.02 16 0.05 1.59 0.08 2.64 0.08 2.64"/>
    <path id="Fill-125" fill="#6DB6B9" d="m216.73 350.01c-0.03-0.27-0.05-0.56-0.05-0.84v-28.39 28.09c0 0.38 0.03 0.75 0.08 1.11l-0.03 0.03"/>
    <polyline id="Fill-126" points="216.68 348.87 216.68 320.78 216.68 348.87" fill="#8ADFFC"/>
    <path id="Fill-127" fill="#9EEBF8" d="m229.62 308.74c-0.39-0.42-0.79-0.9-1.16-1.42l2.52-2.87c0.23 0.03 0.42 0.05 0.52 0.06-0.27 1.89-1.12 3.31-1.88 4.23m6.48-6.49c-0.43-0.62-0.89-1.35-1.32-2.14l33.19-37.92h6.28c2.3 0 4.19-1.89 4.19-4.19 0-1.98-1.39-3.64-3.24-4.08l33.37-38.12h25.64l-65.88 75.27c-0.14-2.49-1.47-4.54-3.25-5.18-0.95-1.58-2.05-2.59-3.24-2.86-0.21-0.04-0.42-0.07-0.63-0.07l-0.16 0.01c-1.33 0.08-2.57 1.08-3.61 2.78-2.15 0.41-3.79 2.82-3.79 5.74 0 0.45 0.04 0.89 0.12 1.31-1.01 1.06-1.82 2.54-2.32 4.29-0.77-1.07-1.86-1.75-3.04-1.75-0.09 0-0.18 0.01-0.27 0.01l-0.36 0.06-0.12 0.03-0.23 0.07-0.13 0.04-0.3 0.13-0.06-0.26-0.09-0.27-0.17-0.32-0.06-0.1-0.15-0.2-0.08-0.09-0.19-0.18-0.07-0.07-0.26-0.19-0.04-0.02c-0.33-0.21-0.71-0.36-1.13-0.45l-0.02-0.01c-0.13-0.03-0.28-0.05-0.42-0.07-0.16-0.01-0.32-0.02-0.48-0.02-0.64 0-1.33 0.13-2 0.42-1.29 0.55-2.22 1.53-2.59 2.57-1.66 0.27-2.83 2.18-2.63 4.39 0.01 0.19 0.04 0.37 0.07 0.54-0.2 0.28-0.38 0.58-0.53 0.9"/>
    <path id="Fill-128" fill="#89A697" d="m235.51 328.56h-18.83v-7.78l11.78-13.46c0.37 0.52 0.77 1 1.16 1.42 0.76-0.92 1.61-2.34 1.88-4.23-0.1-0.01-0.29-0.03-0.52-0.06l3.8-4.34c0.43 0.79 0.89 1.52 1.32 2.14 0.15-0.32 0.33-0.62 0.53-0.9-0.03-0.17-0.06-0.35-0.07-0.54-0.2-2.21 0.97-4.12 2.63-4.39 0.37-1.04 1.3-2.02 2.59-2.57 0.67-0.29 1.36-0.42 2-0.42 0.16 0 0.32 0.01 0.48 0.02 0.14 0.02 0.29 0.04 0.42 0.07l0.02 0.01c0.42 0.09 0.8 0.24 1.13 0.45l0.04 0.02 0.26 0.19 0.07 0.07 0.19 0.18 0.08 0.09 0.15 0.2 0.06 0.1 0.17 0.32 0.09 0.27 0.06 0.26 0.3-0.13 0.13-0.04 0.23-0.07 0.12-0.03 0.36-0.06c0.09 0 0.18-0.01 0.27-0.01 1.18 0 2.27 0.68 3.04 1.75 0.5-1.75 1.31-3.23 2.32-4.29-0.08-0.42-0.12-0.86-0.12-1.31 0-2.92 1.64-5.33 3.79-5.74 1.04-1.7 2.28-2.7 3.61-2.78l0.16-0.01c0.21 0 0.42 0.03 0.63 0.07 1.19 0.27 2.29 1.28 3.24 2.86 1.78 0.64 3.11 2.69 3.25 5.18l-32.82 37.49"/>
    <path id="Fill-129" fill="#84A4C3" d="m216.76 349.98c-0.05-0.36-0.08-0.73-0.08-1.11v-12.78h12.24l-12.16 13.89"/>
    <polyline id="Fill-130" points="228.92 336.09 216.68 336.09 216.68 328.56 235.51 328.56 228.92 336.09" fill="#90B88E"/>
    <path id="Fill-131" fill="#fff" d="m274.25 262.19h-6.28l7.23-8.27c1.85 0.44 3.24 2.1 3.24 4.08 0 2.3-1.89 4.19-4.19 4.19"/>
    <path id="Fill-132" fill="#9EEBF8" d="m320.63 278.05l-12.2-15.35 18.99-21.69v0.26c0 2 1.63 3.63 3.62 3.63h18.61l-29.02 33.15m11.88-41.52h-1.17l1.11-1.26c0 0.06-0.01 0.12-0.01 0.17 0 0.37 0.03 0.73 0.07 1.09m29.75-6.03c-0.64-0.22-1.32-0.33-2.03-0.33-0.27 0-0.54 0.01-0.8 0.05v-0.05c0-3.98-3.23-7.2-7.21-7.2-3.01 0-5.6 1.85-6.67 4.48-1.23-0.63-2.63-0.99-4.12-0.99-0.46 0-0.92 0.03-1.36 0.1l9.42-10.76h25.63l-12.86 14.7"/>
    <path id="Fill-133" fill="#BCD1D3" d="m279.87 312.19c-1.63-5.43-3.42-10.78-4.42-11.8l7.92-9.06c-1.14 5.77-2.51 14.32-3.5 20.86m-8.8-2.12c0.01-0.22 0.02-0.45 0.02-0.68 0-1.22-0.18-2.38-0.51-3.44l3.2-3.66c-0.79 1.84-1.76 4.71-2.71 7.78m18.42-4.46c-1.06-6.64-2.27-13.7-3.19-17.62l22.13-25.29 12.2 15.35-12.45 14.23c-0.15 0.06-0.29 0.12-0.43 0.19-1.29 0.62-2.23 1.73-2.6 2.92-1.26 0.23-2.23 1.54-2.55 3.26l-3.38 3.87c-0.16-0.08-0.33-0.14-0.5-0.2-0.9-1.25-1.97-1.98-3.13-1.98l-0.18 0.02c-1.06 0.07-2.05 0.74-2.88 1.87-1.59 0.25-2.84 1.64-3.04 3.38"/>
    <path id="Fill-134" fill="#89A697" d="m276.43 328.56h-25.64l19.79-22.61c0.33 1.06 0.51 2.22 0.51 3.44 0 0.23-0.01 0.46-0.02 0.68 0.95-3.07 1.92-5.94 2.71-7.78l1.67-1.9c1 1.02 2.79 6.37 4.42 11.8 0.99-6.54 2.36-15.09 3.5-20.86l2.93-3.34c0.92 3.92 2.13 10.98 3.19 17.62 0.2-1.74 1.45-3.13 3.04-3.38 0.83-1.13 1.82-1.8 2.88-1.87l0.18-0.02c1.16 0 2.23 0.73 3.13 1.98 0.17 0.06 0.34 0.12 0.5 0.2l-12.13 13.85c-0.1-0.1-0.2-0.19-0.3-0.29-0.63-0.61-0.92-0.91-0.92-1.6s0.29-0.99 0.92-1.61c0.73-0.71 1.74-1.67 1.74-3.52 0-1.84-1-2.81-1.74-3.51-0.63-0.62-0.92-0.92-0.92-1.61 0-0.74-0.59-1.33-1.32-1.33-0.74 0-1.33 0.59-1.33 1.33 0 1.84 1 2.81 1.73 3.51 0.64 0.62 0.92 0.92 0.92 1.61s-0.28 0.99-0.92 1.61c-0.73 0.71-1.73 1.67-1.73 3.52 0 1.84 1 2.81 1.73 3.51 0.15 0.14 0.28 0.27 0.39 0.39l-8.91 10.18m26.17-29.91c0.32-1.72 1.29-3.03 2.55-3.26 0.37-1.19 1.31-2.3 2.6-2.92 0.14-0.07 0.28-0.13 0.43-0.19l-5.58 6.37"/>
    <path id="Fill-135" fill="#84A4C3" d="m251.71 356.79h-25.63l18.12-20.7h25.63l-12.36 14.12c-0.3 0.04-0.64 0.06-1.02 0.06-1.84 0-2.75-0.46-3.7-0.93-1.03-0.51-2.18-1.08-4.38-1.08-0.41 0-0.75 0.33-0.75 0.75s0.34 0.75 0.75 0.75c1.84 0 2.75 0.45 3.7 0.93 0.97 0.48 2.06 1.02 4.04 1.08l-4.4 5.02"/>
    <polyline id="Fill-136" points="269.83 336.09 244.2 336.09 250.79 328.56 276.43 328.56 269.83 336.09" fill="#90B88E"/>
    <path id="Fill-137" fill="#9CB6CF" d="m256.11 351.77c-1.98-0.06-3.07-0.6-4.04-1.08-0.95-0.48-1.86-0.93-3.7-0.93-0.41 0-0.75-0.33-0.75-0.75s0.34-0.75 0.75-0.75c2.2 0 3.35 0.57 4.38 1.08 0.95 0.47 1.86 0.93 3.7 0.93 0.38 0 0.72-0.02 1.02-0.06l-1.36 1.56"/>
    <path id="Fill-138" fill="#fff" d="m353.87 236.53h-3.52c0.05-0.36 0.07-0.72 0.07-1.09 0-3.48-1.98-6.49-4.87-7.99 1.07-2.63 3.66-4.48 6.67-4.48 3.98 0 7.21 3.22 7.21 7.2v0.05c-3.14 0.39-5.56 3.07-5.56 6.31"/>
    <path id="Fill-139" fill="#fff" d="m350.35 236.53h-17.84c-0.04-0.36-0.07-0.72-0.07-1.09 0-0.05 0.01-0.11 0.01-0.17l7.62-8.71c0.44-0.07 0.9-0.1 1.36-0.1 1.49 0 2.89 0.36 4.12 0.99 2.89 1.5 4.87 4.51 4.87 7.99 0 0.37-0.02 0.73-0.07 1.09"/>
    <path id="Fill-140" fill="#fff" d="m356.98 236.53h-3.11c0-3.24 2.42-5.92 5.56-6.31 0.26-0.04 0.53-0.05 0.8-0.05 0.71 0 1.39 0.11 2.03 0.33l-5.28 6.03"/>
    <path id="Fill-141" fill="#fff" d="m349.65 244.9h-18.61c-1.99 0-3.62-1.63-3.62-3.63v-0.26l3.92-4.48h25.64l-7.33 8.37"/>
    <path id="Fill-142" fill="#6DB6B9" d="m487.04 216.25c-0.82-0.29-1.71-0.45-2.63-0.45h0.29c0.81 0 1.59 0.13 2.32 0.36 0.01 0.03 0.01 0.06 0.02 0.09"/>
    <path id="Fill-143" fill="#9EEBF8" d="m464.28 266.31l-10.1-17.75 28.68-32.76h1.55c0.92 0 1.81 0.16 2.63 0.45 1.5 6.18 3.18 12.29 5.03 18.32l-27.79 31.74"/>
    <polyline id="Fill-144" points="451.32 281.12 441.22 263.37 454.18 248.56 464.28 266.31 451.32 281.12" fill="#BCD1D3"/>
    <path id="Fill-145" fill="#D0C7C4" d="m418.13 295.01c-0.62-0.54-1.33-0.85-2.08-0.85-0.09 0-0.18 0.01-0.27 0.02l-0.36 0.06-0.11 0.03-0.24 0.08-0.12 0.05-0.3 0.15-0.07-0.3-0.08-0.27-0.01-0.03-0.01-0.03 10.38-11.86v2.13c-0.65 0.47-1.27 1.18-1.82 2.09-2.15 0.41-3.79 2.82-3.79 5.74 0 0.45 0.04 0.88 0.12 1.31-0.46 0.47-0.87 1.04-1.24 1.68m33.19-13.89l-10.1-17.75 10.1 17.75"/>
    <path id="Fill-146" fill="#C7BEBC" d="m436.3 298.27c-0.47-2.03-1.35-3.76-2.48-4.94 0.07-0.43 0.12-0.86 0.12-1.31 0-2.68-1.39-4.92-3.27-5.6-0.94-1.58-2.04-2.59-3.24-2.86-0.2-0.05-0.41-0.07-0.62-0.07l-0.16 0.01c-0.62 0.04-1.22 0.28-1.79 0.69v-2.13l16.36-18.69 10.1 17.75-15.02 17.15"/>
    <path id="Fill-147" fill="#89A697" d="m417.05 297.62c-0.77-1.08-1.86-1.75-3.04-1.75-0.09 0-0.18 0-0.27 0.01l-0.36 0.06-0.12 0.03-0.23 0.06-0.13 0.05-0.3 0.13-0.02-0.11 1.9-2.18 0.01 0.03 0.01 0.03 0.08 0.27 0.07 0.3 0.3-0.15 0.12-0.05 0.24-0.08 0.11-0.03 0.36-0.06c0.09-0.01 0.18-0.02 0.27-0.02 0.75 0 1.46 0.31 2.08 0.85-0.44 0.77-0.8 1.65-1.08 2.61"/>
    <path id="Fill-148" fill="#89A697" d="m415.7 321.81v-10.45c0-0.85-0.69-1.54-1.54-1.54h-13.59l12.01-13.72 0.02 0.11 0.3-0.13 0.13-0.05 0.23-0.06 0.12-0.03 0.36-0.06c0.09-0.01 0.18-0.01 0.27-0.01 1.18 0 2.27 0.67 3.04 1.75 0.28-0.96 0.64-1.84 1.08-2.61 0.37-0.64 0.78-1.21 1.24-1.68-0.08-0.43-0.12-0.86-0.12-1.31 0-2.92 1.64-5.33 3.79-5.74 0.55-0.91 1.17-1.62 1.82-2.09 0.57-0.41 1.17-0.65 1.79-0.69l0.16-0.01c0.21 0 0.42 0.02 0.62 0.07 1.2 0.27 2.3 1.28 3.24 2.86 1.88 0.68 3.27 2.92 3.27 5.6 0 0.45-0.05 0.88-0.12 1.31 1.13 1.18 2.01 2.91 2.48 4.94l-9.33 10.67c-0.59-0.55-1.25-0.86-1.94-0.86-0.95 0-1.83 0.58-2.57 1.58-1.46 0.24-2.58 1.61-2.58 3.27 0 0.25 0.03 0.5 0.08 0.74-1.18 1.03-1.96 2.78-1.96 4.77 0 0.24 0.01 0.48 0.03 0.71l-2.33 2.66"/>
    <polyline id="Fill-149" points="385.08 356.79 359.45 356.79 361.49 354.46 387.13 354.46 385.08 356.79" fill="#84A4C3"/>
    <path id="Fill-150" fill="#96CF94" d="m418.03 319.15c-0.02-0.23-0.03-0.47-0.03-0.71 0-1.99 0.78-3.74 1.96-4.77-0.05-0.24-0.08-0.49-0.08-0.74 0-1.66 1.12-3.03 2.58-3.27 0.74-1 1.62-1.58 2.57-1.58 0.69 0 1.35 0.31 1.94 0.86l-8.94 10.21"/>
    <polyline id="Fill-151" points="480.4 294.64 470.3 276.89 492.33 251.73 492.33 281.02 480.4 294.64" fill="#9EEBF8"/>
    <path id="Fill-152" fill="#BCD1D3" d="m466.89 305.87c-0.27-1.46-1.27-2.63-2.57-3.02-0.45-0.62-0.94-1.11-1.46-1.45l-5.52-9.7 12.96-14.81 10.1 17.75-0.06 0.08c-0.12-0.02-0.24-0.03-0.36-0.03-0.09 0-0.18 0.01-0.28 0.02l-0.36 0.06-0.11 0.03-0.24 0.08-0.12 0.05-0.3 0.15-0.06-0.3-0.09-0.27-0.01-0.04-0.15-0.34-0.05-0.08-0.15-0.24-0.06-0.07-0.17-0.21-0.06-0.06-0.21-0.2-0.05-0.04-0.25-0.18-0.04-0.02-0.29-0.16-0.03-0.02-0.32-0.13h-0.02c-0.38-0.13-0.79-0.2-1.21-0.2-0.65 0-1.34 0.15-2 0.48-1.3 0.62-2.23 1.73-2.6 2.92-1.66 0.3-2.83 2.48-2.63 4.99 0.02 0.21 0.04 0.42 0.08 0.62-0.71 1.07-1.14 2.54-1.14 4.16l-0.17 0.18"/>
    <polyline id="Fill-153" points="462.86 301.4 462.86 301.4 457.34 291.7 462.86 301.4" fill="#D0C7C4"/>
    <path id="Fill-154" fill="#C7BEBC" d="m445.47 312.72c-0.57-1.9-1.16-3.78-1.73-5.48l3.16-3.61c-0.52 3.15-1.01 6.3-1.43 9.09m9.62-6.58c-0.54-3.37-1.11-6.84-1.67-9.96l3.92-4.48 5.52 9.7c-0.53-0.34-1.09-0.53-1.68-0.53l-0.17 0.02c-1.06 0.06-2.05 0.74-2.88 1.87-1.59 0.25-2.84 1.63-3.04 3.38"/>
    <path id="Fill-155" fill="#89A697" d="m450.71 328.56h-24.85c0.86-0.08 1.64-0.26 2.28-0.52 2.06-0.42 3.63-2.47 3.63-4.94 0-0.65-0.12-1.26-0.31-1.83l12.28-14.03c0.57 1.7 1.16 3.58 1.73 5.48 0.42-2.79 0.91-5.94 1.43-9.09l6.52-7.45c0.56 3.12 1.13 6.59 1.67 9.96 0.2-1.75 1.45-3.13 3.04-3.38 0.83-1.13 1.82-1.81 2.88-1.87l0.17-0.02c0.59 0 1.15 0.19 1.68 0.53 0.52 0.34 1.01 0.83 1.46 1.45 1.3 0.39 2.3 1.56 2.57 3.02l0.17-0.18c0-1.62 0.43-3.09 1.14-4.16-0.04-0.2-0.06-0.41-0.08-0.62-0.2-2.51 0.97-4.69 2.63-4.99 0.37-1.19 1.3-2.3 2.6-2.92 0.66-0.33 1.35-0.48 2-0.48 0.42 0 0.83 0.07 1.21 0.2h0.02l0.32 0.13 0.03 0.02 0.29 0.16 0.04 0.02 0.25 0.18 0.05 0.04 0.21 0.2 0.06 0.06 0.17 0.21 0.06 0.07 0.15 0.24 0.05 0.08 0.15 0.34 0.01 0.04 0.09 0.27 0.06 0.3 0.3-0.15 0.12-0.05 0.24-0.08 0.11-0.03 0.36-0.06c0.1-0.01 0.19-0.02 0.28-0.02 0.12 0 0.24 0.01 0.36 0.03l-29.63 33.84"/>
    <polyline id="Fill-156" points="426 356.79 400.36 356.79 402.41 354.46 415.7 354.46 415.7 339.27 418.49 336.09 444.12 336.09 426 356.79" fill="#84A4C3"/>
    <path id="Fill-157" fill="#90B88E" d="m444.12 336.09h-25.63l5.38-6.14c-0.03 0.91-0.05 1.47-0.05 1.47h2.12s-0.03-1.15-0.08-2.86h24.85l-6.59 7.53"/>
    <path id="Fill-158" fill="#96CF94" d="m425.86 328.56c-0.01-0.27-0.02-0.56-0.03-0.86l5.63-6.43c0.19 0.57 0.31 1.18 0.31 1.83 0 2.47-1.57 4.52-3.63 4.94-0.64 0.26-1.42 0.44-2.28 0.52"/>
    <path id="Fill-159" fill="#B9A28C" d="m425.94 331.42h-2.12s0.02-0.56 0.05-1.47l1.96-2.25c0.01 0.3 0.02 0.59 0.03 0.86 0.05 1.71 0.08 2.86 0.08 2.86"/>
    <polygon id="Fill-160" points="216.68 283.52 492.36 283.52 492.36 277.56 216.68 277.56" fill="#9ADBDB"/>
    <polygon id="Fill-161" points="216.68 284.91 492.36 284.91 492.36 278.95 216.68 278.95" fill="#53A9AD"/>
    <polygon id="Fill-162" points="158.6 182.54 550.41 182.54 550.41 175.6 158.6 175.6" fill="#AFB2BC"/>
    <polygon id="Fill-163" points="158.6 184.85 163.61 184.85 163.61 173.29 158.6 173.29" fill="#BCBEC7"/>
    <polygon id="Fill-164" points="545.4 184.85 550.41 184.85 550.41 173.29 545.4 173.29" fill="#BCBEC7"/>
    <path id="Fill-165" fill="#B5E0E1" d="m545.4 184.85h-17.46c-0.09-0.77-0.17-1.54-0.25-2.31h17.71v2.31m-64.2 0h-252.91c0.1-0.77 0.2-1.54 0.29-2.31h252.33c0.09 0.77 0.19 1.54 0.29 2.31m-299.65 0h-17.94v-2.31h18.19c-0.08 0.77-0.16 1.54-0.25 2.31"/>
    <path id="Fill-166" fill="#48B1E2" d="m189.82 300.95c19.79-38.13 35.14-79.75 39.51-125.35h-46.76c-7.66 67.63-10.67 133.63-8.32 197.75h25.95c-6.3-24.72-12.01-48.91-10.38-72.4"/>
    <path id="Fill-167" fill="#43AADE" d="m176.83 306.56c-1.26-5.63-2.12-10.79-2.74-15.49 1.18-37.91 4.06-76.42 8.48-115.47h36.87c-8.28 41.51-23.64 80.15-42.35 116.18-0.34 4.9-0.41 9.83-0.26 14.78"/>
    <path id="Fill-168" fill="#B5E0E1" d="m196.98 301.14h-7.18c0.01-0.06 0.01-0.13 0.02-0.19 1.45-2.81 2.89-5.63 4.29-8.48h2.87v8.67"/>
    <path id="Fill-169" fill="#42A1CE" d="m189.8 301.14h-8.4c-2.4 0-4.34-1.94-4.34-4.33 0-2.4 1.94-4.34 4.34-4.34h12.71c-1.4 2.85-2.84 5.67-4.29 8.48-0.01 0.06-0.01 0.13-0.02 0.19"/>
    <path id="Fill-170" fill="#E0E1E2" d="m196.98 298.37h-15.58c-2.4 0-4.34-1.94-4.34-4.34 0-2.39 1.94-4.33 4.34-4.33h15.58v8.67"/>
    <path id="Fill-171" fill="#48B1E2" d="m519.67 300.95c-19.79-38.13-35.14-79.75-39.51-125.35h46.75c7.67 67.63 10.68 133.63 8.33 197.75h-25.95c6.3-24.72 12.01-48.91 10.38-72.4"/>
    <path id="Fill-172" fill="#B5E0E1" d="m519.69 301.14h-7.63v-8.67 5.9h6.28c0.44 0.86 0.89 1.72 1.33 2.58 0.01 0.06 0.01 0.13 0.02 0.19"/>
    <path id="Fill-173" fill="#42A1CE" d="m527.64 301.14h-7.95c-0.01-0.06-0.01-0.13-0.02-0.19-0.44-0.86-0.89-1.72-1.33-2.58h9.3c1.91 0 3.53-1.23 4.11-2.95 0.14 0.44 0.22 0.9 0.22 1.39 0 2.39-1.94 4.33-4.33 4.33"/>
    <path id="Fill-174" fill="#E0E1E2" d="m512.06 298.37h15.58c2.39 0 4.33-1.94 4.33-4.34 0-2.39-1.94-4.33-4.33-4.33h-15.58v8.67"/>
    <path id="Fill-175" fill="#43AADE" d="m532.72 304.07c0.06-4.12-0.04-8.21-0.32-12.29-18.71-36.03-34.08-74.67-42.35-116.18h36.86c4.31 37.99 7.15 75.47 8.39 112.38-0.56 4.83-1.35 10.18-2.58 16.09"/>
    <path id="Fill-176" fill="#CBF0F2" d="m639.2 430.84h8.32v-4.62h-8.32v4.62zm-192.57 0h-22.2v-0.2h-53.7v-4.42h77.32c-0.52 1.58-0.99 3.12-1.42 4.62zm-161.84 0h-22.42c-0.42-1.5-0.89-3.04-1.41-4.62h77.32v4.42h-53.49v0.2zm-223.09 0h8.107v-4.62h-8.107v4.62z"/>
    <polygon id="Fill-177" points="61.698 486.36 647.52 486.36 647.52 430.84 61.698 430.84" fill="#9AE1E5"/>
    <polygon id="Fill-178" points="284.79 464.05 424.43 464.05 424.43 430.64 284.79 430.64" fill="#7EBEC1"/>
    <path id="Fill-179" fill="#73ADB0" d="m370.73 436.52h47.81v-2.24h-47.81v2.24zm-80.05 0h47.6v-2.24h-47.6v2.24z"/>
    <path id="Fill-180" fill="#73ADB0" d="m370.73 441.08h47.81v-2.24h-47.81v2.24zm-80.05 0h47.6v-2.24h-47.6v2.24z"/>
    <path id="Fill-181" fill="#73ADB0" d="m370.73 445.63h47.81v-2.24h-47.81v2.24zm-80.05 0h47.6v-2.24h-47.6v2.24z"/>
    <path id="Fill-182" fill="#73ADB0" d="m370.73 450.19h47.81v-2.25h-47.81v2.25zm-80.05 0h47.6v-2.25h-47.6v2.25z"/>
    <path id="Fill-183" fill="#73ADB0" d="m370.73 454.74h47.81v-2.24h-47.81v2.24zm-80.05 0h47.6v-2.24h-47.6v2.24z"/>
    <path id="Fill-184" fill="#73ADB0" d="m370.73 459.29h47.81v-2.24h-47.81v2.24zm-80.05 0h47.6v-2.24h-47.6v2.24z"/>
    <path id="Fill-185" fill="#828C93" d="m389.64 480.84h-70.75c0-6.6 5.35-11.95 11.96-11.95h46.83c6.6 0 11.96 5.35 11.96 11.95"/>
    <polygon id="Fill-186" points="261.03 383.88 447.98 383.88 447.98 363.25 261.03 363.25" fill="#CED5D8"/>
    <polygon id="Fill-187" points="338.28 480.55 370.73 480.55 370.73 383.88 338.28 383.88" fill="#828C93"/>
    <path id="Fill-188" fill="#939598" d="m442.64 390.05h-176.27c-2.95 0-5.34-2.39-5.34-5.34v-0.83h186.95v0.83c0 2.95-2.39 5.34-5.34 5.34"/>
    <path id="Fill-189" fill="#E7EAEC" d="m354.5 371.92c-38.96 0-73.28-2.78-93.47-7.01v-1.66h186.95v1.66c-20.19 4.23-54.52 7.01-93.48 7.01"/>
    <polygon id="Fill-190" points="338.28 395.66 370.73 395.66 370.73 390.05 338.28 390.05" fill="#777F86"/>
    <polygon id="Fill-191" points="338.28 390.05 370.73 390.05 370.73 389.35 338.28 389.35" fill="#86888A"/>
    <polygon id="Fill-192" points="127.65 138.15 581.36 138.15 581.36 125.66 127.65 125.66" fill="#939598"/>
    <path id="Fill-193" fill="#707677" d="m154.04 153.41h-5.08c-2 0-3.63-1.63-3.63-3.64v-11.62h12.34v11.62c0 2.01-1.63 3.64-3.63 3.64"/>
    <path id="Fill-194" fill="#707677" d="m560.04 153.41h-5.07c-2.01 0-3.63-1.63-3.63-3.64v-11.62h12.34v11.62c0 2.01-1.63 3.64-3.64 3.64"/>
    <path id="Fill-195" fill="#B5E0E1" d="m563.68 144.3h0.05v-6.15h-0.05v6.15zm-406.01 0h393.67v-6.15h-393.67v6.15z"/>
    <polygon id="Fill-196" points="145.37 144.3 157.67 144.3 157.67 138.15 145.37 138.15" fill="#666B6C"/>
    <polygon id="Fill-197" points="551.34 144.3 563.68 144.3 563.68 138.15 551.34 138.15" fill="#666B6C"/>
    <path id="Fill-198" fill="#818797" d="m182.04 392.8h-0.23c-3.93 0-7.12-3.19-7.12-7.13v-8.68c0-3.94 3.19-7.13 7.12-7.13h0.23c3.94 0 7.13 3.19 7.13 7.13v8.68c0 3.94-3.19 7.13-7.13 7.13"/>
    <path id="Fill-199" fill="#7A7F87" d="m241.46 369.86h-56.86c-3.26 0-6.26 2.02-7.27 5.12-1.72 5.33 2.2 10.24 7.27 10.24h40.04c2.66 0 5-1.35 6.37-3.4 0.58-0.86 1.58-1.31 2.61-1.31h8.15c3.03 0 5.47-2.54 5.31-5.61-0.15-2.88-2.73-5.04-5.62-5.04"/>
    <path id="Fill-200" fill="#596466" d="m247.16 449.11c-0.04 9.47-7.02 17.02-15.34 17.02h-39.84c-3.29 0-5.96-3.03-5.96-6.77v-20.83c0-3.74 2.67-6.77 5.96-6.77h39.84c8.32 0 15.3 7.55 15.34 17.02v0.33m5.64-32.54h-80.13v64.75h80.13c10.27-25.15 10.27-39.6 0-64.75"/>
    <path id="Fill-201" fill="#6F787B" d="m196.54 431.76h-4.64c-3.29 0-5.95 3.03-5.95 6.77v20.83c0 3.74 2.66 6.77 5.95 6.77h4.64c-3.29 0-5.96-3.03-5.96-6.77v-20.83c0-3.74 2.67-6.77 5.96-6.77"/>
    <path id="Fill-202" fill="#6F787B" d="m257.36 416.57h-4.64c10.28 25.15 10.28 39.6 0 64.75h4.64c10.27-25.15 10.27-39.6 0-64.75"/>
    <path id="Fill-203" fill="#2091BD" d="m182.09 416.4v-1.81h-7.2v1.14c0 5.2 4.21 9.41 9.41 9.41h74.94c4.97 0 9.03-3.86 9.38-8.74h-86.53"/>
    <path id="Fill-204" fill="#154E7D" d="m198.53 397.04c-7.31 2.02-30.16 8.29-29.8 6.03 8.42-54.22-31.18-129.95-31.18-129.95-3.23-10.12 3.76-19.11 12.72-20.81 7.03-1.33 17.39 0.74 20.03 7.84 3.35 8.97 0.82 26.98 8.82 55.5 7.06 25.15 2.53 9.35 19.73 53.77 6.96 22.2 2.13 26.94-0.32 27.62"/>
    <path id="Fill-205" fill="#7A7F87" d="m199.56 449.43c-0.04 9.47-7.02 17.02-15.35 17.02h-39.83c-3.29 0-5.96-3.03-5.96-6.77v-20.83c0-3.74 2.67-6.77 5.96-6.77h39.83c8.33 0 15.31 7.55 15.35 17.02v0.33m5.64-32.54h-80.13v64.75h80.13c10.27-25.15 10.27-39.6 0-64.75"/>
    <path id="Fill-206" fill="#2C9BC7" d="m155.78 404.45h-36.98c-0.84-0.25-0.86-0.8-0.77-1.51 0.63-5.02 1.49-10.03 1.77-15.07 0.73-13.28-0.65-26.45-3.01-39.53-3.08-17-7.73-33.63-13.62-49.95-3.394-9.4-7.182-18.68-10.793-28.01v-4.16c0.107-0.32 0.239-0.63 0.319-0.96 1.483-6.15 5.367-10.31 11.774-12.35 0.96-0.3 1.95-0.48 2.92-0.72h40.33c1.3 0.28 2.62 0.49 3.89 0.84 5.92 1.59 9.97 4.84 10.74 10.87 0.27 2.18 0.5 4.38 0.61 6.58 0.34 6.95 0.46 13.92 0.94 20.86 0.98 14.2 3.97 28.11 7.96 41.79 2.69 9.24 6.28 18.24 9.41 27.37 2.15 6.29 4.51 12.53 5.5 19.12 0.34 2.21 0.66 4.42 0.99 6.64v4.67c-0.46 1.75-0.81 3.52-1.42 5.22-0.54 1.47-1.63 2.57-3.39 2.94-5.89 1.25-11.77 2.57-17.67 3.77-3.14 0.63-6.33 1.06-9.5 1.59"/>
    <path id="Fill-207" fill="#9BD5E1" d="m155.78 404.45h-36.98c-0.65-0.19-0.81-0.56-0.81-1.05 0 0.49 0.16 0.86 0.81 1.05h36.98c0.59-0.1 1.17-0.19 1.76-0.29-0.59 0.1-1.17 0.19-1.76 0.29m9.5-1.59c1.2-0.24 2.39-0.49 3.59-0.74-1.2 0.25-2.39 0.5-3.59 0.74"/>
    <path id="Fill-208" fill="#124777" d="m168.87 402.12c4.7-0.99 9.38-2.03 14.08-3.03-4.7 1-9.38 2.04-14.08 3.03"/>
    <path id="Fill-209" fill="#AAE0EB" d="m105.3 252.68v-0.01c0.61-0.15 1.23-0.28 1.84-0.42-0.61 0.14-1.23 0.27-1.84 0.43"/>
    <path id="Fill-210" fill="#268DBD" d="m155.78 404.45h-36.98c-0.65-0.19-0.81-0.56-0.81-1.05 0-0.06 0-0.12 0.01-0.19 6.97-1.13 20.06-4.73 25.27-6.17 1.7-0.48 4.55-2.91 3.79-11.82h26.25c2.66 0 5-1.35 6.38-3.4 0.43-0.64 1.1-1.06 1.85-1.23 1.93 1.12 3.88 2.19 5.86 3.21l0.36 2.46v4.67c-0.46 1.75-0.81 3.52-1.42 5.22-0.01 0.02-0.03 0.05-0.04 0.08-0.54 1.43-1.62 2.5-3.35 2.86-4.7 1-9.38 2.04-14.08 3.03-1.2 0.25-2.39 0.5-3.59 0.74-2.56 0.52-5.15 0.9-7.74 1.3-0.59 0.1-1.17 0.19-1.76 0.29m8.22-35.98h-20.78c-15.62-40.28-12.86-29.68-18.07-48.22 9.84 19.11 23.18 35.51 38.85 48.22m-56.81-115.22c-0.62-0.22-1.25-0.41-1.89-0.57 0.61-0.16 1.23-0.29 1.84-0.43 0.02 0.33 0.03 0.67 0.05 1"/>
    <path id="Fill-211" fill="#50B6DE" d="m256.1 390.37h-52.21c6.88 0 12.46 5.83 12.46 13.02v13.01h52.21v-13.01c0-7.19-5.58-13.02-12.46-13.02"/>
    <path id="Fill-212" fill="#2091BD" d="m203.89 390.37h-60.26c-6.88 0-12.45 5.83-12.45 13.02 0 7.18 5.57 13.01 12.45 13.01h72.72v-13.01c0-7.19-5.58-13.02-12.46-13.02"/>
    <path id="Fill-213" fill="#B5BBC7" d="m190.14 368.47h-56.87c-0.17 0-0.33 0.03-0.5 0.04-0.13-0.01-0.26-0.04-0.41-0.04h-0.75c-3.79 0-6.86 2.86-6.86 6.39v8.55c0 3.52 3.07 6.38 6.86 6.38h0.75c2.74 0 5.09-1.49 6.18-3.65 0.72-1.42 2.18-2.31 3.77-2.31h31c2.66 0 5-1.35 6.38-3.4 0.57-0.85 1.58-1.31 2.6-1.31h8.15c3.03 0 5.48-2.54 5.32-5.61-0.15-2.88-2.74-5.04-5.62-5.04"/>
    <path id="Fill-214" fill="#A0A4B6" d="m190.14 369.86h-56.87c-0.17 0-0.33 0.03-0.5 0.04-0.13-0.01-0.26-0.04-0.41-0.04h-0.75c-3.79 0-6.86 2.86-6.86 6.38v8.56c0 3.52 3.07 6.38 6.86 6.38h0.75c2.74 0 5.09-1.5 6.18-3.65 0.72-1.42 2.18-2.31 3.77-2.31h31c2.66 0 5-1.35 6.38-3.4 0.57-0.86 1.58-1.31 2.6-1.31h8.15c3.03 0 5.48-2.54 5.32-5.61-0.15-2.88-2.74-5.04-5.62-5.04"/>
    <path id="Fill-215" fill="#596466" d="m131.61 386.44c-0.72 0-1.31-0.59-1.31-1.32v-9.2c0-0.73 0.59-1.32 1.31-1.32h0.76c0.72 0 1.31 0.59 1.31 1.32v9.2c0 0.73-0.59 1.32-1.31 1.32h-0.76"/>
    <path id="Fill-216" fill="#9A9EA8" d="m126.78 392.8h-0.23c-3.94 0-7.13-3.19-7.13-7.13v-8.68c0-3.94 3.19-7.13 7.13-7.13h0.23c3.94 0 7.13 3.19 7.13 7.13v8.68c0 3.94-3.19 7.13-7.13 7.13"/>
    <path id="Fill-217" fill="#939598" d="m186.2 369.86h-56.87c-3.26 0-6.26 2.02-7.26 5.12-1.72 5.33 2.2 10.24 7.26 10.24h40.05c2.65 0 4.99-1.35 6.37-3.4 0.57-0.86 1.58-1.31 2.61-1.31h8.14c3.04 0 5.48-2.54 5.32-5.61-0.15-2.88-2.74-5.04-5.62-5.04"/>
    <path id="Fill-218" fill="#707677" d="m191.89 449.11c-0.03 9.47-7.01 17.02-15.34 17.02h-39.83c-3.29 0-5.96-3.03-5.96-6.77v-20.83c0-3.74 2.67-6.77 5.96-6.77h39.83c8.33 0 15.31 7.55 15.34 17.02v0.33m5.64-32.54h-80.12v64.75h80.12c10.28-25.15 10.28-39.6 0-64.75"/>
    <path id="Fill-219" fill="#BFC0C1" d="m93.748 432.08h-4.635c-3.289 0-5.954 3.03-5.954 6.77v20.83c0 3.74 2.665 6.77 5.954 6.77h4.635c-3.289 0-5.954-3.03-5.954-6.77v-20.83c0-3.74 2.665-6.77 5.954-6.77"/>
    <path id="Fill-220" fill="#BFC0C1" d="m154.57 416.89h-4.64c10.28 25.15 10.28 39.6 0 64.75h4.64c10.27-25.15 10.27-39.6 0-64.75"/>
    <path id="Fill-221" fill="#30A2CE" d="m126.82 416.4v-1.81h-7.19v1.14c0 5.2 4.21 9.41 9.4 9.41h74.95c4.97 0 9.03-3.86 9.37-8.74h-86.53"/>
    <path id="Fill-222" fill="#215D8E" d="m143.27 397.04c-7.31 2.02-30.16 8.29-29.81 6.03 8.43-54.22-31.173-129.95-31.173-129.95-3.225-10.12 3.76-19.11 12.716-20.81 7.027-1.33 17.397 0.74 20.037 7.84 3.35 8.97 0.82 26.98 8.82 55.5 7.06 25.15 2.53 9.35 19.73 53.77 6.95 22.2 2.13 26.94-0.32 27.62"/>
    <path id="Fill-223" fill="#939598" d="m144.29 449.43c-0.04 9.47-7.01 17.02-15.34 17.02h-39.837c-3.289 0-5.954-3.03-5.954-6.77v-20.83c0-3.74 2.665-6.77 5.954-6.77h39.837c8.33 0 15.3 7.55 15.34 17.02v0.33m5.64-32.54h-80.126v64.75h80.126c10.28-25.15 10.28-39.6 0-64.75"/>
    <path id="Fill-224" fill="#707677" d="m154.14 425.14h-80.838c-3.911 0-7.082-3.17-7.082-7.08v-3.47h95v3.47c0 3.91-3.17 7.08-7.08 7.08"/>
    <path id="Fill-225" fill="#3DACD8" d="m100.52 404.45h-36.987c-0.835-0.25-0.861-0.8-0.772-1.51 0.632-5.02 1.492-10.03 1.771-15.07 0.733-13.28-0.644-26.45-3.009-39.53-3.073-17-7.73-33.63-13.617-49.95-3.393-9.4-7.181-18.68-10.791-28.01v-4.16c0.106-0.32 0.239-0.63 0.318-0.96 1.483-6.15 5.367-10.31 11.779-12.35 0.95-0.3 1.945-0.48 2.919-0.72h40.324c1.301 0.28 2.618 0.49 3.895 0.84 5.92 1.59 9.97 4.84 10.73 10.87 0.28 2.18 0.51 4.38 0.62 6.58 0.34 6.95 0.45 13.92 0.94 20.86 0.98 14.2 3.97 28.11 7.95 41.79 2.7 9.24 6.28 18.24 9.41 27.37 2.16 6.29 4.51 12.53 5.51 19.12 0.33 2.21 0.66 4.42 0.99 6.64v4.67c-0.46 1.75-0.81 3.52-1.43 5.22-0.53 1.47-1.62 2.57-3.39 2.94-5.89 1.25-11.76 2.57-17.66 3.77-3.14 0.63-6.33 1.06-9.5 1.59"/>
    <path id="Fill-226" fill="#9CD7E4" d="m110.02 402.86c1.2-0.24 2.39-0.49 3.59-0.74-1.2 0.25-2.39 0.5-3.59 0.74"/>
    <path id="Fill-227" fill="#1D5688" d="m113.61 402.12c4.69-0.99 9.38-2.03 14.07-3.03-4.69 1-9.38 2.04-14.07 3.03"/>
    <path id="Fill-228" fill="#CCE8F2" d="m37.115 266.22c0.106-0.32 0.239-0.63 0.318-0.96 0.462-1.92 1.159-3.65 2.094-5.17-0.935 1.52-1.632 3.25-2.094 5.17-0.079 0.33-0.212 0.64-0.318 0.96m12.219-13.35h0.002-0.002m0.039-0.01h0.009-0.009m0.032-0.01c0.808-0.24 1.646-0.41 2.472-0.6-0.826 0.19-1.664 0.36-2.472 0.6"/>
    <path id="Fill-229" fill="#359ED0" d="m100.52 404.45h-36.987c-0.642-0.19-0.805-0.56-0.807-1.05 0-0.14 0.015-0.3 0.035-0.46 0.632-5.02 1.492-10.03 1.771-15.07 0.017-0.31 0.033-0.63 0.048-0.94 0.102-2.12 0.149-4.24 0.149-6.36-0.002-10.81-1.275-21.55-3.206-32.23-3.073-17-7.73-33.63-13.617-49.95-3.393-9.4-7.181-18.68-10.791-28.01v-4.16c0.106-0.32 0.239-0.63 0.318-0.96 0.462-1.92 1.159-3.65 2.094-5.17 2.06-3.37 5.274-5.78 9.685-7.18 0.04-0.01 0.081-0.03 0.122-0.04h0.002c0.013 0 0.024-0.01 0.037-0.01h0.009c0.007-0.01 0.016-0.01 0.023-0.01 0.808-0.24 1.646-0.41 2.472-0.6 0.28 5.94 0.873 11.93 1.811 17.96 8.015 51.52 38.698 93.14 78.442 113.59 0.13 0.82 0.25 1.64 0.37 2.46v4.67c-0.46 1.75-0.81 3.52-1.43 5.22-0.01 0.02-0.02 0.05-0.03 0.08-0.55 1.43-1.62 2.5-3.36 2.86-4.69 1-9.38 2.04-14.07 3.03-1.2 0.25-2.39 0.5-3.59 0.74-3.09 0.62-6.23 1.05-9.35 1.56l-0.15 0.03"/>
    <path id="Fill-230" fill="#65C8EF" d="m200.84 390.37h-52.21c6.88 0 12.45 5.83 12.45 13.02v13.01h52.21v-13.01c0-7.19-5.57-13.02-12.45-13.02"/>
    <path id="Fill-231" fill="#48B1E2" d="m148.63 390.37h-60.26c-6.879 0-12.455 5.83-12.455 13.02 0 7.18 5.576 13.01 12.455 13.01h72.71v-13.01c0-7.19-5.57-13.02-12.45-13.02"/>
    <path id="Fill-232" fill="#30659B" d="m145.68 409.36c-11.17-3.43-37.02-10.27-55.215-15.01 1.485-3.42 1.859-10.47-2.588-24.66-17.205-44.43-12.674-28.62-19.732-53.77-8.002-28.52-5.472-46.53-8.817-55.51-2.645-7.09-13.008-9.17-20.038-7.84-8.956 1.7-15.942 10.69-12.716 20.82 0 0 39.227 75.02 31.284 129.18-0.074 0.16-0.098 0.85-0.084 0.89 0.326 7.17 6.05 12.94 13.021 12.94l90.395-0.01c0-1.11-4.82-3.74-15.51-7.03"/>
    <path id="Fill-233" fill="#D2D4D8" d="m134.87 368.47h-56.862c-0.169 0-0.332 0.03-0.497 0.04-0.138-0.01-0.269-0.04-0.409-0.04h-0.752c-3.791 0-6.866 2.86-6.866 6.39v8.55c0 3.52 3.075 6.38 6.866 6.38h0.752c2.736 0 5.08-1.49 6.176-3.65 0.723-1.42 2.179-2.31 3.773-2.31h30.999c2.66 0 5-1.35 6.37-3.4 0.58-0.85 1.58-1.31 2.61-1.31h8.15c3.03 0 5.47-2.54 5.31-5.61-0.15-2.88-2.73-5.04-5.62-5.04"/>
    <path id="Fill-234" fill="#BCBEC7" d="m134.87 369.86h-56.862c-0.169 0-0.332 0.03-0.497 0.04-0.138-0.01-0.269-0.04-0.409-0.04h-0.752c-3.791 0-6.866 2.86-6.866 6.38v8.56c0 3.52 3.075 6.38 6.866 6.38h0.752c2.736 0 5.08-1.5 6.176-3.65 0.723-1.42 2.179-2.31 3.773-2.31h30.999c2.66 0 5-1.35 6.37-3.4 0.58-0.85 1.58-1.31 2.61-1.31h8.15c3.03 0 5.47-2.54 5.31-5.61-0.15-2.88-2.73-5.04-5.62-5.04"/>
    <path id="Fill-235" fill="#707677" d="m76.35 386.44c-0.726 0-1.317-0.59-1.317-1.32v-9.2c0-0.73 0.591-1.32 1.317-1.32h0.752c0.727 0 1.318 0.59 1.318 1.32v9.2c0 0.73-0.591 1.32-1.318 1.32h-0.752"/>
    <path id="Fill-236" fill="#818797" d="m526.96 392.8h0.23c3.94 0 7.13-3.19 7.13-7.13v-8.68c0-3.94-3.19-7.13-7.13-7.13h-0.23c-3.93 0-7.12 3.19-7.12 7.13v8.68c0 3.94 3.19 7.13 7.12 7.13"/>
    <path id="Fill-237" fill="#7A7F87" d="m467.54 369.86h56.87c3.26 0 6.26 2.02 7.26 5.12 1.73 5.33-2.19 10.24-7.26 10.24h-40.04c-2.66 0-5-1.35-6.38-3.4-0.57-0.86-1.58-1.31-2.6-1.31h-8.15c-3.03 0-5.48-2.54-5.32-5.61 0.15-2.88 2.74-5.04 5.62-5.04"/>
    <path id="Fill-238" fill="#596466" d="m461.85 448.78c0.04-9.47 7.02-17.02 15.34-17.02h39.84c3.29 0 5.95 3.03 5.95 6.77v20.83c0 3.74-2.66 6.77-5.95 6.77h-39.84c-8.32 0-15.3-7.55-15.34-17.02v-0.33m-5.64 32.54h80.13v-64.75h-80.13c-10.28 25.15-10.28 39.6 0 64.75"/>
    <path id="Fill-239" fill="#6F787B" d="m512.47 431.76h4.63c3.29 0 5.96 3.03 5.96 6.77v20.83c0 3.74-2.67 6.77-5.96 6.77h-4.63c3.29 0 5.95-3.03 5.95-6.77v-20.83c0-3.74-2.66-6.77-5.95-6.77"/>
    <path id="Fill-240" fill="#6F787B" d="m451.65 416.57h4.63c-10.27 25.15-10.27 39.6 0 64.75h-4.63c-10.28-25.15-10.28-39.6 0-64.75"/>
    <path id="Fill-241" fill="#2091BD" d="m526.92 416.4v-1.81h7.2v1.14c0 5.2-4.21 9.41-9.41 9.41h-74.95c-4.97 0-9.03-3.86-9.37-8.74h86.53"/>
    <path id="Fill-242" fill="#154E7D" d="m510.47 397.04c7.31 2.02 30.16 8.29 29.81 6.03-8.43-54.22 31.18-129.95 31.18-129.95 3.22-10.12-3.76-19.11-12.72-20.81-7.03-1.33-17.39 0.74-20.04 7.84-3.34 8.97-0.81 26.98-8.81 55.5-7.06 25.15-2.53 9.35-19.74 53.77-6.95 22.2-2.12 26.94 0.32 27.62"/>
    <path id="Fill-243" fill="#7A7F87" d="m509.45 449.1c0.04-9.47 7.02-17.02 15.34-17.02h39.84c3.29 0 5.95 3.03 5.95 6.77v20.83c0 3.74-2.66 6.77-5.95 6.77h-39.84c-8.32 0-15.3-7.55-15.34-17.02v-0.33m-5.64 32.54h80.13v-64.75h-80.13c-10.27 25.15-10.27 39.6 0 64.75"/>
    <path id="Fill-244" fill="#2C9BC7" d="m553.22 404.45h36.99c0.84-0.25 0.86-0.8 0.77-1.51-0.63-5.02-1.49-10.03-1.77-15.07-0.73-13.28 0.65-26.45 3.01-39.53 3.07-17 7.73-33.63 13.62-49.95 3.39-9.4 7.18-18.68 10.79-28.01v-4.16c-0.11-0.32-0.24-0.63-0.32-0.96-1.48-6.15-5.37-10.31-11.78-12.35-0.95-0.3-1.94-0.48-2.92-0.72h-40.32c-1.3 0.28-2.62 0.49-3.9 0.84-5.92 1.59-9.96 4.84-10.73 10.87-0.28 2.18-0.51 4.38-0.61 6.58-0.34 6.95-0.46 13.92-0.94 20.86-0.99 14.2-3.97 28.11-7.96 41.79-2.69 9.24-6.28 18.24-9.41 27.37-2.16 6.29-4.51 12.53-5.51 19.12-0.33 2.21-0.66 4.42-0.99 6.64v4.67c0.47 1.75 0.82 3.52 1.43 5.22 0.54 1.47 1.62 2.57 3.39 2.94 5.89 1.25 11.76 2.57 17.67 3.77 3.14 0.63 6.33 1.06 9.49 1.59"/>
    <path id="Fill-245" fill="#9BD5E1" d="m590.21 404.45h-36.99c-0.59-0.1-1.18-0.2-1.77-0.29 0.59 0.09 1.18 0.19 1.77 0.29h36.99c0.64-0.19 0.81-0.56 0.81-1.05 0 0.49-0.17 0.86-0.81 1.05m-46.48-1.59c-1.2-0.24-2.4-0.49-3.59-0.74 1.19 0.25 2.39 0.5 3.59 0.74"/>
    <path id="Fill-246" fill="#124777" d="m540.14 402.12c-4.7-0.99-9.38-2.03-14.08-3.03 4.7 1 9.38 2.04 14.08 3.03"/>
    <path id="Fill-247" fill="#AAE0EB" d="m603.71 252.68c-0.61-0.16-1.23-0.29-1.84-0.43 0.61 0.14 1.23 0.27 1.84 0.42v0.01"/>
    <path id="Fill-248" fill="#268DBD" d="m590.21 404.45h-36.99c-0.59-0.1-1.18-0.2-1.77-0.29-2.58-0.4-5.17-0.79-7.72-1.3-1.2-0.24-2.4-0.49-3.59-0.74-4.7-0.99-9.38-2.03-14.08-3.03-1.7-0.35-2.77-1.38-3.32-2.77-0.03-0.06-0.05-0.12-0.07-0.17-0.61-1.7-0.96-3.47-1.43-5.22v-4.67c0.12-0.82 0.25-1.64 0.37-2.46 1.97-1.02 3.93-2.09 5.86-3.21 0.74 0.17 1.42 0.59 1.85 1.23 1.38 2.05 3.72 3.4 6.37 3.4h26.25c-0.76 8.91 2.1 11.34 3.8 11.82 5.2 1.44 18.3 5.04 25.27 6.17 0 0.07 0.01 0.13 0.01 0.19 0 0.49-0.17 0.86-0.81 1.05m-24.43-35.98h-20.77c15.67-12.71 29.01-29.11 38.85-48.22-5.21 18.54-2.45 7.94-18.08 48.22m36.04-115.22c0.01-0.33 0.03-0.67 0.05-1 0.61 0.14 1.23 0.27 1.84 0.43-0.65 0.16-1.28 0.35-1.89 0.57"/>
    <path id="Fill-249" fill="#50B6DE" d="m452.9 390.37h52.21c-6.87 0-12.45 5.83-12.45 13.02v13.01h-52.21v-13.01c0-7.19 5.58-13.02 12.45-13.02"/>
    <path id="Fill-250" fill="#2091BD" d="m505.11 390.37h60.26c6.88 0 12.46 5.83 12.46 13.02 0 7.18-5.58 13.01-12.46 13.01h-72.71v-13.01c0-7.19 5.58-13.02 12.45-13.02"/>
    <path id="Fill-251" fill="#B5BBC7" d="m518.87 368.47h56.87c0.16 0 0.33 0.03 0.49 0.04 0.14-0.01 0.27-0.04 0.41-0.04h0.75c3.8 0 6.87 2.86 6.87 6.39v8.55c0 3.52-3.07 6.38-6.87 6.38h-0.75c-2.73 0-5.08-1.49-6.17-3.65-0.73-1.42-2.18-2.31-3.78-2.31h-31c-2.65 0-4.99-1.35-6.37-3.4-0.57-0.85-1.58-1.31-2.61-1.31h-8.14c-3.04 0-5.48-2.54-5.32-5.61 0.15-2.88 2.74-5.04 5.62-5.04"/>
    <path id="Fill-252" fill="#A0A4B6" d="m518.87 369.86h56.87c0.16 0 0.33 0.03 0.49 0.04 0.14-0.01 0.27-0.04 0.41-0.04h0.75c3.8 0 6.87 2.86 6.87 6.38v8.56c0 3.52-3.07 6.38-6.87 6.38h-0.75c-2.73 0-5.08-1.5-6.17-3.65-0.73-1.42-2.18-2.31-3.78-2.31h-31c-2.65 0-4.99-1.35-6.37-3.4-0.57-0.86-1.58-1.31-2.61-1.31h-8.14c-3.04 0-5.48-2.54-5.32-5.61 0.15-2.88 2.74-5.04 5.62-5.04"/>
    <path id="Fill-253" fill="#596466" d="m577.39 386.44c0.73 0 1.32-0.59 1.32-1.32v-9.2c0-0.73-0.59-1.32-1.32-1.32h-0.75c-0.72 0-1.32 0.59-1.32 1.32v9.2c0 0.73 0.6 1.32 1.32 1.32h0.75"/>
    <path id="Fill-254" fill="#9A9EA8" d="m582.23 392.8h0.22c3.94 0 7.13-3.19 7.13-7.13v-8.68c0-3.94-3.19-7.13-7.13-7.13h-0.22c-3.94 0-7.13 3.19-7.13 7.13v8.68c0 3.94 3.19 7.13 7.13 7.13"/>
    <path id="Fill-255" fill="#939598" d="m522.8 369.86h56.87c3.26 0 6.26 2.02 7.27 5.12 1.72 5.33-2.2 10.24-7.27 10.24h-40.04c-2.66 0-5-1.35-6.37-3.4-0.58-0.86-1.58-1.31-2.61-1.31h-8.15c-3.03 0-5.47-2.54-5.31-5.61 0.15-2.88 2.73-5.04 5.61-5.04"/>
    <path id="Fill-256" fill="#707677" d="m517.11 448.78c0.04-9.47 7.02-17.02 15.34-17.02h39.84c3.29 0 5.96 3.03 5.96 6.77v20.83c0 3.74-2.67 6.77-5.96 6.77h-39.84c-8.32 0-15.3-7.55-15.34-17.02v-0.33m-5.64 32.54h80.13v-64.75h-80.13c-10.27 25.15-10.27 39.6 0 64.75"/>
    <path id="Fill-257" fill="#BFC0C1" d="m615.26 432.08h4.63c3.29 0 5.96 3.03 5.96 6.77v20.83c0 3.74-2.67 6.77-5.96 6.77h-4.63c3.29 0 5.95-3.03 5.95-6.77v-20.83c0-3.74-2.66-6.77-5.95-6.77"/>
    <path id="Fill-258" fill="#BFC0C1" d="m554.44 416.89h4.63c-10.27 25.15-10.27 39.6 0 64.75h-4.63c-10.28-25.15-10.28-39.6 0-64.75"/>
    <path id="Fill-259" fill="#30A2CE" d="m582.18 416.4v-1.81h7.2v1.14c0 5.2-4.21 9.41-9.41 9.41h-74.94c-4.97 0-9.03-3.86-9.38-8.74h86.53"/>
    <path id="Fill-260" fill="#215D8E" d="m565.74 397.04c7.31 2.02 30.16 8.29 29.8 6.03-8.42-54.22 31.18-129.95 31.18-129.95 3.23-10.12-3.76-19.11-12.72-20.81-7.03-1.33-17.39 0.74-20.03 7.84-3.35 8.97-0.82 26.98-8.82 55.5-7.06 25.15-2.53 9.35-19.73 53.77-6.96 22.2-2.13 26.94 0.32 27.62"/>
    <path id="Fill-261" fill="#939598" d="m564.71 449.1c0.04-9.47 7.02-17.02 15.35-17.02h39.83c3.29 0 5.96 3.03 5.96 6.77v20.83c0 3.74-2.67 6.77-5.96 6.77h-39.83c-8.33 0-15.31-7.55-15.35-17.02v-0.33m-5.64 32.54h80.13v-64.75h-80.13c-10.27 25.15-10.27 39.6 0 64.75"/>
    <path id="Fill-262" fill="#707677" d="m554.87 425.14h80.84c3.91 0 7.08-3.17 7.08-7.08v-3.47h-95v3.47c0 3.91 3.17 7.08 7.08 7.08"/>
    <path id="Fill-263" fill="#3DACD8" d="m608.49 404.45h36.98c0.84-0.25 0.86-0.8 0.77-1.51-0.63-5.02-1.49-10.03-1.77-15.07-0.73-13.28 0.65-26.45 3.01-39.53 3.08-17 7.73-33.63 13.62-49.95 3.39-9.4 7.18-18.68 10.79-28.01v-4.16c-0.11-0.32-0.24-0.63-0.32-0.96-1.48-6.15-5.36-10.31-11.78-12.35-0.95-0.3-1.94-0.48-2.92-0.72h-40.32c-1.3 0.28-2.62 0.49-3.89 0.84-5.92 1.59-9.97 4.84-10.74 10.87-0.27 2.18-0.5 4.38-0.61 6.58-0.34 6.95-0.46 13.92-0.94 20.86-0.98 14.2-3.97 28.11-7.96 41.79-2.69 9.24-6.28 18.24-9.41 27.37-2.15 6.29-4.51 12.53-5.5 19.12-0.34 2.21-0.66 4.42-0.99 6.64v4.67c0.46 1.75 0.81 3.52 1.42 5.22 0.54 1.47 1.63 2.57 3.39 2.94 5.89 1.25 11.77 2.57 17.67 3.77 3.14 0.63 6.33 1.06 9.5 1.59"/>
    <path id="Fill-264" fill="#9CD7E4" d="m645.47 404.45h-36.98c-0.59-0.1-1.17-0.19-1.76-0.29 0.59 0.1 1.17 0.19 1.76 0.29h36.98c0.65-0.19 0.81-0.56 0.81-1.05 0 0.49-0.16 0.86-0.81 1.05m-46.48-1.59c-1.2-0.24-2.4-0.49-3.59-0.74 1.19 0.25 2.39 0.5 3.59 0.74"/>
    <path id="Fill-265" fill="#1D5688" d="m595.4 402.12c-4.7-0.99-9.38-2.03-14.08-3.03-1.76-0.37-2.85-1.47-3.39-2.94-0.61-1.7-0.96-3.47-1.42-5.22 0.46 1.75 0.81 3.52 1.42 5.22 0.54 1.47 1.63 2.57 3.39 2.94 4.7 1 9.38 2.04 14.08 3.03"/>
    <path id="Fill-266" fill="#CCE8F2" d="m647.52 348.13c3.07-16.92 7.72-33.49 13.58-49.74 3.39-9.4 7.18-18.68 10.79-28.01v-4.16c-0.11-0.32-0.24-0.63-0.32-0.96-1.29-5.36-4.4-9.2-9.42-11.46 5.02 2.26 8.13 6.1 9.42 11.46 0.08 0.33 0.21 0.64 0.32 0.96v4.16c-3.61 9.33-7.4 18.61-10.79 28.01-5.86 16.25-10.51 32.82-13.58 49.74"/>
    <path id="Fill-267" fill="#CCE8F2" d="m659.75 252.9v-0.01 0.01m-0.04-0.02m-0.03-0.01h-0.01 0.01m-0.04-0.01c-0.01 0-0.02 0-0.02-0.01 0 0.01 0.01 0.01 0.02 0.01m-0.03-0.01c-0.81-0.24-1.65-0.41-2.48-0.6 0.83 0.19 1.67 0.36 2.48 0.6"/>
    <path id="Fill-268" fill="#359ED0" d="m645.47 404.45h-36.98c-0.59-0.1-1.17-0.19-1.76-0.29-2.59-0.4-5.18-0.78-7.74-1.3-1.2-0.24-2.4-0.49-3.59-0.74-4.7-0.99-9.38-2.03-14.08-3.03-1.76-0.37-2.85-1.47-3.39-2.94-0.61-1.7-0.96-3.47-1.42-5.22v-4.67l0.36-2.46c39.75-20.45 70.43-62.07 78.45-113.59 0.94-6.03 1.53-12.02 1.81-17.96 0.83 0.19 1.67 0.36 2.48 0.6h0.01c0 0.01 0.01 0.01 0.02 0.01s0.02 0.01 0.03 0.01h0.01c0.01 0 0.02 0.01 0.03 0.01 0.02 0.01 0.03 0.01 0.04 0.01v0.01c0.02 0 0.03 0 0.04 0.01 0.83 0.26 1.61 0.56 2.36 0.89 5.02 2.26 8.13 6.1 9.42 11.46 0.08 0.33 0.21 0.64 0.32 0.96v4.16c-3.61 9.33-7.4 18.61-10.79 28.01-5.86 16.25-10.51 32.82-13.58 49.74-0.01 0.07-0.02 0.14-0.04 0.21-1.93 10.68-3.2 21.42-3.2 32.23 0 2.12 0.05 4.24 0.15 6.36 0.01 0.31 0.03 0.63 0.04 0.94 0.28 5.04 1.14 10.05 1.77 15.07 0.02 0.16 0.04 0.32 0.04 0.46 0 0.49-0.16 0.86-0.81 1.05"/>
    <path id="Fill-269" fill="#65C8EF" d="m508.17 390.37h52.21c-6.88 0-12.46 5.83-12.46 13.02v13.01h-52.21v-13.01c0-7.19 5.58-13.02 12.46-13.02"/>
    <path id="Fill-270" fill="#48B1E2" d="m560.38 390.37h60.26c6.88 0 12.45 5.83 12.45 13.02 0 7.18-5.57 13.01-12.45 13.01h-72.72v-13.01c0-7.19 5.58-13.02 12.46-13.02"/>
    <path id="Fill-271" fill="#30659B" d="m563.33 409.36c11.17-3.43 37.02-10.27 55.21-15.01-1.48-3.42-1.86-10.47 2.59-24.66 17.2-44.43 12.67-28.62 19.73-53.77 8-28.52 5.47-46.53 8.82-55.51 2.64-7.09 13.01-9.17 20.04-7.84 8.95 1.7 15.94 10.69 12.71 20.82 0 0-39.22 75.02-31.28 129.18 0.07 0.16 0.1 0.85 0.08 0.89-0.32 7.17-6.05 12.94-13.02 12.94l-90.4-0.01c0-1.11 4.83-3.74 15.52-7.03"/>
    <path id="Fill-272" fill="#D2D4D8" d="m574.13 368.47h56.87c0.17 0 0.33 0.03 0.5 0.04 0.13-0.01 0.26-0.04 0.4-0.04h0.76c3.79 0 6.86 2.86 6.86 6.39v8.55c0 3.52-3.07 6.38-6.86 6.38h-0.76c-2.73 0-5.08-1.49-6.17-3.65-0.72-1.42-2.18-2.31-3.77-2.31h-31c-2.66 0-5-1.35-6.38-3.4-0.57-0.85-1.58-1.31-2.6-1.31h-8.15c-3.04 0-5.48-2.54-5.32-5.61 0.15-2.88 2.74-5.04 5.62-5.04"/>
    <path id="Fill-273" fill="#BCBEC7" d="m574.13 369.86h56.87c0.17 0 0.33 0.03 0.5 0.04 0.13-0.01 0.26-0.04 0.4-0.04h0.76c3.79 0 6.86 2.86 6.86 6.38v8.56c0 3.52-3.07 6.38-6.86 6.38h-0.76c-2.73 0-5.08-1.5-6.17-3.65-0.72-1.42-2.18-2.31-3.77-2.31h-31c-2.66 0-5-1.35-6.38-3.4-0.57-0.85-1.58-1.31-2.6-1.31h-8.15c-3.04 0-5.48-2.54-5.32-5.61 0.15-2.88 2.74-5.04 5.62-5.04"/>
    <path id="Fill-274" fill="#707677" d="m632.66 386.44c0.72 0 1.31-0.59 1.31-1.32v-9.2c0-0.73-0.59-1.32-1.31-1.32h-0.76c-0.72 0-1.31 0.59-1.31 1.32v9.2c0 0.73 0.59 1.32 1.31 1.32h0.76"/>
    <path id="Fill-275" fill="#30659B" d="m330.88 125.76h-119.12c-3.31 0-5.99-2.69-5.99-6v-28.618c0-3.314 2.68-5.999 5.99-5.999h119.12c3.31 0 6 2.685 6 5.999v28.618c0 3.31-2.69 6-6 6"/>
    <path id="Fill-276" fill="#AFB2BC" d="m337.38 116.63c-4.75 2.16-7.25 5.5-9.28 9.08h9.28v-9.08"/>
    <path id="Fill-277" fill="#748D91" d="m334.61 122.79c0-0.32-0.26-0.58-0.57-0.58s-0.56 0.26-0.56 0.58 0.25 0.58 0.56 0.58 0.57-0.26 0.57-0.58"/>
    <path id="Fill-278" fill="#AFB2BC" d="m205.26 116.63c4.76 2.16 7.26 5.5 9.29 9.08h-9.29v-9.08"/>
    <path id="Fill-279" fill="#748D91" d="m208.04 122.79c0-0.32 0.25-0.58 0.56-0.58 0.32 0 0.57 0.26 0.57 0.58s-0.25 0.58-0.57 0.58c-0.31 0-0.56-0.26-0.56-0.58"/>
    <path id="Fill-280" fill="#AFB2BC" d="m337.38 94.003c-4.75-2.158-7.25-5.496-9.28-9.079h9.28v9.079"/>
    <path id="Fill-281" fill="#748D91" d="m334.61 87.85c0 0.321-0.26 0.58-0.57 0.58s-0.56-0.259-0.56-0.58 0.25-0.58 0.56-0.58 0.57 0.259 0.57 0.58"/>
    <path id="Fill-282" fill="#AFB2BC" d="m205.26 94.003c4.76-2.158 7.26-5.496 9.29-9.079h-9.29v9.079"/>
    <path id="Fill-283" fill="#748D91" d="m208.04 87.85c0 0.321 0.25 0.58 0.56 0.58 0.32 0 0.57-0.259 0.57-0.58s-0.25-0.58-0.57-0.58c-0.31 0-0.56 0.259-0.56 0.58"/>
    <polygon id="Fill-284" points="205.77 105.45 336.88 105.45 336.88 104.41 205.77 104.41" fill="#114B72"/>
    <polygon id="Fill-285" points="220.01 125.71 225.71 125.71 225.71 84.845 220.01 84.845" fill="#3DACD8"/>
    <polygon id="Fill-286" points="316.93 125.71 322.63 125.71 322.63 84.845 316.93 84.845" fill="#3DACD8"/>
    <path id="Fill-287" fill="#2B5B8B" d="m289.06 122.21h-35.48c-1.09 0-1.97-0.89-1.97-1.98s0.88-1.97 1.97-1.97h35.48c1.09 0 1.98 0.88 1.98 1.97s-0.89 1.98-1.98 1.98"/>
    <polygon id="Fill-288" points="247.28 113.54 259.15 113.54 259.15 112.19 247.28 112.19" fill="#2B5B8B"/>
    <polygon id="Fill-289" points="283.49 113.54 295.36 113.54 295.36 112.19 283.49 112.19" fill="#2B5B8B"/>
    <polygon id="Fill-290" points="247.28 112.19 259.15 112.19 259.15 109.06 247.28 109.06" fill="#114B72"/>
    <polygon id="Fill-291" points="283.49 112.19 295.37 112.19 295.37 109.06 283.49 109.06" fill="#114B72"/>
    <path id="Fill-292" fill="#DBD5C6" d="m289.24 120.37h-35.84c-0.99 0-1.79-0.83-1.79-1.84v-7.9h3.58v3.77c0 1.01 0.8 1.84 1.79 1.84h28.68c0.99 0 1.79-0.83 1.79-1.84v-3.77h3.59v7.9c0 1.01-0.81 1.84-1.8 1.84"/>
    <path id="Fill-293" fill="#5984AF" d="m271.32 87.614c-20.01 0-37.29-0.949-45.39-2.323h90.79c-8.11 1.374-25.39 2.323-45.4 2.323"/>
    <path id="Fill-294" fill="#DD6E00" d="m484.13 125.76h-62.58v-23.55c0-6.335 5.18-11.52 11.52-11.52h39.54c6.33 0 11.52 5.185 11.52 11.52v23.55"/>
    <path id="Fill-295" fill="#B2DDDE" d="m484.13 102.16c-0.01-0.71-0.08-1.41-0.2-2.09h0.2v2.09m-62.58 0v-2.09h0.2c-0.13 0.68-0.2 1.38-0.2 2.09"/>
    <path id="Fill-296" fill="#C66300" d="m484.13 102.16h-62.58c0-0.71 0.07-1.41 0.2-2.09h0.79c0.72 0.53 1.6 0.84 2.56 0.84h55.48c0.95 0 1.83-0.31 2.55-0.84h0.8c0.12 0.68 0.19 1.38 0.2 2.09"/>
    <path id="Fill-297" fill="#E58013" d="m480.58 100.91h-55.48c-2.38 0-4.32-1.943-4.32-4.321v-5.113c0-0.625 0.51-1.136 1.13-1.136h61.85c0.62 0 1.14 0.511 1.14 1.136v5.113c0 2.378-1.95 4.321-4.32 4.321"/>
    <path id="Fill-298" fill="#EA9942" d="m453.06 92.03c-13.27 0-24.02-0.741-24.02-1.656v-0.034h48.03v0.034c0 0.915-10.75 1.656-24.01 1.656"/>
    <polygon id="Fill-299" points="444.73 108.66 460.94 108.66 460.94 102.76 444.73 102.76" fill="#386850"/>
    <polygon id="Fill-300" points="439.71 90.34 441.71 90.34 441.71 86.093 439.71 86.093" fill="#6E8189"/>
    <polygon id="Fill-301" points="463.96 90.34 465.97 90.34 465.97 86.093 463.96 86.093" fill="#6E8189"/>
    <path id="Fill-302" fill="#939598" d="m465.33 87.002c-7.94-3.378-17.04-3.378-24.99 0-0.84 0.358-1.83 0.052-2.21-0.732-0.15-0.315-0.23-0.473-0.39-0.79-0.38-0.784 0.07-1.802 1.01-2.206 10.2-3.317 17.97-3.317 28.17 0 0.95 0.404 1.39 1.422 1.01 2.206-0.16 0.317-0.23 0.475-0.39 0.79-0.38 0.784-1.37 1.09-2.21 0.732"/>
    <polygon id="Fill-303" points="446.63 100.94 459.05 100.94 459.05 98.002 446.63 98.002" fill="#386850"/>
    <polygon id="Fill-304" points="450.22 106.15 455.45 106.15 455.45 99.016 450.22 99.016" fill="#D6C796"/>
    <path id="Fill-305" fill="#B7A984" d="m455.77 99.192h-5.86c-0.14 0-0.25-0.108-0.25-0.242 0-0.133 0.11-0.242 0.25-0.242h5.86c0.13 0 0.24 0.109 0.24 0.242 0 0.134-0.11 0.242-0.24 0.242"/>
    <path id="Fill-306" fill="#B7A984" d="m455.77 106.39h-5.86c-0.14 0-0.25-0.1-0.25-0.24 0-0.13 0.11-0.24 0.25-0.24h5.86c0.13 0 0.24 0.11 0.24 0.24 0 0.14-0.11 0.24-0.24 0.24"/>
    <path id="Fill-307" fill="#423D38" d="m453.74 101.81c0 0.5-0.4 0.91-0.9 0.91s-0.91-0.41-0.91-0.91 0.41-0.9 0.91-0.9 0.9 0.4 0.9 0.9"/>
    <path id="Fill-308" fill="#423D38" d="m452.84 104.15c-0.2 0-0.36-0.16-0.36-0.36v-1.62c0-0.19 0.16-0.36 0.36-0.36 0.19 0 0.36 0.17 0.36 0.36v1.62c0 0.2-0.17 0.36-0.36 0.36"/>
    <polygon id="Fill-309" points="444.73 109.58 460.94 109.58 460.94 108.67 444.73 108.67" fill="#C66300"/>
    <polygon id="Fill-310" points="421.55 125.76 484.13 125.76 484.13 123.08 421.55 123.08" fill="#C66300"/>
    <path id="Fill-311" fill="#53A9AD" d="m643.25 514.08h-577.5c-10.025 0-18.154-7.55-18.154-16.86 0-9.32 8.129-16.87 18.156-16.87h577.5c10.03 0 18.16 7.55 18.16 16.87 0 9.31-8.13 16.86-18.16 16.86"/>
    <polygon id="Fill-312" points="137.58 95.795 180.5 95.795 180.5 93.856 137.58 93.856" fill="#B4E0E1"/>
    <polygon id="Fill-313" points="137.58 99.73 180.5 99.73 180.5 97.792 137.58 97.792" fill="#B4E0E1"/>
    <polygon id="Fill-314" points="137.58 103.67 180.5 103.67 180.5 101.73 137.58 101.73" fill="#B4E0E1"/>
    <polygon id="Fill-315" points="137.58 107.6 180.5 107.6 180.5 105.67 137.58 105.67" fill="#B4E0E1"/>
    <polygon id="Fill-316" points="137.58 111.54 180.5 111.54 180.5 109.6 137.58 109.6" fill="#B4E0E1"/>
    <polygon id="Fill-317" points="137.58 115.48 180.5 115.48 180.5 113.54 137.58 113.54" fill="#B4E0E1"/>
    <polygon id="Fill-318" points="529.98 95.795 572.9 95.795 572.9 93.856 529.98 93.856" fill="#B4E0E1"/>
    <polygon id="Fill-319" points="529.98 99.73 572.9 99.73 572.9 97.792 529.98 97.792" fill="#B4E0E1"/>
    <polygon id="Fill-320" points="529.98 103.67 572.9 103.67 572.9 101.73 529.98 101.73" fill="#B4E0E1"/>
    <polygon id="Fill-321" points="529.98 107.6 572.9 107.6 572.9 105.67 529.98 105.67" fill="#B4E0E1"/>
    <polygon id="Fill-322" points="529.98 111.54 572.9 111.54 572.9 109.6 529.98 109.6" fill="#B4E0E1"/>
    <polygon id="Fill-323" points="529.98 115.48 572.9 115.48 572.9 113.54 529.98 113.54" fill="#B4E0E1"/>
    <path id="Fill-324" fill="#4FA1A5" d="m379.75 497.22h-50.5c-5.59 0-10.12-4.54-10.12-10.13v-6.74h70.75v6.74c0 5.59-4.54 10.13-10.13 10.13"/>
    <path id="Fill-325" fill="#DD6E00" d="m291.35 346.9c-2.11 0-3.82 1.71-3.82 3.82 0 2.1 1.71 3.82 3.82 3.82h8.7c2.1 0 3.81-1.72 3.81-3.82 0-2.11-1.71-3.82-3.81-3.82h-8.7zm8.7 10.24h-8.7c-3.55 0-6.43-2.88-6.43-6.42s2.88-6.42 6.43-6.42h8.7c3.54 0 6.42 2.88 6.42 6.42s-2.88 6.42-6.42 6.42z"/>
    <path id="Fill-326" fill="#E58013" d="m278.05 339.95v16.98c0 3.5 2.87 6.36 6.37 6.36h7.99c3.5 0 6.36-2.86 6.36-6.36v-16.98h-20.72"/>
    <path id="Fill-327" fill="#DD6E00" d="m295.7 356.82c-7.38 0-13.87-3.73-17.65-9.38v9.49c0 3.5 2.87 6.36 6.37 6.36h7.99c3.5 0 6.36-2.86 6.36-6.36v-0.35c-1 0.14-2.03 0.24-3.07 0.24"/>
    <path id="Fill-328" fill="#C7D5CE" d="m288.35 328.56h-3.06c-0.1-0.1-0.21-0.21-0.34-0.33-0.73-0.71-1.73-1.67-1.73-3.52 0-1.84 1-2.81 1.73-3.51 0.64-0.62 0.92-0.92 0.92-1.6 0-0.53-0.17-0.83-0.53-1.22l1.75-2.01c0.68 0.68 1.44 1.62 1.44 3.23 0 1.84-1.01 2.8-1.74 3.51-0.63 0.61-0.92 0.92-0.92 1.6 0 0.69 0.29 0.99 0.92 1.61 0.54 0.52 1.23 1.18 1.56 2.24"/>
    <path id="Fill-329" fill="#C5D4E3" d="m284.55 336.27c-0.25 0-0.48-0.06-0.67-0.18h1.33c-0.19 0.12-0.42 0.18-0.66 0.18"/>
    <path id="Fill-330" fill="#CBDDCA" d="m285.21 336.09h-1.33c-0.4-0.23-0.66-0.65-0.66-1.14 0-1.85 1-2.81 1.73-3.52 0.64-0.61 0.92-0.91 0.92-1.6 0-0.55-0.18-0.85-0.58-1.27h3.06c0.11 0.37 0.18 0.79 0.18 1.27 0 1.84-1.01 2.81-1.74 3.51-0.63 0.62-0.92 0.92-0.92 1.61 0 0.49-0.26 0.91-0.66 1.14"/>
    <path id="Fill-331" fill="#D0DBD5" d="m285.34 318.38c-0.11-0.12-0.24-0.25-0.39-0.39-0.73-0.7-1.73-1.67-1.73-3.51 0-1.85 1-2.81 1.73-3.52 0.64-0.62 0.92-0.92 0.92-1.61s-0.28-0.99-0.92-1.61c-0.73-0.7-1.73-1.67-1.73-3.51 0-0.74 0.59-1.33 1.33-1.33 0.73 0 1.32 0.59 1.32 1.33 0 0.69 0.29 0.99 0.92 1.61 0.74 0.7 1.74 1.67 1.74 3.51 0 1.85-1.01 2.81-1.74 3.52-0.63 0.62-0.92 0.92-0.92 1.61s0.29 0.99 0.92 1.6c0.1 0.1 0.2 0.19 0.3 0.29l-1.75 2.01"/>
    <path id="Fill-332" fill="#C7D5CE" d="m294.2 328.56h-3.4c-0.72-0.66-1.59-1.58-1.59-3.23 0-1.79 1.02-2.71 1.77-3.38 0.67-0.61 0.89-0.86 0.89-1.42s-0.22-0.81-0.89-1.42c-0.75-0.67-1.77-1.59-1.77-3.38 0-0.73 0.6-1.33 1.33-1.33s1.33 0.6 1.33 1.33c0 0.56 0.22 0.81 0.89 1.42 0.74 0.67 1.76 1.59 1.76 3.38s-1.02 2.71-1.76 3.38c-0.67 0.61-0.89 0.86-0.89 1.42 0 0.59 0.25 0.85 0.89 1.42 0.48 0.44 1.08 0.99 1.44 1.81"/>
    <path id="Fill-333" fill="#C5D4E3" d="m290.54 336.27c-0.24 0-0.47-0.06-0.67-0.18h1.34c-0.2 0.12-0.43 0.18-0.67 0.18"/>
    <path id="Fill-334" fill="#CBDDCA" d="m291.21 336.09h-1.34c-0.39-0.23-0.66-0.65-0.66-1.14 0-1.79 1.02-2.72 1.77-3.39 0.63-0.58 0.89-0.83 0.89-1.42s-0.26-0.85-0.89-1.42c-0.06-0.05-0.12-0.11-0.18-0.16h3.4c0.2 0.44 0.32 0.96 0.32 1.58 0 1.79-1.02 2.71-1.76 3.39-0.64 0.57-0.89 0.83-0.89 1.42 0 0.49-0.27 0.91-0.66 1.14"/>
    <path id="Fill-335" fill="#315363" d="m416.05 362.87h-67.55c-0.98 0-1.77-0.79-1.77-1.78v-6.63h69.32v8.41"/>
    <path id="Fill-336" fill="#506C7C" d="m442 362.87h-66.74c-0.71 0-1.29-0.58-1.29-1.3v-5.81c0-0.72 0.58-1.3 1.29-1.3h66.74c0.71 0 1.29 0.58 1.29 1.3v5.81c0 0.72-0.58 1.3-1.29 1.3"/>
    <path id="Fill-337" fill="#506C7C" d="m410.7 309.82h-65.92c-0.85 0-1.54 0.69-1.54 1.54v41.03c0 1.14 0.93 2.07 2.07 2.07h66.93v-43.1c0-0.85-0.69-1.54-1.54-1.54"/>
    <path id="Fill-338" fill="#578396" d="m414.16 309.82h-65.91c-0.85 0-1.54 0.69-1.54 1.54v43.1h68.99v-43.1c0-0.85-0.69-1.54-1.54-1.54"/>
    <polygon id="Fill-339" points="350.09 351.08 412.32 351.08 412.32 313.2 350.09 313.2" fill="#F0F0F0"/>
    <polygon id="Fill-340" points="350.09 351.08 412.32 351.08 412.32 313.2 350.09 313.2" fill="#40D3F4"/>
    <polygon id="Fill-341" points="402.88 359.87 414.72 359.87 414.72 357.47 402.88 357.47" fill="#195370"/>
    <path id="Fill-342" fill="#A0E9FA" d="m388.08 344.15h-27.38v-20.09h40.93v14.38c-1.47 1.51-3.2 2.77-5.1 3.72h-33.36v1.83h27.37c-0.81 0.1-1.63 0.16-2.46 0.16zm-24.91-3.69h35.73v-1.83h-35.73v1.83zm0-3.53h35.73v-1.83h-35.73v1.83zm0-3.54h35.73v-1.82h-35.73v1.82zm0-3.53h35.73v-1.82h-35.73v1.82z"/>
    <polygon id="Fill-343" points="363.17 329.86 398.9 329.86 398.9 328.04 363.17 328.04" fill="#BDF0FC"/>
    <polygon id="Fill-344" points="363.17 333.39 398.9 333.39 398.9 331.57 363.17 331.57" fill="#BDF0FC"/>
    <polygon id="Fill-345" points="363.17 336.93 398.9 336.93 398.9 335.1 363.17 335.1" fill="#BDF0FC"/>
    <polygon id="Fill-346" points="363.17 340.46 398.9 340.46 398.9 338.63 363.17 338.63" fill="#BDF0FC"/>
    <path id="Fill-347" fill="#BDF0FC" d="m390.54 343.99h-27.37v-1.83h33.36c-1.85 0.92-3.86 1.55-5.99 1.83"/>
    <polyline id="Fill-348" points="412.32 351.08 350.09 351.08 412.32 351.08 412.32 313.2 407.01 313.2 412.32 313.2 412.32 351.08" fill="#799CAB"/>
    <path id="Fill-349" fill="#66DCF6" d="m412.32 351.08h-10.69v-12.64c3.33-3.42 5.38-8.08 5.38-13.23v-12.01h5.31v37.88zm-62.23 0h10.61v-6.93h-10.61v6.93z"/>
    <path id="Fill-350" fill="#B3EDFB" d="m401.63 351.08h-40.93v-6.93h27.38c0.83 0 1.65-0.06 2.46-0.16h8.36v-1.83h-2.37c1.9-0.95 3.63-2.21 5.1-3.72v12.64zm-38.46-3.56h35.73v-1.83h-35.73v1.83z"/>
    <path id="Fill-351" fill="#CAF3FD" d="m398.9 343.99h-8.36c2.13-0.28 4.14-0.91 5.99-1.83h2.37v1.83"/>
    <polygon id="Fill-352" points="363.17 347.52 398.9 347.52 398.9 345.69 363.17 345.69" fill="#CAF3FD"/>
    <path id="Fill-353" fill="#4FA1A5" d="m246.13 493.11h-163.57c-7.044 0-12.756-5.71-12.756-12.76h189.09c0 7.05-5.71 12.76-12.76 12.76"/>
    <path id="Fill-354" fill="#4FA1A5" d="m627.18 493.11h-163.56c-7.05 0-12.76-5.71-12.76-12.76h189.08c0 7.05-5.71 12.76-12.76 12.76"/>
   </g>
  </g>
 </g>
</svg>
