<?xml version="1.0" encoding="UTF-8"?>
<svg width="250px" height="250px" viewBox="0 0 250 250" version="1.1" xmlns="http://www.w3.org/2000/svg" xmlns:xlink="http://www.w3.org/1999/xlink">
    <!-- Generator: Sketch 48.2 (47327) - http://www.bohemiancoding.com/sketch -->
    <title>lifehack/chess</title>
    <desc>Created with Sketch.</desc>
    <defs>
        <circle id="path-1" cx="125" cy="125" r="125"></circle>
        <polygon id="path-3" points="0.0384 0.0256 448 0.0256 448 448 0.0384 448"></polygon>
        <path d="M0.569338298,150.115139 C0.569338298,232.852452 67.7211574,299.92452 150.558279,299.92452 C233.39476,299.92452 300.546579,232.852452 300.546579,150.115139 C300.546579,67.3771855 233.39476,0.30575693 150.558279,0.30575693 C67.7211574,0.30575693 0.569338298,67.3771855 0.569338298,150.115139" id="path-5"></path>
    </defs>
    <g id="+poputchik-laifhak-ver2-1440" stroke="none" stroke-width="1" fill="none" fill-rule="evenodd" transform="translate(-539.000000, -4162.000000)">
        <g id="comfort" transform="translate(69.000000, 2874.000000)">
            <g id="lifehack/chess" transform="translate(470.000000, 1288.000000)">
                <mask id="mask-2" fill="white">
                    <use xlink:href="#path-1"></use>
                </mask>
                <use id="Mask" fill="#D8D8D8" xlink:href="#path-1"></use>
                <g id="shutterstock_168441944" mask="url(#mask-2)">
                    <g transform="translate(-100.000000, -78.000000)">
                        <g id="Group-3">
                            <mask id="mask-4" fill="white">
                                <use xlink:href="#path-3"></use>
                            </mask>
                            <g id="Clip-2"></g>
                            <polygon id="Fill-1" fill="#697B8A" mask="url(#mask-4)" points="0.0384 448 448 448 448 0.0256 0.0384 0.0256"></polygon>
                        </g>
                        <g id="Group-94" transform="translate(74.000000, 48.000000)">
                            <mask id="mask-6" fill="white">
                                <use xlink:href="#path-5"></use>
                            </mask>
                            <g id="Clip-5"></g>
                            <path d="M0.569338298,150.115139 C0.569338298,232.852452 67.7211574,299.92452 150.558279,299.92452 C233.39476,299.92452 300.546579,232.852452 300.546579,150.115139 C300.546579,67.3771855 233.39476,0.30575693 150.558279,0.30575693 C67.7211574,0.30575693 0.569338298,67.3771855 0.569338298,150.115139" id="Fill-4" fill="#EBAA17" mask="url(#mask-6)"></path>
                            <path d="M97.7500702,217.789765 C96.5761702,217.789765 95.6225766,216.838593 95.6225766,215.6629 C95.6225766,214.491045 96.5761702,213.539872 97.7500702,213.539872 C98.9271723,213.539872 99.8794851,212.586141 99.8794851,211.411087 C99.8794851,210.237313 98.9271723,209.284861 97.7500702,209.284861 L95.6225766,209.284861 C96.7977574,209.284861 97.7500702,208.335608 97.7500702,207.160554 C97.7500702,205.98742 96.7977574,205.034968 95.6225766,205.034968 L92.5216362,205.034968 C90.3032021,198.269936 84.9575702,186.763113 84.9575702,175.271642 L87.0857043,175.271642 C88.2615255,175.271642 89.2138383,174.319829 89.2138383,173.144136 C89.2138383,171.970362 88.2615255,171.01791 87.0857043,171.01791 L84.9575702,171.01791 C84.3703,171.01791 83.893183,170.543284 83.893183,169.955437 C83.893183,169.36887 84.3703,168.892964 84.9575702,168.892964 L87.0857043,168.892964 C88.2615255,168.892964 89.2138383,167.940512 89.2138383,166.764819 C89.2138383,165.591684 88.2615255,164.639232 87.0857043,164.639232 L83.501883,164.639232 C86.9448106,162.355011 89.2138383,158.449254 89.2138383,154.010661 C89.2138383,146.965458 83.4967596,141.254584 76.4424723,141.254584 C69.3901064,141.254584 63.6730277,146.965458 63.6730277,154.010661 C63.6730277,158.449254 65.9426957,162.355011 69.3837021,164.639232 L65.8005213,164.639232 C64.6253404,164.639232 63.6730277,165.591684 63.6730277,166.764819 C63.6730277,167.940512 64.6253404,168.892964 65.8005213,168.892964 L67.9299362,168.892964 C68.5172064,168.892964 68.9930426,169.36887 68.9930426,169.955437 C68.9930426,170.543284 68.5172064,171.01791 67.9299362,171.01791 L65.8005213,171.01791 C64.6253404,171.01791 63.6730277,171.970362 63.6730277,173.144136 C63.6730277,174.319829 64.6253404,175.271642 65.8005213,175.271642 L67.9299362,175.271642 C67.9299362,186.763113 62.582383,198.269936 60.3639489,205.034968 L57.3078383,205.034968 C56.132017,205.034968 55.1797043,205.98742 55.1797043,207.160554 C55.1797043,208.335608 56.132017,209.284861 57.3078383,209.284861 L55.1797043,209.284861 C54.0051638,209.284861 53.0515702,210.237313 53.0515702,211.411087 C53.0515702,212.586141 54.0051638,213.539872 55.1797043,213.539872 C56.356166,213.539872 57.3078383,214.491045 57.3078383,215.6629 C57.3078383,216.838593 56.356166,217.789765 55.1797043,217.789765 C52.8287021,217.789765 50.9234362,219.692751 50.9234362,222.042857 C50.9234362,224.391684 52.8287021,226.292751 55.1797043,226.292751 C55.1797043,228.642857 57.0856106,230.545842 59.4372532,230.545842 C59.451983,230.545842 59.4667128,230.543923 59.4814426,230.543923 L59.4814426,230.545842 L93.4938021,230.545842 C95.8441638,230.545842 97.7500702,228.642857 97.7500702,226.292751 C100.101713,226.292751 102.006338,224.391684 102.006338,222.042857 C102.006338,219.692751 100.101713,217.789765 97.7500702,217.789765" id="Fill-6" fill="#B4BCBD" mask="url(#mask-6)"></path>
                            <path d="M89.2138383,154.010661 C89.2138383,161.056503 83.4967596,166.764819 76.4424723,166.764819 C69.3901064,166.764819 63.6730277,161.056503 63.6730277,154.010661 C63.6730277,146.965458 69.3901064,141.254584 76.4424723,141.254584 C83.4967596,141.254584 89.2138383,146.965458 89.2138383,154.010661" id="Fill-7" fill="#E8F3F1" mask="url(#mask-6)"></path>
                            <polygon id="Fill-8" fill="#B4BCBD" mask="url(#mask-6)" points="65.8005213 175.271642 87.0857043 175.271642 87.0857043 171.01791 65.8005213 171.01791"></polygon>
                            <path d="M89.2138383,173.144136 C89.2138383,174.319829 88.2615255,175.271642 87.0857043,175.271642 C85.909883,175.271642 84.9575702,174.319829 84.9575702,173.144136 C84.9575702,171.970362 85.909883,171.01791 87.0857043,171.01791 C88.2615255,171.01791 89.2138383,171.970362 89.2138383,173.144136" id="Fill-9" fill="#B4BCBD" mask="url(#mask-6)"></path>
                            <path d="M67.9299362,173.144136 C67.9299362,174.319829 66.9757021,175.271642 65.8005213,175.271642 C64.6253404,175.271642 63.6730277,174.319829 63.6730277,173.144136 C63.6730277,171.970362 64.6253404,171.01791 65.8005213,171.01791 C66.9757021,171.01791 67.9299362,171.970362 67.9299362,173.144136" id="Fill-10" fill="#B4BCBD" mask="url(#mask-6)"></path>
                            <polygon id="Fill-11" fill="#B4BCBD" mask="url(#mask-6)" points="65.8005213 168.892964 87.0857043 168.892964 87.0857043 164.639232 65.8005213 164.639232"></polygon>
                            <path d="M89.2138383,166.764819 C89.2138383,167.940512 88.2615255,168.892964 87.0857043,168.892964 C85.909883,168.892964 84.9575702,167.940512 84.9575702,166.764819 C84.9575702,165.591684 85.909883,164.639232 87.0857043,164.639232 C88.2615255,164.639232 89.2138383,165.591684 89.2138383,166.764819" id="Fill-12" fill="#B4BCBD" mask="url(#mask-6)"></path>
                            <path d="M67.9299362,166.764819 C67.9299362,167.940512 66.9757021,168.892964 65.8005213,168.892964 C64.6253404,168.892964 63.6730277,167.940512 63.6730277,166.764819 C63.6730277,165.591684 64.6253404,164.639232 65.8005213,164.639232 C66.9757021,164.639232 67.9299362,165.591684 67.9299362,166.764819" id="Fill-13" fill="#B4BCBD" mask="url(#mask-6)"></path>
                            <path d="M84.9575702,171.01791 C84.3703,171.01791 83.893183,170.543284 83.893183,169.955437 C83.893183,169.36887 84.3703,168.892964 84.9575702,168.892964 L82.8287957,168.892964 L82.8287957,171.01791 L84.9575702,171.01791" id="Fill-14" fill="#E8F3F1" mask="url(#mask-6)"></path>
                            <path d="M67.9299362,168.892964 C68.5172064,168.892964 68.9930426,169.36887 68.9930426,169.955437 C68.9930426,170.543284 68.5172064,171.01791 67.9299362,171.01791 L70.0574298,171.01791 L70.0574298,168.892964 L67.9299362,168.892964" id="Fill-15" fill="#E8F3F1" mask="url(#mask-6)"></path>
                            <path d="M59.4141979,209.284861 C59.4141979,204.298721 67.9299362,189.770789 67.9299362,175.271642 C72.128566,175.271642 76.4424723,175.271642 76.4424723,175.271642 L76.4424723,209.284861 L59.4141979,209.284861" id="Fill-16" fill="#E8F3F1" mask="url(#mask-6)"></path>
                            <path d="M93.4713872,209.284861 C93.4713872,204.298721 84.9575702,189.770789 84.9575702,175.271642 C80.7570191,175.271642 76.4424723,175.271642 76.4424723,175.271642 L76.4424723,209.284861 L93.4713872,209.284861" id="Fill-17" fill="#E8F3F1" mask="url(#mask-6)"></path>
                            <polygon id="Fill-18" fill="#E8F3F1" mask="url(#mask-6)" points="70.0574298 171.01791 82.8287957 171.01791 82.8287957 168.892964 70.0574298 168.892964"></polygon>
                            <polygon id="Fill-19" fill="#E8F3F1" mask="url(#mask-6)" points="55.1797043 213.539872 97.7500702 213.539872 97.7500702 209.284861 55.1797043 209.284861"></polygon>
                            <path d="M53.0515702,211.411087 C53.0515702,210.237313 54.0051638,209.284861 55.1797043,209.284861 C56.356166,209.284861 57.3078383,210.237313 57.3078383,211.411087 C57.3078383,212.586141 56.356166,213.539872 55.1797043,213.539872 C54.0051638,213.539872 53.0515702,212.586141 53.0515702,211.411087" id="Fill-20" fill="#E8F3F1" mask="url(#mask-6)"></path>
                            <path d="M55.1797043,226.292751 C52.8287021,226.292751 50.9234362,224.391684 50.9234362,222.042857 C50.9234362,219.692751 52.8287021,217.789765 55.1797043,217.789765 L55.1797043,226.292751" id="Fill-21" fill="#E8F3F1" mask="url(#mask-6)"></path>
                            <path d="M55.1797043,217.789765 C57.5313468,217.789765 59.4372532,219.692751 59.4372532,222.042857 C59.4372532,224.391684 57.5313468,226.292751 55.1797043,226.292751 L55.1797043,217.789765" id="Fill-22" fill="#E8F3F1" mask="url(#mask-6)"></path>
                            <path d="M97.7500702,217.789765 C100.101713,217.789765 102.006338,219.692751 102.006338,222.042857 C102.006338,224.391684 100.101713,226.292751 97.7500702,226.292751 L97.7500702,217.789765" id="Fill-23" fill="#E8F3F1" mask="url(#mask-6)"></path>
                            <path d="M95.6225766,211.411087 C95.6225766,210.237313 96.5761702,209.284861 97.7500702,209.284861 C98.9271723,209.284861 99.8794851,210.237313 99.8794851,211.411087 C99.8794851,212.586141 98.9271723,213.539872 97.7500702,213.539872 C96.5761702,213.539872 95.6225766,212.586141 95.6225766,211.411087" id="Fill-24" fill="#E8F3F1" mask="url(#mask-6)"></path>
                            <path d="M93.4938021,207.160554 C93.4938021,205.98742 94.4467553,205.034968 95.6225766,205.034968 C96.7977574,205.034968 97.7500702,205.98742 97.7500702,207.160554 C97.7500702,208.335608 96.7977574,209.284861 95.6225766,209.284861 C94.4467553,209.284861 93.4938021,208.335608 93.4938021,207.160554" id="Fill-25" fill="#B4BCBD" mask="url(#mask-6)"></path>
                            <path d="M55.1797043,207.160554 C55.1797043,205.98742 56.132017,205.034968 57.3078383,205.034968 C58.4836596,205.034968 59.4372532,205.98742 59.4372532,207.160554 C59.4372532,208.335608 58.4836596,209.284861 57.3078383,209.284861 C56.132017,209.284861 55.1797043,208.335608 55.1797043,207.160554" id="Fill-26" fill="#B4BCBD" mask="url(#mask-6)"></path>
                            <path d="M55.1797043,226.292751 C55.1797043,223.945842 57.0856106,222.042857 59.4372532,222.042857 C61.7882553,222.042857 63.6948021,223.945842 63.6948021,226.292751 C63.6948021,228.642857 61.7882553,230.545842 59.4372532,230.545842 C57.0856106,230.545842 55.1797043,228.642857 55.1797043,226.292751" id="Fill-27" fill="#B4BCBD" mask="url(#mask-6)"></path>
                            <path d="M89.2368936,226.292751 C89.2368936,223.945842 91.1421596,222.042857 93.4938021,222.042857 C95.8441638,222.042857 97.7500702,223.945842 97.7500702,226.292751 C97.7500702,228.642857 95.8441638,230.545842 93.4938021,230.545842 C91.1421596,230.545842 89.2368936,228.642857 89.2368936,226.292751" id="Fill-28" fill="#B4BCBD" mask="url(#mask-6)"></path>
                            <path d="M97.7500702,217.789765 C96.5761702,217.789765 95.6225766,216.838593 95.6225766,215.6629 C95.6225766,214.491045 96.5761702,213.539872 97.7500702,213.539872 L93.4938021,213.539872 L93.4938021,217.789765 L97.7500702,217.789765" id="Fill-29" fill="#B4BCBD" mask="url(#mask-6)"></path>
                            <path d="M55.1797043,213.539872 C56.356166,213.539872 57.3078383,214.491045 57.3078383,215.6629 C57.3078383,216.838593 56.356166,217.789765 55.1797043,217.789765 L59.4372532,217.789765 L59.4372532,213.539872 L55.1797043,213.539872" id="Fill-30" fill="#B4BCBD" mask="url(#mask-6)"></path>
                            <polygon id="Fill-31" fill="#B4BCBD" mask="url(#mask-6)" points="59.4372532 217.789765 93.4938021 217.789765 93.4938021 213.539872 59.4372532 213.539872"></polygon>
                            <polygon id="Fill-32" fill="#E8F3F1" mask="url(#mask-6)" points="55.1797043 226.292751 97.7500702 226.292751 97.7500702 217.789765 55.1797043 217.789765"></polygon>
                            <polygon id="Fill-33" fill="#B4BCBD" mask="url(#mask-6)" points="59.4814426 230.545842 93.4938021 230.545842 93.4938021 226.292751 59.4814426 226.292751"></polygon>
                            <polygon id="Fill-34" fill="#B4BCBD" mask="url(#mask-6)" points="57.3078383 209.284861 95.6225766 209.284861 95.6225766 205.034968 57.3078383 205.034968"></polygon>
                            <polyline id="Fill-35" fill="#E8F3F1" mask="url(#mask-6)" points="214.035977 103.572921 214.035977 116.893177 224.038143 116.893177 214.035977 103.572921"></polyline>
                            <polyline id="Fill-36" fill="#B4BCBD" mask="url(#mask-6)" points="214.842272 108.534115 219.236872 114.384435 214.842272 114.384435 214.842272 108.534115"></polyline>
                            <path d="M240.614277,202.361834 C262.597523,127.017697 221.903604,114.019829 221.903604,114.019829 L210.104404,114.019829 L193.145296,136.728358 L200.242491,144.922388 L211.356436,140.970576 L210.606498,138.859701 L220.358257,137.590618 C220.358257,137.590618 226.809904,169.36887 201.746211,183.793177 C203.104553,187.486567 206.660836,202.361834 206.660836,202.361834 L240.614277,202.361834" id="Fill-37" fill="#E8F3F1" mask="url(#mask-6)"></path>
                            <path d="M213.723449,122.461407 C213.949519,123.099787 213.615857,123.800853 212.977353,124.026652 C212.338849,124.25565 211.63374,123.920469 211.40703,123.28209 C211.179038,122.642431 211.514621,121.941365 212.152485,121.713006 C212.79163,121.489126 213.494817,121.819829 213.723449,122.461407" id="Fill-38" fill="#B4BCBD" mask="url(#mask-6)"></path>
                            <path d="M221.903604,114.019829 C221.903604,114.019829 263.211051,126.711301 234.428406,202.361834 C236.02883,202.361834 243.532055,202.361834 243.532055,202.361834 C243.532055,202.361834 266.902464,129.934542 221.903604,114.019829" id="Fill-39" fill="#B4BCBD" mask="url(#mask-6)"></path>
                            <polygon id="Fill-40" fill="#E8F3F1" mask="url(#mask-6)" points="200.51147 210.95565 249.674377 210.95565 249.674377 206.046269 200.51147 206.046269"></polygon>
                            <path d="M198.053517,208.5 C198.053517,207.145842 199.154409,206.046269 200.51147,206.046269 C201.869172,206.046269 202.968783,207.145842 202.968783,208.5 C202.968783,209.856716 201.869172,210.95565 200.51147,210.95565 C199.154409,210.95565 198.053517,209.856716 198.053517,208.5" id="Fill-41" fill="#E8F3F1" mask="url(#mask-6)"></path>
                            <path d="M200.51147,225.685714 C197.793504,225.685714 195.594283,223.487846 195.594283,220.776333 C195.594283,218.063539 197.793504,215.865032 200.51147,215.865032 L200.51147,225.685714" id="Fill-42" fill="#E8F3F1" mask="url(#mask-6)"></path>
                            <path d="M200.51147,215.865032 C203.226874,215.865032 205.428017,218.063539 205.428017,220.776333 C205.428017,223.487846 203.226874,225.685714 200.51147,225.685714 L200.51147,215.865032" id="Fill-43" fill="#E8F3F1" mask="url(#mask-6)"></path>
                            <path d="M249.674377,215.865032 C252.391062,215.865032 254.589643,218.063539 254.589643,220.776333 C254.589643,223.487846 252.391062,225.685714 249.674377,225.685714 L249.674377,215.865032" id="Fill-44" fill="#E8F3F1" mask="url(#mask-6)"></path>
                            <path d="M247.215783,208.5 C247.215783,207.145842 248.316034,206.046269 249.674377,206.046269 C251.030157,206.046269 252.129768,207.145842 252.129768,208.5 C252.129768,209.856716 251.030157,210.95565 249.674377,210.95565 C248.316034,210.95565 247.215783,209.856716 247.215783,208.5" id="Fill-45" fill="#E8F3F1" mask="url(#mask-6)"></path>
                            <path d="M244.759751,203.589979 C244.759751,202.232623 245.859362,201.136887 247.215783,201.136887 C248.570923,201.136887 249.674377,202.232623 249.674377,203.589979 C249.674377,204.946695 248.570923,206.046269 247.215783,206.046269 C245.859362,206.046269 244.759751,204.946695 244.759751,203.589979" id="Fill-46" fill="#B4BCBD" mask="url(#mask-6)"></path>
                            <path d="M200.51147,203.589979 C200.51147,202.232623 201.613002,201.136887 202.968783,201.136887 C204.327766,201.136887 205.428017,202.232623 205.428017,203.589979 C205.428017,204.946695 204.327766,206.046269 202.968783,206.046269 C201.613002,206.046269 200.51147,204.946695 200.51147,203.589979" id="Fill-47" fill="#B4BCBD" mask="url(#mask-6)"></path>
                            <path d="M200.51147,225.685714 C200.51147,222.97548 202.712613,220.776333 205.428017,220.776333 C208.144062,220.776333 210.345204,222.97548 210.345204,225.685714 C210.345204,228.399147 208.144062,230.598294 205.428017,230.598294 C202.712613,230.598294 200.51147,228.399147 200.51147,225.685714" id="Fill-48" fill="#B4BCBD" mask="url(#mask-6)"></path>
                            <path d="M239.840643,225.685714 C239.840643,222.97548 242.041785,220.776333 244.759751,220.776333 C247.473874,220.776333 249.674377,222.97548 249.674377,225.685714 C249.674377,228.399147 247.473874,230.598294 244.759751,230.598294 C242.041785,230.598294 239.840643,228.399147 239.840643,225.685714" id="Fill-49" fill="#B4BCBD" mask="url(#mask-6)"></path>
                            <path d="M249.674377,215.865032 C248.316034,215.865032 247.215783,214.765458 247.215783,213.411301 C247.215783,212.055224 248.316034,210.95565 249.674377,210.95565 L244.759751,210.95565 L244.759751,215.865032 L249.674377,215.865032" id="Fill-50" fill="#B4BCBD" mask="url(#mask-6)"></path>
                            <path d="M200.51147,210.95565 C201.869172,210.95565 202.968783,212.055224 202.968783,213.411301 C202.968783,214.765458 201.869172,215.865032 200.51147,215.865032 L205.428017,215.865032 L205.428017,210.95565 L200.51147,210.95565" id="Fill-51" fill="#B4BCBD" mask="url(#mask-6)"></path>
                            <polygon id="Fill-52" fill="#B4BCBD" mask="url(#mask-6)" points="205.428017 215.865032 244.759751 215.865032 244.759751 210.95565 205.428017 210.95565"></polygon>
                            <polygon id="Fill-53" fill="#E8F3F1" mask="url(#mask-6)" points="200.51147 225.685714 249.674377 225.685714 249.674377 215.865032 200.51147 215.865032"></polygon>
                            <polygon id="Fill-54" fill="#B4BCBD" mask="url(#mask-6)" points="205.47733 230.598294 244.759751 230.598294 244.759751 225.685714 205.47733 225.685714"></polygon>
                            <polygon id="Fill-55" fill="#B4BCBD" mask="url(#mask-6)" points="202.968783 206.046269 247.215783 206.046269 247.215783 201.136887 202.968783 201.136887"></polygon>
                            <path d="M162.944749,48.9869936 C162.944749,56.2049041 157.087417,62.0552239 149.860215,62.0552239 C142.635574,62.0552239 136.775681,56.2049041 136.775681,48.9869936 C136.775681,41.7690832 142.635574,35.9187633 149.860215,35.9187633 C157.087417,35.9187633 162.944749,41.7690832 162.944749,48.9869936" id="Fill-56" fill="#4C4D56" mask="url(#mask-6)"></path>
                            <polyline id="Fill-57" fill="#4C4D56" mask="url(#mask-6)" points="132.721787 93.3326226 167.136334 93.3326226 173.201164 66.2014925 126.656317 66.2014925 132.721787 93.3326226"></polyline>
                            <polyline id="Fill-58" fill="#666970" mask="url(#mask-6)" points="132.474583 60.3895522 126.656317 66.2014925 173.201164 66.2014925 167.383538 60.3895522 132.474583 60.3895522"></polyline>
                            <polygon id="Fill-59" fill="#4C4D56" mask="url(#mask-6)" points="117.168413 204.416418 182.587881 204.416418 182.587881 197.882942 117.168413 197.882942"></polygon>
                            <path d="M113.896479,201.148401 C113.896479,199.343284 115.361772,197.882942 117.168413,197.882942 C118.974413,197.882942 120.439066,199.343284 120.439066,201.148401 C120.439066,202.953518 118.974413,204.416418 117.168413,204.416418 C115.361772,204.416418 113.896479,202.953518 113.896479,201.148401" id="Fill-60" fill="#4C4D56" mask="url(#mask-6)"></path>
                            <path d="M117.168413,224.018763 C113.554491,224.018763 110.625826,221.092964 110.625826,217.48209 C110.625826,213.874414 113.554491,210.949254 117.168413,210.949254 L117.168413,224.018763" id="Fill-61" fill="#4C4D56" mask="url(#mask-6)"></path>
                            <path d="M117.168413,210.949254 C120.780413,210.949254 123.709719,213.874414 123.709719,217.48209 C123.709719,221.092964 120.780413,224.018763 117.168413,224.018763 L117.168413,210.949254" id="Fill-62" fill="#4C4D56" mask="url(#mask-6)"></path>
                            <path d="M182.587881,210.949254 C186.202443,210.949254 189.129828,213.874414 189.129828,217.48209 C189.129828,221.092964 186.202443,224.018763 182.587881,224.018763 L182.587881,210.949254" id="Fill-63" fill="#4C4D56" mask="url(#mask-6)"></path>
                            <path d="M179.315947,201.148401 C179.315947,199.343284 180.78124,197.882942 182.587881,197.882942 C184.395162,197.882942 185.859174,199.343284 185.859174,201.148401 C185.859174,202.953518 184.395162,204.416418 182.587881,204.416418 C180.78124,204.416418 179.315947,202.953518 179.315947,201.148401" id="Fill-64" fill="#4C4D56" mask="url(#mask-6)"></path>
                            <path d="M176.045934,194.611727 C176.045934,192.807249 177.509947,191.346908 179.315947,191.346908 C181.125149,191.346908 182.587881,192.807249 182.587881,194.611727 C182.587881,196.416844 181.125149,197.882942 179.315947,197.882942 C177.509947,197.882942 176.045934,196.416844 176.045934,194.611727" id="Fill-65" fill="#666970" mask="url(#mask-6)"></path>
                            <path d="M117.168413,194.611727 C117.168413,192.807249 118.631785,191.346908 120.439066,191.346908 C122.246347,191.346908 123.709719,192.807249 123.709719,194.611727 C123.709719,196.416844 122.246347,197.882942 120.439066,197.882942 C118.631785,197.882942 117.168413,196.416844 117.168413,194.611727" id="Fill-66" fill="#666970" mask="url(#mask-6)"></path>
                            <path d="M117.168413,224.018763 C117.168413,220.407249 120.096438,217.48209 123.709719,217.48209 C127.324281,217.48209 130.251666,220.407249 130.251666,224.018763 C130.251666,227.62516 127.324281,230.551599 123.709719,230.551599 C120.096438,230.551599 117.168413,227.62516 117.168413,224.018763" id="Fill-67" fill="#666970" mask="url(#mask-6)"></path>
                            <path d="M169.503987,224.018763 C169.503987,220.407249 172.431372,217.48209 176.045934,217.48209 C179.659215,217.48209 182.587881,220.407249 182.587881,224.018763 C182.587881,227.62516 179.659215,230.551599 176.045934,230.551599 C172.431372,230.551599 169.503987,227.62516 169.503987,224.018763" id="Fill-68" fill="#666970" mask="url(#mask-6)"></path>
                            <path d="M182.587881,210.949254 C180.78124,210.949254 179.315947,209.486354 179.315947,207.681876 C179.315947,205.879318 180.78124,204.416418 182.587881,204.416418 L176.045934,204.416418 L176.045934,210.949254 L182.587881,210.949254" id="Fill-69" fill="#666970" mask="url(#mask-6)"></path>
                            <path d="M117.169694,204.416418 C118.974413,204.416418 120.439066,205.879318 120.439066,207.681876 C120.439066,209.486354 118.974413,210.949254 117.168413,210.949254 L123.709719,210.949254 L123.709719,204.416418 L117.169694,204.416418" id="Fill-70" fill="#666970" mask="url(#mask-6)"></path>
                            <polygon id="Fill-71" fill="#666970" mask="url(#mask-6)" points="123.709719 210.949254 176.045934 210.949254 176.045934 204.416418 123.709719 204.416418"></polygon>
                            <polygon id="Fill-72" fill="#4C4D56" mask="url(#mask-6)" points="117.168413 224.018763 182.587881 224.018763 182.587881 210.949254 117.168413 210.949254"></polygon>
                            <polygon id="Fill-73" fill="#666970" mask="url(#mask-6)" points="123.776964 230.551599 176.045934 230.551599 176.045934 224.018763 123.776964 224.018763"></polygon>
                            <polygon id="Fill-74" fill="#666970" mask="url(#mask-6)" points="120.439066 197.882942 179.315947 197.882942 179.315947 191.346908 120.439066 191.346908"></polygon>
                            <path d="M123.760953,191.346908 C153.799472,98.8471215 126.656317,66.2014925 126.656317,66.2014925 L149.881989,66.2014925 L149.876866,191.346908 L123.760953,191.346908" id="Fill-75" fill="#4C4D56" mask="url(#mask-6)"></path>
                            <path d="M176.045934,191.346908 C146.008055,98.8471215 173.156334,66.2014925 173.156334,66.2014925 L149.9281,66.2014925 L149.9281,191.346908 L176.045934,191.346908" id="Fill-76" fill="#4C4D56" mask="url(#mask-6)"></path>
                            <polygon id="Fill-77" fill="#666970" mask="url(#mask-6)" points="133.506309 122.73838 166.216683 122.73838 166.216683 116.203625 133.506309 116.203625"></polygon>
                            <path d="M169.486696,119.469723 C169.486696,121.27484 168.022043,122.73838 166.216683,122.73838 C164.410683,122.73838 162.944749,121.27484 162.944749,119.469723 C162.944749,117.666525 164.410683,116.203625 166.216683,116.203625 C168.022043,116.203625 169.486696,117.666525 169.486696,119.469723" id="Fill-78" fill="#666970" mask="url(#mask-6)"></path>
                            <path d="M136.775681,119.469723 C136.775681,121.27484 135.312949,122.73838 133.506309,122.73838 C131.698387,122.73838 130.235015,121.27484 130.235015,119.469723 C130.235015,117.666525 131.698387,116.203625 133.506309,116.203625 C135.312949,116.203625 136.775681,117.666525 136.775681,119.469723" id="Fill-79" fill="#666970" mask="url(#mask-6)"></path>
                            <polygon id="Fill-80" fill="#666970" mask="url(#mask-6)" points="133.506309 132.537953 166.216683 132.537953 166.216683 126.004478 133.506309 126.004478"></polygon>
                            <path d="M169.486696,129.271215 C169.486696,131.075693 168.022043,132.537953 166.216683,132.537953 C164.410683,132.537953 162.944749,131.075693 162.944749,129.271215 C162.944749,127.465458 164.410683,126.004478 166.216683,126.004478 C168.022043,126.004478 169.486696,127.465458 169.486696,129.271215" id="Fill-81" fill="#666970" mask="url(#mask-6)"></path>
                            <path d="M136.775681,129.271215 C136.775681,131.075693 135.312949,132.537953 133.506309,132.537953 C131.698387,132.537953 130.235015,131.075693 130.235015,129.271215 C130.235015,127.465458 131.698387,126.004478 133.506309,126.004478 C135.312949,126.004478 136.775681,127.465458 136.775681,129.271215" id="Fill-82" fill="#666970" mask="url(#mask-6)"></path>
                            <polygon id="Fill-83" fill="#666970" mask="url(#mask-6)" points="130.235015 96.6006397 169.486696 96.6006397 169.486696 90.0665245 130.235015 90.0665245"></polygon>
                            <path d="M172.757989,93.3326226 C172.757989,95.1377399 171.293977,96.6006397 169.486696,96.6006397 C167.680055,96.6006397 166.216683,95.1377399 166.216683,93.3326226 C166.216683,91.5294243 167.680055,90.0665245 169.486696,90.0665245 C171.293977,90.0665245 172.757989,91.5294243 172.757989,93.3326226" id="Fill-84" fill="#666970" mask="url(#mask-6)"></path>
                            <path d="M133.539611,93.3326226 C133.539611,95.1377399 132.073677,96.6006397 130.267677,96.6006397 C128.460396,96.6006397 126.997664,95.1377399 126.997664,93.3326226 C126.997664,91.5294243 128.460396,90.0665245 130.267677,90.0665245 C132.073677,90.0665245 133.539611,91.5294243 133.539611,93.3326226" id="Fill-85" fill="#666970" mask="url(#mask-6)"></path>
                            <polygon id="Fill-86" fill="#E8F3F1" mask="url(#mask-6)" points="0.569338298 269.077612 43.9562468 269.077612 43.9562468 230.627719 0.569338298 230.627719"></polygon>
                            <polygon id="Fill-87" fill="#4C4D56" mask="url(#mask-6)" points="43.9223043 269.077612 114.50104 269.077612 114.50104 230.627719 43.9223043 230.627719"></polygon>
                            <polygon id="Fill-88" fill="#E8F3F1" mask="url(#mask-6)" points="114.50104 269.077612 185.081698 269.077612 185.081698 230.627719 114.50104 230.627719"></polygon>
                            <polygon id="Fill-89" fill="#4C4D56" mask="url(#mask-6)" points="185.081698 269.077612 255.659794 269.077612 255.659794 230.627719 185.081698 230.627719"></polygon>
                            <polygon id="Fill-90" fill="#E8F3F1" mask="url(#mask-6)" points="255.659794 269.077612 300.546579 269.077612 300.546579 230.627719 255.659794 230.627719"></polygon>
                            <polygon id="Fill-91" fill="#E8F3F1" mask="url(#mask-6)" points="43.9389553 299.92452 114.516411 299.92452 114.516411 269.077612 43.9389553 269.077612"></polygon>
                            <polygon id="Fill-92" fill="#4C4D56" mask="url(#mask-6)" points="114.48567 299.92452 185.064406 299.92452 185.064406 269.077612 114.48567 269.077612"></polygon>
                            <polygon id="Fill-93" fill="#E8F3F1" mask="url(#mask-6)" points="185.064406 299.92452 255.641862 299.92452 255.641862 269.077612 185.064406 269.077612"></polygon>
                        </g>
                    </g>
                </g>
            </g>
        </g>
    </g>
</svg>