<?xml version="1.0" encoding="UTF-8" standalone="no"?>
<svg width="250px" height="250px" viewBox="0 0 250 250" version="1.1" xmlns="http://www.w3.org/2000/svg" xmlns:xlink="http://www.w3.org/1999/xlink">
    <!-- Generator: Sketch 48.1 (47250) - http://www.bohemiancoding.com/sketch -->
    <title>bike@2x</title>
    <desc>Created with Sketch.</desc>
    <defs>
        <circle id="path-1" cx="125" cy="125" r="125"></circle>
        <polygon id="path-3" points="0.06 0 500 0 500 500 0.06 500"></polygon>
    </defs>
    <g id="+poputchik-laifhak-ver2-1440" stroke="none" stroke-width="1" fill="none" fill-rule="evenodd" transform="translate(-539.000000, -3582.000000)">
        <g id="comfort" transform="translate(69.000000, 2874.000000)">
            <g id="bike" transform="translate(470.000000, 708.000000)">
                <mask id="mask-2" fill="white">
                    <use xlink:href="#path-1"></use>
                </mask>
                <use id="Mask" fill="#D8D8D8" xlink:href="#path-1"></use>
                <g id="shutterstock_413576797" mask="url(#mask-2)">
                    <g transform="translate(-162.000000, -190.000000)">
                        <g id="Group-3" stroke-width="1" fill="none">
                            <mask id="mask-4" fill="white">
                                <use xlink:href="#path-3"></use>
                            </mask>
                            <g id="Clip-2"></g>
                            <polygon id="Fill-1" fill="#008B9E" mask="url(#mask-4)" points="0.06 500 500 500 500 0 0.06 0"></polygon>
                        </g>
                        <path d="M248.373,444.296 L165.91,444.296 C162.084,444.296 158.673,441.528 158.248,437.726 C158.038,435.845 158.52,434.275 159.464,432.938 C160.979,430.79 163.522,429.605 166.15,429.605 L175.934,429.605 C179.845,429.605 183.045,426.741 183.076,422.839 C183.045,418.937 179.845,415.963 175.934,415.963 L90.043,415.963 C85.34,415.963 81.534,412.22 81.926,407.414 C82.262,403.293 85.911,400.222 90.046,400.222 L173.888,400.222 C179.33,402.985 185.266,404.505 191.466,404.506 C191.671,404.506 191.872,404.504 192.077,404.501 C198.075,404.404 203.789,402.892 209.019,400.222 L338.898,400.222 C345.844,404.174 353.54,406.372 361.62,406.373 C361.861,406.373 362.097,406.371 362.338,406.367 C370.182,406.241 377.608,404.055 384.301,400.222 L433.313,400.222 C438.167,400.222 442.102,404.157 442.102,409.011 C442.102,412.85 438.989,415.963 435.149,415.963 L235.694,415.963 C231.803,415.963 228.616,419.017 228.556,422.895 C228.616,426.769 231.803,429.605 235.694,429.605 L248.205,429.605 C250.814,429.605 253.298,430.835 254.802,432.968 C255.786,434.365 256.291,435.771 256.065,437.695 C255.617,441.513 252.217,444.296 248.373,444.296" id="Fill-15" fill="#006F7E"></path>
                        <path d="M306.843,444.15 L267.86,444.15 C263.969,444.15 260.786,440.967 260.786,437.076 C260.786,433.185 263.969,430.002 267.86,430.002 L306.843,430.002 C310.734,430.002 313.917,433.185 313.917,437.076 C313.917,440.967 310.734,444.15 306.843,444.15" id="Fill-17" fill="#006F7E"></path>
                        <path d="M358.202,205.377 L357.333,196.5 C307.538,187.646 277.776,140.19 277.556,139.767 L265.287,144.058 C266.329,146.078 300.063,195.725 358.202,205.377" id="Fill-18" fill="#D7937F"></path>
                        <polyline id="Fill-19" fill="#414141" points="284.811 283.223 274.454 295.347 263.219 288.882 274.783 274.656 284.811 283.223"></polyline>
                        <path d="M265.7,285.58 C274.206,290.843 279.418,289.286 279.418,289.286 C281.839,292.485 287.12,303.838 301.192,307.394 C304.275,308.173 310.956,310.273 310.059,314.921 L309.659,316.992 C309.354,318.57 308.05,319.768 306.449,319.906 C302.198,320.274 293.591,320.386 285.298,316.682 C278.515,313.653 274.475,313.191 272.663,313.186 C271.742,313.184 270.823,313.096 269.928,312.877 L258.263,310.019 C257.292,309.781 256.639,308.867 256.734,307.872 C257.228,302.738 258.701,287.64 265.7,285.58" id="Fill-20" fill="#FBB823"></path>
                        <path d="M278.081,295.843 C278.598,295.077 281.285,293.579 282.268,292.955 C286.913,297.257 291.203,301.112 297.204,306.037 C294.695,309.022 291.822,310.152 287.785,308.453 C284.668,307.141 282.056,304.933 279.87,302.377 C278.508,300.786 276.538,298.128 278.081,295.843" id="Fill-21" fill="#F0E9E8"></path>
                        <path d="M274.181,311.227 C281.261,313.562 297.172,316.954 297.555,316.595 C297.963,316.333 298.286,315.911 298.437,315.482 C299.424,312.672 301.306,310.165 303.343,308.018 C306.61,309.099 310.78,311.186 310.059,314.921 L309.659,316.992 C309.354,318.57 308.05,319.767 306.449,319.906 C302.198,320.274 293.591,320.386 285.298,316.682 C278.515,313.653 274.475,313.191 272.663,313.186 C271.742,313.184 270.823,313.096 269.928,312.877 L258.263,310.019 C257.292,309.781 256.639,308.867 256.734,307.872 C256.803,307.158 256.905,306.243 257.043,305.213 C257.735,305.454 258.43,305.683 259.124,305.919 C264.008,307.999 269.004,309.519 274.181,311.227" id="Fill-22" fill="#F0E9E8"></path>
                        <path d="M274.181,311.227 L274.102,311.464 C277.484,312.579 282.846,313.928 287.591,315 C289.963,315.537 292.18,316.003 293.916,316.336 C295.659,316.669 296.893,316.869 297.388,316.872 L297.537,316.862 L297.725,316.778 L297.555,316.595 L297.69,316.806 C298.149,316.508 298.501,316.05 298.673,315.565 C299.642,312.805 301.5,310.322 303.524,308.189 L303.343,308.018 L303.264,308.255 C304.757,308.748 306.436,309.456 307.722,310.42 C309.012,311.388 309.891,312.584 309.891,314.085 C309.891,314.337 309.866,314.6 309.813,314.874 L309.413,316.945 C309.129,318.415 307.915,319.529 306.427,319.657 C305.339,319.751 303.962,319.829 302.377,319.829 C297.808,319.829 291.512,319.184 285.4,316.454 C278.592,313.413 274.518,312.941 272.663,312.936 C271.758,312.934 270.859,312.847 269.988,312.634 L258.323,309.776 C257.527,309.581 256.975,308.868 256.975,308.065 L256.983,307.896 C257.052,307.186 257.154,306.273 257.29,305.246 L257.043,305.213 L256.961,305.449 C257.655,305.691 258.351,305.921 259.043,306.156 L259.124,305.919 L259.026,306.149 C263.927,308.236 268.929,309.757 274.102,311.464 L274.181,311.227 L274.259,310.989 C269.079,309.28 264.09,307.762 259.221,305.689 L259.212,305.685 L259.204,305.682 C258.509,305.446 257.814,305.217 257.125,304.977 L256.835,304.877 L256.795,305.18 C256.657,306.213 256.554,307.131 256.485,307.848 L256.475,308.065 C256.475,309.099 257.184,310.011 258.204,310.261 L269.868,313.12 C270.787,313.344 271.725,313.434 272.662,313.436 C274.433,313.441 278.438,313.892 285.196,316.91 C291.399,319.68 297.762,320.328 302.377,320.329 C303.978,320.329 305.369,320.251 306.471,320.155 C308.185,320.007 309.579,318.725 309.904,317.039 L310.304,314.969 C310.363,314.665 310.391,314.37 310.391,314.085 C310.391,312.371 309.378,311.031 308.022,310.019 C306.663,309.003 304.943,308.284 303.421,307.78 L303.271,307.73 L303.161,307.845 C301.111,310.007 299.207,312.539 298.201,315.399 C298.072,315.773 297.776,316.157 297.419,316.385 L297.401,316.397 L297.384,316.412 L297.514,316.552 L297.451,316.371 L297.384,316.412 L297.514,316.552 L297.451,316.371 L297.451,316.369 L297.388,316.372 C296.999,316.374 295.733,316.177 294.01,315.845 C288.824,314.851 279.284,312.647 274.259,310.989 L274.181,311.227" id="Fill-23" fill="#F0E9E8"></path>
                        <path d="M280.75,287.375 C286.569,280.962 288.235,278.086 299.5,266.455 C313.5,252 334.875,237.25 327.993,229.091 C317.498,216.646 295.658,215.169 280.667,217.333 C266.426,219.389 254.667,224.403 254.667,224.403 L260.448,244.164 C276.383,240.603 292.406,238.261 300.625,238.75 C302.723,238.875 302.822,239.931 301.661,241.683 C296.374,249.662 283.793,261.94 271.875,280.25 L280.75,287.375" id="Fill-24" fill="#373B44"></path>
                        <path d="M264.936,312.071 L273.339,313.607 C274.241,313.771 274.844,314.644 274.679,315.546 L274.496,316.545 C274.331,317.447 273.458,318.05 272.557,317.885 L264.154,316.349 C263.253,316.184 262.65,315.311 262.814,314.41 L262.997,313.41 C263.162,312.509 264.035,311.906 264.936,312.071" id="Fill-25" fill="#353535"></path>
                        <path d="M354.685,268.498 L355.786,268.221 C355.731,268.004 350.272,246.336 345.294,227.527 C343.679,221.423 344.079,216.372 346.484,212.514 C349.724,207.316 355.584,206.092 355.643,206.08 L355.422,204.967 C355.163,205.018 349.038,206.285 345.529,211.9 C342.945,216.036 342.497,221.392 344.197,227.818 C349.173,246.619 354.631,268.281 354.685,268.498" id="Fill-26" fill="#353535"></path>
                        <path d="M367.881,341.459 C369.97,340.819 371.155,338.587 370.516,336.498 L343.09,246.938 C342.45,244.849 340.654,244.892 338.566,245.532 C335.394,245.583 335.006,247.657 335.495,249.263 L362.921,338.824 C363.56,340.913 365.792,342.098 367.881,341.459" id="Fill-27" fill="#AA1F47"></path>
                        <path d="M317.201,337.8 C316.709,307.192 336.019,282.063 360.331,281.672 C384.644,281.28 404.752,305.776 405.245,336.383 C405.737,366.991 386.427,392.121 362.115,392.512 C337.802,392.903 317.694,368.408 317.201,337.8 M306.196,337.977 C306.812,376.237 331.947,406.856 362.338,406.367 C392.728,405.878 416.866,374.466 416.25,336.206 C415.635,297.947 390.499,267.328 360.109,267.817 C329.718,268.306 305.581,299.717 306.196,337.977" id="Fill-28" fill="#383838"></path>
                        <path d="M355.124,384.786 C354.714,384.786 354.293,384.719 353.876,384.577 C339.866,379.793 328.927,365.337 325.984,347.201 C325.601,344.839 327.426,342.691 329.819,342.691 C331.72,342.691 333.313,344.073 333.643,345.944 C336.184,360.377 345.072,371.792 356.362,375.384 C357.948,375.888 359,377.392 359,379.056 L359,380.893 C359,383.107 357.185,384.786 355.124,384.786" id="Fill-29" fill="#47ABB9"></path>
                        <path d="M397.345,331.357 C395.485,331.357 393.912,330.033 393.534,328.212 C390.696,314.536 382.116,303.793 371.293,300.248 C369.716,299.731 368.667,298.237 368.667,296.576 L368.667,294.751 C368.667,292.535 370.484,290.847 372.542,290.847 C372.959,290.847 373.386,290.917 373.809,291.065 C387.277,295.782 397.863,309.456 401.165,326.714 C401.625,329.119 399.793,331.357 397.345,331.357" id="Fill-30" fill="#47ABB9"></path>
                        <path d="M356.261,370.126 C355.897,370.126 355.524,370.053 355.159,369.896 C346.57,366.195 339.88,357.21 337.6,345.996 C337.254,344.292 338.532,342.691 340.271,342.691 C341.558,342.691 342.657,343.595 342.933,344.852 C344.889,353.758 350.334,360.833 357.263,363.634 C358.304,364.055 359,365.045 359,366.169 L359,367.398 C359,368.976 357.707,370.126 356.261,370.126" id="Fill-31" fill="#47ABB9"></path>
                        <path d="M386.808,331.357 C385.567,331.357 384.481,330.522 384.162,329.323 C381.991,321.165 376.859,314.721 370.397,312.013 C369.36,311.578 368.667,310.589 368.667,309.464 L368.667,308.293 C368.667,306.705 369.971,305.536 371.422,305.536 C371.793,305.536 372.173,305.612 372.543,305.777 C380.591,309.359 386.935,317.595 389.481,327.937 C389.909,329.674 388.597,331.357 386.808,331.357" id="Fill-32" fill="#47ABB9"></path>
                        <path d="M357.079,359.73 C356.779,359.73 356.471,359.656 356.18,359.492 C351.305,356.765 347.497,351.525 345.808,345.068 C345.493,343.864 346.431,342.691 347.675,342.691 C348.522,342.691 349.276,343.244 349.508,344.059 C350.957,349.154 354.075,353.245 358.016,355.311 C358.632,355.634 359,356.288 359,356.983 L359,357.794 C359,358.906 358.079,359.73 357.079,359.73" id="Fill-33" fill="#47ABB9"></path>
                        <path d="M379.298,331.357 C378.492,331.357 377.757,330.864 377.485,330.105 C375.928,325.758 373.121,322.275 369.652,320.374 C369.039,320.038 368.667,319.388 368.667,318.689 L368.667,317.941 C368.667,316.8 369.6,315.999 370.619,315.999 C370.956,315.999 371.302,316.087 371.627,316.279 C375.913,318.812 379.337,323.303 381.158,328.845 C381.566,330.085 380.604,331.357 379.298,331.357" id="Fill-34" fill="#47ABB9"></path>
                        <path d="M357.652,352.201 C357.384,352.201 357.11,352.117 356.867,351.929 C354.591,350.164 352.765,347.56 351.664,344.458 C351.359,343.596 352.019,342.691 352.933,342.691 L353.008,342.691 C353.572,342.691 354.06,343.052 354.265,343.577 C355.189,345.939 356.637,347.915 358.428,349.243 C358.778,349.503 359,349.897 359,350.333 L359,350.853 C359,351.643 358.344,352.201 357.652,352.201" id="Fill-35" fill="#47ABB9"></path>
                        <path d="M328.029,229.134 C328.017,229.119 328.006,229.105 327.993,229.091 C324.992,225.532 321.064,222.871 316.633,220.935 C321.064,222.871 324.992,225.532 327.993,229.091 C328.006,229.105 328.017,229.119 328.029,229.134" id="Fill-36" fill="#0D91A3"></path>
                        <path d="M319.059,233.639 C315.357,233.639 311.582,232.996 308.097,232.039 C302.495,230.5 297.176,228.085 292.17,225.153 C289.115,223.363 284.391,220.652 281.76,217.186 C285.06,216.758 288.657,216.507 292.371,216.507 C300.546,216.507 309.281,217.722 316.633,220.935 C321.064,222.871 324.992,225.532 327.993,229.091 C328.006,229.105 328.017,229.119 328.029,229.134 C328.243,229.393 328.421,229.661 328.58,229.933 C328.175,231.891 326.273,232.911 323.053,233.368 C321.742,233.554 320.406,233.639 319.059,233.639" id="Fill-37" fill="#41454E"></path>
                        <path d="M373.797,331.357 C373.26,331.357 372.784,331.042 372.537,330.566 C371.683,328.922 370.56,327.523 369.237,326.487 C368.888,326.212 368.667,325.808 368.667,325.363 L368.667,325.014 C368.667,324.184 369.359,323.598 370.081,323.598 C370.373,323.598 370.67,323.694 370.928,323.908 C372.602,325.298 374.014,327.151 375.048,329.324 C375.497,330.266 374.841,331.357 373.797,331.357" id="Fill-38" fill="#47ABB9"></path>
                        <path d="M240.335,287.879 L331.918,242.136 C334.693,240.881 335.936,237.584 334.682,234.81 L334.682,234.809 C333.427,232.035 330.13,230.791 327.355,232.046 L235.773,277.789 C232.998,279.044 231.755,282.34 233.009,285.115 C234.264,287.89 237.561,289.134 240.335,287.879" id="Fill-39" fill="#D62155"></path>
                        <path d="M262.09,273.921 L307.882,251.049 C309.269,250.422 309.891,248.773 309.264,247.386 C308.636,245.999 306.988,245.377 305.6,246.004 L259.809,268.876 C258.422,269.503 257.8,271.151 258.427,272.539 C259.055,273.926 260.703,274.548 262.09,273.921" id="Fill-40" fill="#EAE8D6"></path>
                        <path d="M247.478,347.055 C247.703,346.471 248.02,345.901 248.461,345.378 L325.807,236.783 C327.75,234.48 331.107,233.888 333.266,235.468 C335.425,237.047 335.602,240.224 333.658,242.528 L259.345,346.864 L247.478,347.055" id="Fill-41" fill="#D62155"></path>
                        <path d="M360.331,281.672 C361.323,281.656 362.305,281.696 363.282,281.762 C340.376,284.042 322.625,308.346 323.097,337.705 C323.57,367.064 342.093,390.785 365.06,392.327 C364.086,392.424 363.107,392.496 362.115,392.512 C337.802,392.903 317.694,368.408 317.202,337.8 C316.709,307.192 336.019,282.063 360.331,281.672" id="Fill-42" fill="#B2AFA8"></path>
                        <path d="M334.693,253.164 L337.042,252.506 C339.46,251.828 340.884,249.295 340.206,246.877 L334.475,226.44 C333.797,224.022 331.264,222.599 328.846,223.277 L326.497,223.936 C324.079,224.614 322.655,227.147 323.333,229.565 L329.064,250.001 C329.742,252.419 332.275,253.843 334.693,253.164" id="Fill-43" fill="#383838"></path>
                        <path d="M332.046,241.86 L333.416,241.476 C334.825,241.081 335.655,239.604 335.26,238.195 L325.667,203.987 C325.272,202.578 323.796,201.748 322.386,202.143 L321.016,202.527 C319.607,202.923 318.777,204.399 319.172,205.809 L328.765,240.016 C329.16,241.426 330.637,242.256 332.046,241.86" id="Fill-44" fill="#383838"></path>
                        <path d="M237.68,290.906 L239.08,290.653 C240.52,290.393 241.486,289.002 241.226,287.561 L234.915,252.599 C234.655,251.159 233.263,250.193 231.823,250.453 L230.423,250.706 C228.982,250.966 228.016,252.357 228.276,253.798 L234.588,288.759 C234.848,290.2 236.239,291.166 237.68,290.906" id="Fill-45" fill="#383838"></path>
                        <path d="M353.69,342.221 L366.648,342.012 C369.013,341.974 370.916,340.008 370.878,337.643 C370.84,335.279 368.874,333.375 366.51,333.413 L353.552,333.621 C351.187,333.659 350.134,335.612 350.172,337.977 C350.21,340.341 351.325,342.259 353.69,342.221" id="Fill-46" fill="#353535"></path>
                        <path d="M192.876,343.454 L238.869,281.145 C239.3,283.96 240.384,286.606 241.961,288.947 L198.606,347.683 C197.443,349.259 195.202,349.597 193.626,348.434 C192.051,347.271 191.713,345.03 192.876,343.454" id="Fill-47" fill="#AA1F47"></path>
                        <path d="M153.637,346.106 C153.217,320.039 169.663,298.637 190.368,298.304 C211.074,297.971 228.199,318.833 228.619,344.9 C229.038,370.967 212.593,392.368 191.887,392.701 C171.181,393.034 154.056,372.173 153.637,346.106 M144.264,346.257 C144.788,378.84 166.195,404.917 192.077,404.501 C217.959,404.084 238.516,377.333 237.991,344.749 C237.467,312.165 216.061,286.088 190.179,286.505 C164.296,286.921 143.74,313.673 144.264,346.257" id="Fill-48" fill="#383838"></path>
                        <path d="M190.368,298.304 C191.213,298.291 192.049,298.325 192.881,298.381 C173.373,300.323 158.256,321.021 158.658,346.025 C159.06,371.029 174.836,391.23 194.396,392.544 C193.566,392.626 192.732,392.688 191.887,392.701 C171.181,393.034 154.056,372.173 153.637,346.106 C153.217,320.039 169.663,298.637 190.368,298.304" id="Fill-49" fill="#B2AFA8"></path>
                        <path d="M267.187,315.136 L268.289,315.845 C268.751,316.142 268.886,316.764 268.588,317.227 L254.984,338.367 C254.687,338.829 254.065,338.964 253.602,338.666 L252.501,337.958 C252.039,337.66 251.904,337.038 252.201,336.576 L265.805,315.436 C266.103,314.973 266.725,314.838 267.187,315.136" id="Fill-50" fill="#353535"></path>
                        <path d="M326.638,253.312 L339.596,253.104 C341.961,253.066 343.865,251.1 343.827,248.735 C343.789,246.37 341.823,244.467 339.458,244.505 L326.5,244.713 C324.135,244.751 322.232,246.717 322.27,249.082 L323.502,249.746 C323.54,252.111 324.274,253.35 326.638,253.312" id="Fill-51" fill="#383838"></path>
                        <path d="M354.022,342.292 L355.624,341.802 C357.272,341.297 358.208,339.536 357.703,337.888 L329.787,246.725 C329.282,245.077 327.521,244.141 325.873,244.646 L324.271,245.137 C322.623,245.641 321.687,247.403 322.192,249.051 L350.108,340.213 C350.613,341.861 352.374,342.797 354.022,342.292" id="Fill-52" fill="#D62155"></path>
                        <path d="M232.972,269.038 L236.477,268.354 C238.615,267.936 240.728,269.223 241.172,271.215 L258.03,346.885 L246.3,347.074 L229.891,273.419 C229.447,271.428 230.834,269.456 232.972,269.038" id="Fill-53" fill="#D62155"></path>
                        <path d="M322.559,208.129 L336.655,203.679 C337.908,203.283 338.609,201.935 338.213,200.683 L337.829,199.466 C337.434,198.213 336.086,197.512 334.833,197.907 L320.737,202.358 C319.484,202.753 318.783,204.101 319.179,205.354 L319.563,206.57 C319.958,207.823 321.306,208.524 322.559,208.129" id="Fill-54" fill="#353535"></path>
                        <path d="M291.531,197.474 L369.958,207.604 C371.304,207.777 372.548,206.819 372.721,205.473 L372.89,204.165 C373.064,202.819 372.105,201.576 370.759,201.402 L292.332,191.272 C290.986,191.098 289.743,192.057 289.569,193.403 L289.4,194.711 L291.531,197.474" id="Fill-55" fill="#3F3F3F"></path>
                        <path d="M356.672,199.582 L370.106,201.317 C371.811,201.538 373.026,203.113 372.806,204.819 C372.586,206.524 371.01,207.739 369.305,207.519 L356.619,205.881 C356.805,203.796 356.814,201.697 356.672,199.582" id="Fill-56" fill="#636363"></path>
                        <path d="M376.741,207.387 C376.46,208.815 376.417,209.667 374.131,209.884 C372.752,210.016 372.146,208.383 372.146,208.383 C372.146,208.383 372.328,210.073 370.149,210.069 C367.875,210.064 367.517,208.682 367.517,208.682 C367.517,208.682 366.826,210.356 364.05,210.099 C362.207,209.929 362.123,208.918 362.123,208.918 C362.123,208.918 360.986,210.067 359.225,209.612 C355.275,208.591 356.846,205.384 358.202,205.377 C359.33,205.372 362.525,205.241 360.26,201.64 C357.999,198.046 354.655,199.593 354.655,199.593 L352.833,199.25 C361.841,191.764 379.583,192.917 376.741,207.387" id="Fill-57" fill="#E7A387"></path>
                        <path d="M330.373,196.618 C330.558,196.559 335.018,196.154 335.018,196.154 C337.086,195.841 339.034,197.276 339.347,199.344 C339.661,201.412 338.225,203.36 336.157,203.674 L332.473,204.232 C330.974,204.459 329.594,204.065 328.798,202.88 C331.326,202.043 331.415,198.617 330.373,196.618" id="Fill-58" fill="#353535"></path>
                        <path d="M351.127,198.86 C351.318,198.827 358.184,198.86 358.184,198.86 C360.275,198.827 362.014,200.51 362.047,202.601 C362.081,204.692 360.398,206.431 358.306,206.465 L354.58,206.525 C353.065,206.549 351.757,206.452 351.127,205.171 C353.745,204.68 353.478,200.153 351.127,198.86" id="Fill-59" fill="#353535"></path>
                        <path d="M182.779,344.592 C182.892,351.63 186.902,357.272 191.736,357.195 C196.569,357.117 200.396,351.349 200.283,344.311 C200.17,337.273 196.159,331.631 191.326,331.708 C186.492,331.786 182.665,337.554 182.779,344.592" id="Fill-60" fill="#606060"></path>
                        <path d="M186.415,386.724 C186.062,386.724 185.701,386.666 185.342,386.544 C173.304,382.433 163.906,370.012 161.377,354.43 C161.048,352.4 162.616,350.554 164.673,350.554 C166.305,350.554 167.675,351.742 167.958,353.35 C170.141,365.751 177.777,375.559 187.479,378.645 C188.841,379.078 189.745,380.37 189.745,381.8 L189.745,383.379 C189.745,385.281 188.185,386.724 186.415,386.724" id="Fill-61" fill="#47ABB9"></path>
                        <path d="M222.691,340.816 C221.093,340.816 219.742,339.679 219.417,338.114 C218.801,335.147 217.871,332.34 216.674,329.753 L223.646,328.586 C224.15,329.912 224.601,331.276 224.995,332.674 C224.201,334.063 223.764,334.849 223.764,334.849 C223.764,334.849 224.547,335.977 226.01,337.062 C226.249,339.037 224.715,340.816 222.691,340.816 M215.549,327.526 C215.256,326.995 214.952,326.474 214.637,325.966 L219.173,319.82 C220.513,321.843 221.705,324.029 222.728,326.349 L215.549,327.526 M210.055,320.181 C207.21,317.367 203.902,315.265 200.308,314.087 C198.952,313.643 198.051,312.359 198.051,310.932 L198.051,309.363 C198.051,307.46 199.612,306.01 201.38,306.01 C201.738,306.01 202.105,306.069 202.469,306.197 C206.942,307.763 211.045,310.479 214.559,314.079 L210.055,320.181" id="Fill-62" fill="#47ABB9"></path>
                        <path d="M214.637,325.966 C213.3,323.812 211.76,321.868 210.055,320.181 L214.559,314.079 C216.239,315.8 217.786,317.724 219.173,319.82 L214.637,325.966" id="Fill-63" fill="#C25D7A"></path>
                        <path d="M187.392,374.127 C187.079,374.127 186.758,374.064 186.445,373.929 C179.065,370.75 173.317,363.03 171.358,353.394 C171.06,351.931 172.159,350.554 173.653,350.554 C174.759,350.554 175.703,351.331 175.94,352.412 C177.62,360.063 182.298,366.142 188.252,368.549 C189.147,368.911 189.745,369.762 189.745,370.727 L189.745,371.783 C189.745,373.139 188.634,374.127 187.392,374.127" id="Fill-64" fill="#47ABB9"></path>
                        <path d="M213.638,340.816 C212.571,340.816 211.638,340.099 211.364,339.068 C210.826,337.044 210.075,335.142 209.145,333.405 L211.159,330.677 L213.094,330.353 C214.307,332.654 215.271,335.183 215.934,337.878 C216.302,339.371 215.175,340.816 213.638,340.816 M204.642,327.514 C203.101,326.096 201.383,324.969 199.538,324.196 C198.647,323.822 198.051,322.972 198.051,322.006 L198.051,320.999 C198.051,319.635 199.171,318.63 200.418,318.63 C200.736,318.63 201.063,318.696 201.381,318.837 C203.712,319.875 205.876,321.367 207.805,323.229 L204.642,327.514" id="Fill-65" fill="#47ABB9"></path>
                        <path d="M209.145,333.405 C208.74,332.649 208.302,331.924 207.833,331.233 L211.159,330.677 L209.145,333.405 M206.157,329.067 C205.674,328.517 205.169,327.999 204.642,327.514 L207.805,323.229 C209.288,324.66 210.632,326.309 211.805,328.14 L206.157,329.067" id="Fill-66" fill="#C25D7A"></path>
                        <path d="M188.095,365.195 C187.837,365.195 187.572,365.131 187.322,364.991 C183.133,362.648 179.861,358.145 178.41,352.597 C178.139,351.562 178.945,350.554 180.014,350.554 C180.742,350.554 181.39,351.03 181.589,351.73 C182.834,356.108 185.513,359.623 188.9,361.398 C189.428,361.675 189.745,362.237 189.745,362.834 L189.745,363.531 C189.745,364.487 188.954,365.195 188.095,365.195" id="Fill-67" fill="#47ABB9"></path>
                        <path d="M207.185,340.816 C206.493,340.816 205.861,340.393 205.628,339.741 C205.503,339.392 205.369,339.05 205.225,338.715 L207.528,335.596 C208.011,336.565 208.432,337.589 208.784,338.658 C209.134,339.724 208.307,340.816 207.185,340.816 M200.824,332.687 C200.728,332.608 200.631,332.531 200.533,332.455 L201.06,332.367 L200.824,332.687" id="Fill-68" fill="#47ABB9"></path>
                        <path d="M205.225,338.715 C204.181,336.27 202.661,334.196 200.824,332.687 L201.06,332.367 L205.02,331.704 C205.975,332.866 206.819,334.172 207.528,335.596 L205.225,338.715" id="Fill-69" fill="#C25D7A"></path>
                        <path d="M198.113,330.386 C198.072,330.24 198.051,330.087 198.051,329.932 L198.051,329.289 C198.051,328.309 198.853,327.62 199.728,327.62 C200.017,327.62 200.315,327.696 200.594,327.861 C201.428,328.353 202.224,328.932 202.974,329.589 L198.113,330.386" id="Fill-70" fill="#47ABB9"></path>
                        <path d="M188.587,358.726 C188.356,358.726 188.121,358.653 187.912,358.492 C185.957,356.975 184.388,354.738 183.442,352.073 C183.25,351.532 183.501,350.971 183.956,350.708 C185.183,353.805 187.267,356.093 189.72,356.889 C189.736,356.964 189.745,357.042 189.745,357.121 L189.745,357.567 C189.745,358.246 189.181,358.726 188.587,358.726" id="Fill-71" fill="#47ABB9"></path>
                        <path d="M189.72,356.889 C187.267,356.093 185.183,353.805 183.956,350.708 C184.124,350.611 184.32,350.554 184.532,350.554 L184.596,350.554 C185.081,350.554 185.5,350.864 185.677,351.316 C186.47,353.346 187.715,355.043 189.253,356.184 C189.491,356.36 189.659,356.608 189.72,356.889" id="Fill-72" fill="#8C8C8C"></path>
                        <path d="M198.202,336.239 C198.105,336.066 198.051,335.871 198.051,335.666 L198.051,335.367 C198.051,334.653 198.645,334.15 199.266,334.15 C199.406,334.15 199.548,334.175 199.684,334.23 L198.202,336.239" id="Fill-73" fill="#47ABB9"></path>
                        <path d="M202.459,340.816 C201.997,340.816 201.589,340.546 201.376,340.137 C200.643,338.725 199.678,337.523 198.541,336.632 C198.402,336.522 198.286,336.389 198.202,336.239 L199.684,334.23 C199.792,334.274 199.896,334.335 199.993,334.416 C201.432,335.61 202.645,337.203 203.534,339.069 C203.919,339.879 203.355,340.816 202.459,340.816" id="Fill-74" fill="#C25D7A"></path>
                        <path d="M192.462,333.806 L192.031,354.948 L252.76,355.453 L252.251,323.799 L192.462,333.806 M190.179,357.203 L189.913,331.731 L253.346,321.327 L255.066,357.742 L190.179,357.203" id="Fill-75" fill="#353535"></path>
                        <path d="M181.939,344.606 C182.052,351.644 186.063,357.286 190.896,357.208 C195.73,357.13 199.557,351.362 199.443,344.324 C199.33,337.286 195.32,331.644 190.486,331.722 C185.652,331.8 181.826,337.568 181.939,344.606" id="Fill-76" fill="#353535"></path>
                        <path d="M359.801,203.251 L379.323,204.507 C379.896,204.544 380.396,204.105 380.433,203.532 L380.469,202.975 C380.505,202.401 380.066,201.902 379.493,201.865 L359.971,200.609 C359.398,200.572 358.898,201.011 358.861,201.585 L358.826,202.142 C358.789,202.715 359.228,203.214 359.801,203.251" id="Fill-77" fill="#353535"></path>
                        <path d="M254.745,249.849 C256.082,249.108 256.597,247.41 255.83,246.088 C254.842,244.384 252.999,242.462 249.704,242.437 C243.773,242.391 237.758,245.876 226.464,245.987 C218.309,246.067 212.06,245.712 209.218,245.508 C208.146,245.432 207.127,245.976 206.609,246.917 C205.87,248.258 205.012,250.128 205.367,251.057 C205.957,252.6 212.561,259.413 217.206,258.491 C221.514,257.635 246.536,252.924 250.135,252.246 C250.426,252.191 250.699,252.092 250.958,251.948 L254.745,249.849" id="Fill-78" fill="#383838"></path>
                        <path d="M183.944,345.858 L185.152,346.75 C186.395,347.668 188.164,347.401 189.081,346.158 L237.086,281.124 C238.004,279.88 237.737,278.112 236.494,277.194 L235.286,276.302 C234.042,275.385 232.274,275.651 231.356,276.894 L183.352,341.928 C182.434,343.172 182.7,344.94 183.944,345.858" id="Fill-79" fill="#D62155"></path>
                        <path d="M186.727,347.296 L246.415,345.193 C247.386,345.162 248.155,344.343 248.124,343.373 L248.095,342.43 C248.064,341.46 247.245,340.691 246.275,340.721 L185.855,342.616 C184.885,342.646 184.116,343.465 184.146,344.436 L184.176,345.379 C184.206,346.349 185.756,347.326 186.727,347.296" id="Fill-80" fill="#D62155"></path>
                        <path d="M254.056,281.026 L262.461,276.828 L254.056,281.026 M250.001,270.682 L260.106,265.635 L250.001,270.682 M280.052,255.673 L297.854,246.781 L280.052,255.673" id="Fill-81" fill="#007D8E"></path>
                        <polyline id="Fill-82" fill="#31353D" points="297.854 246.781 297.854 246.781 300.072 245.673 297.854 246.781"></polyline>
                        <path d="M252.958,281.194 C251.362,281.194 250.563,279.909 249.938,277.606 C249.319,275.322 249.347,272.909 250.001,270.682 L260.106,265.635 C260.872,266.32 261.564,267.006 262.178,267.693 L259.809,268.876 C258.422,269.503 257.8,271.151 258.427,272.539 C258.889,273.559 259.902,274.165 260.958,274.165 C261.338,274.165 261.723,274.087 262.09,273.921 L265.129,272.403 C265.193,272.592 265.25,272.779 265.3,272.966 C265.461,273.565 264.993,274.61 264.062,276.028 L262.461,276.828 L254.056,281.026 C253.652,281.139 253.288,281.194 252.958,281.194 M285.922,265.11 C285.504,264.292 285.066,263.48 284.609,262.673 L300.96,254.507 C301.136,255.44 301.339,256.37 301.566,257.296 L285.922,265.11 M281.672,257.956 C281.149,257.187 280.61,256.427 280.052,255.673 L300.072,245.673 C300.083,246.682 300.126,247.693 300.199,248.702 L281.672,257.956" id="Fill-83" fill="#C01E4C"></path>
                        <path d="M260.958,274.165 C259.902,274.165 258.889,273.559 258.427,272.539 C257.8,271.151 258.422,269.503 259.809,268.876 L262.178,267.693 C263.6,269.283 264.603,270.869 265.129,272.403 L262.09,273.921 C261.723,274.087 261.338,274.165 260.958,274.165 M284.609,262.673 C283.704,261.076 282.724,259.502 281.672,257.956 L300.199,248.702 C300.34,250.644 300.595,252.582 300.96,254.507 L284.609,262.673" id="Fill-84" fill="#D2D0C0"></path>
                        <path d="M247.478,347.055 C247.703,346.471 248.02,345.901 248.461,345.378 L252.506,339.698 L252.623,346.972 L247.478,347.055" id="Fill-85" fill="#C01E4C"></path>
                        <polyline id="Fill-86" fill="#E1A51F" points="283.15 313.441 283.15 313.441 286.967 308.083 283.15 313.441"></polyline>
                        <polyline id="Fill-87" fill="#D8D1D0" points="286.967 308.083 286.967 308.083 291.71 301.423 286.967 308.083"></polyline>
                        <polyline id="Fill-88" fill="#D8D1D0" points="282.001 315.055 282.001 315.055 282.838 313.88 282.001 315.055"></polyline>
                        <path d="M281.701,315.476 L282.001,315.055 L281.701,315.476 M282.838,313.88 L283.15,313.441 L282.838,313.88" id="Fill-89" fill="#D8D1D0"></path>
                        <polyline id="Fill-90" fill="#007D8E" points="284.4 294.919 284.4 294.919 304.673 266.455 284.4 294.919"></polyline>
                        <polyline id="Fill-91" fill="#E1A51F" points="273.201 310.642 273.201 310.642 279.449 301.871 273.201 310.642"></polyline>
                        <polyline id="Fill-92" fill="#D8D1D0" points="279.449 301.871 279.449 301.871 284.4 294.919 279.449 301.871"></polyline>
                        <polyline id="Fill-93" fill="#D8D1D0" points="271.599 312.892 271.599 312.892 272.898 311.068 271.599 312.892"></polyline>
                        <path d="M271.349,313.243 L271.599,312.892 L271.349,313.243 M272.898,311.068 L273.201,310.642 L272.898,311.068" id="Fill-94" fill="#D8D1D0"></path>
                        <polyline id="Fill-95" fill="#303030" points="268.714 316.943 268.714 316.943 271.349 313.243 268.714 316.943"></polyline>
                        <path d="M258.03,346.885 L255.837,337.041 L268.588,317.227 C268.646,317.137 268.688,317.041 268.714,316.943 L272.898,311.068 L273.201,310.642 L304.673,266.455 C306.114,269.759 307.86,272.938 309.872,275.923 L283.15,313.441 L282.838,313.88 L259.345,346.864 L258.03,346.885" id="Fill-96" fill="#C01E4C"></path>
                        <path d="M255.837,337.041 L255.494,335.503 L268.714,316.943 C268.688,317.041 268.646,317.137 268.588,317.227 L255.837,337.041" id="Fill-97" fill="#303030"></path>
                        <polyline id="Fill-98" fill="#C01E4C" points="254.556 346.941 254.108 337.45 255.494 335.503 258.03 346.885 254.556 346.941"></polyline>
                        <polyline id="Fill-99" fill="#303030" points="252.623 346.972 252.506 339.698 254.108 337.45 254.556 346.941 252.623 346.972"></polyline>
                        <path d="M244.894,340.764 L245.804,340.736 C245.806,340.736 245.809,340.736 245.811,340.736 L244.894,340.764" id="Fill-100" fill="#C01E4C"></path>
                        <path d="M208.984,346.367 C209.107,344.88 209.168,343.385 209.17,341.885 L228.452,341.28 L237.837,340.986 L244.894,340.764 L245.811,340.736 C245.832,340.735 245.853,340.735 245.874,340.735 C247.073,340.735 248.072,341.695 248.109,342.902 C248.148,344.131 247.173,345.169 245.944,345.207 L208.984,346.367" id="Fill-101" fill="#C01E4C"></path>
                        <path d="M242.336,339.712 C242.498,349.765 248.226,357.824 255.131,357.713 C262.035,357.602 267.502,349.362 267.34,339.309 C267.178,329.256 261.45,321.197 254.545,321.308 C247.64,321.419 242.174,329.658 242.336,339.712" id="Fill-102" fill="#606060"></path>
                        <path d="M241.137,339.731 C241.299,349.784 247.027,357.844 253.932,357.732 C260.836,357.621 266.302,349.382 266.141,339.329 C265.979,329.275 260.25,321.216 253.346,321.327 C246.441,321.438 240.975,329.678 241.137,339.731" id="Fill-103" fill="#353535"></path>
                        <path d="M248.638,339.61 C248.703,343.631 250.994,346.855 253.756,346.811 C256.518,346.766 258.704,343.47 258.639,339.449 C258.575,335.428 256.283,332.204 253.522,332.249 C250.76,332.293 248.573,335.589 248.638,339.61" id="Fill-104" fill="#606060"></path>
                        <path d="M233.263,370.185 L234.054,370.694 C234.868,371.218 235.962,370.981 236.486,370.167 L255.421,340.743 C255.944,339.929 255.707,338.835 254.893,338.311 L254.102,337.802 C253.289,337.279 252.194,337.516 251.671,338.33 L232.736,367.753 C232.212,368.567 232.449,369.662 233.263,370.185" id="Fill-105" fill="#3D3D3D"></path>
                        <path d="M229.958,372.54 L243.667,373.663 C244.581,373.737 245.39,373.051 245.465,372.138 L245.653,369.838 C245.728,368.924 245.042,368.115 244.128,368.04 L230.419,366.917 C229.505,366.842 228.696,367.529 228.621,368.442 L228.433,370.742 C228.358,371.656 229.044,372.465 229.958,372.54" id="Fill-106" fill="#353535"></path>
                        <path d="M356.996,207.362 L358.179,207.183 C359.396,206.998 360.242,205.851 360.057,204.634 L359.414,200.385 C359.229,199.168 358.082,198.323 356.865,198.507 L355.682,198.686 C354.465,198.871 353.62,200.018 353.804,201.235 L354.448,205.484 C354.632,206.701 355.779,207.546 356.996,207.362" id="Fill-107" fill="#353535"></path>
                        <path d="M204.386,227.869 L203.614,229.965 C202.99,231.66 202.764,233.481 202.941,235.278 C203.935,245.334 208.552,248.514 213.549,248.976 L266.586,250.751 L262.557,228.987 L204.386,227.869" id="Fill-108" fill="#373B44"></path>
                        <path d="M199.114,227.801 L200.667,225.705 L224.958,226.187 C224.802,227.834 224.876,229.482 225.245,231.13 C225.371,233.912 226.198,236.504 227.726,238.904 C229.04,241.34 230.835,243.296 233.112,244.77 C234.021,245.602 235.012,246.295 236.064,246.884 C236.426,247.147 236.788,247.407 237.168,247.639 L237.378,247.759 L210.215,248.181 C205.218,247.719 199.435,243.17 198.441,233.114 C198.264,231.317 198.49,229.495 199.114,227.801" id="Fill-109" fill="#454A56"></path>
                        <polyline id="Fill-110" fill="#F0E9E8" points="237.515 336.907 229.928 350.933 217.588 346.966 223.764 334.849 237.515 336.907"></polyline>
                        <path d="M219.374,343.212 C228.794,346.575 233.565,343.96 233.565,343.96 C236.602,346.582 244.145,356.576 258.649,357.103 C261.827,357.218 268.801,357.872 268.897,362.605 L268.94,364.714 C268.973,366.32 267.949,367.765 266.412,368.236 C262.333,369.487 253.691,372.332 245.056,369.516 C237.75,367.134 233.742,368.371 231.968,368.746 C231.067,368.937 230.15,369.043 229.229,369.017 L217.225,368.667 C216.225,368.637 215.395,367.882 215.28,366.888 C214.687,361.764 212.962,346.694 219.374,343.212" id="Fill-111" fill="#FBB823"></path>
                        <path d="M233.631,350.653 C233.977,349.795 236.29,347.767 237.12,346.951 C242.564,350.184 247.566,353.054 254.466,356.612 C252.638,360.057 250.066,361.764 245.762,360.948 C242.44,360.319 239.423,358.707 236.749,356.666 C235.085,355.396 232.601,353.21 233.631,350.653" id="Fill-112" fill="#F0E9E8"></path>
                        <path d="M233.042,366.512 C240.454,367.312 256.723,367.293 257.022,366.863 C257.366,366.52 257.594,366.041 257.651,365.589 C258.028,362.634 259.341,359.788 260.884,357.262 C264.304,357.635 268.82,358.802 268.897,362.605 L268.94,364.714 C268.973,366.32 267.949,367.765 266.412,368.236 C262.333,369.487 253.723,372.23 245.056,369.516 C236.326,366.783 233.742,368.371 231.968,368.746 C231.067,368.937 230.15,369.043 229.229,369.017 L217.225,368.667 C216.225,368.637 215.395,367.882 215.28,366.888 C215.197,366.176 215.106,365.26 215.024,364.224 C215.751,364.314 216.479,364.393 217.206,364.478 C222.419,365.488 227.622,365.927 233.042,366.512" id="Fill-113" fill="#F0E9E8"></path>
                        <path d="M233.042,366.512 L233.015,366.76 C237.253,367.217 244.341,367.407 249.727,367.407 C251.765,367.407 253.559,367.38 254.863,367.329 C255.515,367.304 256.044,367.273 256.425,367.236 C256.615,367.217 256.768,367.197 256.887,367.174 L257.048,367.132 C257.097,367.109 257.149,367.104 257.227,367.005 L257.022,366.863 L257.198,367.04 C257.585,366.653 257.833,366.131 257.899,365.621 C258.268,362.719 259.565,359.901 261.097,357.392 L260.884,357.262 L260.856,357.511 C262.55,357.694 264.511,358.079 266.029,358.869 C267.55,359.667 268.607,360.818 268.647,362.61 L268.69,364.719 L268.691,364.789 C268.691,366.257 267.744,367.566 266.339,367.997 C263.523,368.861 258.577,370.424 252.96,370.424 C250.44,370.424 247.787,370.109 245.13,369.278 C241.267,368.068 238.589,367.697 236.64,367.697 C234.169,367.695 232.861,368.304 231.916,368.502 C231.121,368.67 230.317,368.771 229.513,368.771 C229.421,368.771 229.329,368.769 229.236,368.767 L217.232,368.417 C216.356,368.391 215.628,367.728 215.528,366.86 C215.446,366.15 215.355,365.237 215.273,364.204 L215.024,364.224 L214.993,364.472 C215.723,364.562 216.451,364.641 217.178,364.726 L217.206,364.478 L217.159,364.723 C222.389,365.737 227.599,366.176 233.015,366.76 L233.042,366.512 L233.068,366.263 C227.645,365.678 222.449,365.239 217.254,364.232 L217.245,364.23 L217.235,364.229 C216.507,364.144 215.779,364.065 215.055,363.976 L214.751,363.938 L214.775,364.243 C214.857,365.282 214.949,366.201 215.031,366.917 C215.161,368.035 216.095,368.884 217.217,368.916 L229.222,369.266 C229.319,369.269 229.416,369.271 229.513,369.271 C230.359,369.271 231.198,369.165 232.02,368.991 C233.06,368.768 234.243,368.198 236.64,368.197 C238.525,368.196 241.152,368.556 244.981,369.755 C247.694,370.604 250.399,370.924 252.96,370.924 C258.667,370.924 263.669,369.338 266.486,368.475 C268.105,367.978 269.191,366.473 269.191,364.789 L269.19,364.709 L269.147,362.6 C269.11,360.589 267.87,359.254 266.259,358.425 C264.645,357.588 262.637,357.203 260.911,357.014 L260.753,356.996 L260.67,357.132 C259.118,359.675 257.787,362.55 257.403,365.558 C257.355,365.95 257.147,366.388 256.846,366.685 L256.829,366.701 L256.817,366.72 L256.971,366.827 L256.876,366.663 L256.817,366.72 L256.971,366.827 L256.876,366.663 L256.915,366.73 L256.883,366.66 L256.876,366.663 L256.915,366.73 L256.883,366.66 C256.883,366.661 256.801,366.685 256.686,366.701 C255.846,366.829 253.116,366.908 249.727,366.907 C244.354,366.907 237.267,366.717 233.068,366.263 L233.042,366.512" id="Fill-114" fill="#F0E9E8"></path>
                        <path d="M211.712,203.292 C214.009,203.515 216.315,203.68 218.586,203.953 C224.741,204.694 230.896,205.433 237.051,206.165 C243.72,206.957 250.391,207.737 257.062,208.505 C256.445,201.878 256.259,195.214 256.25,188.5 C256.248,187.048 256.81,185.961 257.654,185.237 C257.631,173.698 259.468,162.435 265.864,152.479 C266.681,151.207 267.818,150.582 268.994,150.432 C270.764,146.38 272.726,142.388 274.645,138.206 C272.443,136.669 266.218,133.852 249.486,132.786 C243.487,132.403 212.078,130.234 213.229,137.575 C213.229,137.575 216.595,163.411 211.712,203.292" id="Fill-115" fill="#D4907A"></path>
                        <path d="M232.016,132.148 C232.824,139.483 235.955,145.068 243.647,146.233 C250.721,147.304 258.704,140.861 259.596,133.785 C275.556,135.144 277.556,139.767 277.556,139.767 L269.5,156.583 C272.02,166.934 271.75,170.5 264.167,181.833 C258.388,190.47 261.908,211.596 266.586,220 C268.461,223.369 257.893,231.421 254.333,232.903 C251.263,234.181 245.388,231.576 237.669,228.97 C227.349,225.487 213.733,222.003 199.114,227.801 C222.5,178.861 202.193,165.279 206.667,140.5 C208.167,132.192 220.683,132.229 232.016,132.148" id="Fill-116" fill="#FBB823"></path>
                        <path d="M260.41,228.946 C263.673,226.333 266.811,223.068 266.807004,220.894 C266.811,223.068 263.674,226.333 260.41,228.946" id="Fill-118" fill="#31353D"></path>
                        <path d="M253.647,233.116 C253.889,233.063 254.118,232.993 254.333,232.903 C255.696,232.336 258.085,230.806 260.41,228.946 C258.085,230.806 255.696,232.336 254.333,232.903 C254.118,232.993 253.889,233.063 253.647,233.116" id="Fill-119" fill="#31353D"></path>
                        <path d="M199.114,227.801 C199.126,227.776 199.137,227.752 199.149,227.728 C199.138,227.752 199.126,227.777 199.114,227.801 M199.168,227.687 C199.173,227.677 199.179,227.665 199.184,227.654 C199.18,227.663 199.173,227.678 199.168,227.687 M199.203,227.615 C199.209,227.603 199.214,227.591 199.22,227.579 C199.214,227.591 199.208,227.603 199.203,227.615 M199.234,227.55 C199.241,227.534 199.249,227.518 199.256,227.503 C199.249,227.517 199.241,227.535 199.234,227.55 M199.268,227.478 C199.277,227.46 199.285,227.442 199.294,227.424 C199.285,227.442 199.277,227.46 199.268,227.478 M199.3,227.411 C199.31,227.39 199.321,227.367 199.331,227.346 C199.321,227.367 199.31,227.39 199.3,227.411 M199.334,227.339 C202.345,220.992 204.612,215.248 206.298,209.994 C206.299,209.994 206.301,209.995 206.302,209.995 C204.616,215.246 202.343,220.996 199.334,227.339" id="Fill-120" fill="#007D8E"></path>
                        <path d="M205.551,225.802 C207.317,225.4 209.059,225.12 210.779,224.943 L210.778,224.943 C209.059,225.12 207.315,225.401 205.551,225.802" id="Fill-121" fill="#007D8E"></path>
                        <path d="M200.967,227.113 C202.508,226.58 204.037,226.146 205.551,225.802 C204.038,226.146 202.508,226.58 200.967,227.113" id="Fill-122" fill="#3E424D"></path>
                        <path d="M266.586,220 C266.581,219.991 266.576,219.983 266.572,219.974 C266.576,219.983 266.581,219.992 266.586,220 M266.566,219.965 C266.563,219.959 266.56,219.954 266.557,219.948 C266.56,219.953 266.563,219.959 266.566,219.965 M266.552,219.938 C266.549,219.933 266.546,219.927 266.543,219.922 C266.546,219.927 266.549,219.933 266.552,219.938 M266.537,219.912 C266.534,219.906 266.531,219.901 266.528,219.895 C266.531,219.901 266.534,219.906 266.537,219.912 M266.523,219.886 C266.52,219.88 266.516,219.874 266.513,219.868 C266.517,219.874 266.52,219.88 266.523,219.886 M266.508,219.859 C266.505,219.853 266.502,219.847 266.498,219.841 C266.502,219.847 266.505,219.853 266.508,219.859 M266.494,219.834 C266.49,219.826 266.487,219.82 266.483,219.812 C266.487,219.82 266.49,219.826 266.494,219.834 M266.48,219.807 C266.475,219.799 266.471,219.79 266.466,219.782 C266.471,219.79 266.475,219.799 266.48,219.807 M266.466,219.781 C263.953,215.13 261.798,206.839 261.278,198.866 C261.279,198.866 261.281,198.864 261.282,198.864 C261.801,206.837 263.953,215.129 266.466,219.781" id="Fill-123" fill="#007D8E"></path>
                        <path d="M253.647,233.116 C243.351,227.673 231.642,224.403 219.375,224.403 C216.535,224.403 213.668,224.578 210.779,224.943 C209.059,225.12 207.317,225.4 205.551,225.802 C204.037,226.146 202.508,226.58 200.967,227.113 C200.962,227.115 200.958,227.116 200.953,227.118 C200.947,227.12 200.94,227.122 200.934,227.124 C200.329,227.334 199.723,227.559 199.114,227.801 C199.126,227.777 199.138,227.752 199.149,227.728 C199.155,227.714 199.162,227.701 199.168,227.687 C199.173,227.678 199.18,227.663 199.184,227.654 C199.19,227.641 199.197,227.628 199.203,227.615 C199.208,227.603 199.214,227.591 199.22,227.579 C199.225,227.569 199.229,227.559 199.234,227.55 C199.241,227.535 199.249,227.517 199.256,227.503 C199.26,227.495 199.264,227.486 199.268,227.478 C199.277,227.46 199.285,227.442 199.294,227.424 C199.296,227.42 199.298,227.415 199.3,227.411 C199.31,227.39 199.321,227.367 199.331,227.346 C199.332,227.343 199.333,227.341 199.334,227.339 C202.343,220.996 204.616,215.246 206.302,209.995 C211.213,211.031 216.201,211.545 221.169,211.545 C235.521,211.544 249.695,207.255 261.278,198.866 C261.798,206.839 263.953,215.13 266.466,219.781 L266.466,219.782 C266.471,219.79 266.475,219.799 266.48,219.807 C266.481,219.809 266.482,219.811 266.483,219.812 C266.487,219.82 266.49,219.826 266.494,219.834 C266.496,219.836 266.497,219.838 266.498,219.841 C266.502,219.847 266.505,219.853 266.508,219.859 C266.51,219.862 266.512,219.866 266.513,219.868 C266.516,219.874 266.52,219.88 266.523,219.886 C266.524,219.889 266.526,219.892 266.528,219.895 C266.531,219.901 266.534,219.906 266.537,219.912 C266.539,219.915 266.541,219.918 266.543,219.922 C266.546,219.927 266.549,219.933 266.552,219.938 C266.554,219.942 266.555,219.945 266.557,219.948 C266.56,219.954 266.563,219.959 266.566,219.965 C266.568,219.968 266.57,219.971 266.572,219.974 C266.576,219.983 266.581,219.991 266.586,220 C266.736,220.27 266.807,220.57 266.807,220.894 C266.811,223.068 263.673,226.333 260.41,228.946 C258.085,230.806 255.696,232.336 254.333,232.903 C254.118,232.993 253.889,233.063 253.647,233.116" id="Fill-124" fill="#E1A51F"></path>
                        <path d="M243.07,191.139 L243.067,191.134 C242.995,191.24 242.923,191.348 243.07,191.139" id="Fill-125" fill="#555050"></path>
                        <path d="M243.07,191.13 L243.07,191.139 C243.207,190.933 243.14,191.028 243.07,191.13" id="Fill-126" fill="#555050"></path>
                        <path d="M261.174,196.39 C261.173,196.389 261.172,196.389 261.17,196.388 C261.081,192.143 261.508,188.111 262.652,184.916 C262.654,184.917 262.657,184.918 262.659,184.919 C261.514,188.114 261.085,192.143 261.174,196.39" id="Fill-127" fill="#007D8E"></path>
                        <path d="M261.17,196.388 C250.101,192.368 239.195,187.482 231.398,182.637 C218.778,174.796 211.994,161.814 208.5,153.75 C206.995,150.276 206.019,142.333 210.219,137.482 C210.505,137.152 210.848,137.002 211.234,137.002 C214.349,137.002 220.263,146.721 221.58,149.662 C222.522,151.764 223.831,154.48 225.444,157.376 C224.821,157.621 224.203,157.88 223.592,158.153 C225.29,159.976 227.107,161.667 229.023,163.234 C232.328,168.136 236.357,172.743 240.818,175.063 C246.197,177.86 254.055,181.447 262.652,184.916 C261.508,188.111 261.081,192.143 261.17,196.388" id="Fill-128" fill="#E1A51F"></path>
                        <polyline id="Fill-130" fill="#555050" points="243.067 191.134 243.07 191.139 243.07 191.13 243.067 191.134"></polyline>
                        <path d="M293.919,196.111 L305.8,188.117 C289.611,187.375 256.07,173.696 241.268,166 C232.352,161.364 225.161,147.588 222.031,140.599 C220.55,137.293 216.539,135.5 212.682,136.403 C208.646,137.347 206.447,141.213 207.952,144.686 C211.446,152.75 219.228,165.733 231.848,173.574 C247.927,183.565 277.221,193.74 293.919,196.111" id="Fill-131" fill="#D7937F"></path>
                        <path d="M236.337,339.085 C237.054,339.378 249.171,321.096 264.375,306.125 C277.75,292.955 290.876,277.857 289.459,273.547 C279.798,244.158 243.667,217.875 205.347,225.849 L210.215,248.181 L212.196,248.965 C239.842,250.94 262.673,263.146 265.3,272.966 C265.983,275.518 255.282,286.133 245.937,299.375 C234.445,315.662 223.764,334.849 223.764,334.849 C223.764,334.849 225.937,337.981 229.808,338.824 C232.891,339.497 236.337,339.085 236.337,339.085" id="Fill-134" fill="#454A56"></path>
                        <path d="M289.462,273.557 C289.461,273.554 289.46,273.55 289.459,273.547 C289.46,273.55 289.461,273.554 289.462,273.557 M289.441,273.491 C289.44,273.487 289.438,273.483 289.437,273.48 C289.438,273.484 289.439,273.487 289.441,273.491 M289.419,273.426 C289.418,273.424 289.416,273.417 289.416,273.415 C289.417,273.419 289.418,273.422 289.419,273.426 M289.398,273.361 L289.397,273.358 C289.397,273.36 289.397,273.36 289.398,273.361 M289.378,273.303 C289.377,273.299 289.376,273.295 289.375,273.292 C289.376,273.296 289.377,273.299 289.378,273.303 M289.356,273.237 C289.355,273.235 289.354,273.231 289.354,273.229 C289.354,273.231 289.355,273.234 289.356,273.237 M289.335,273.173 L289.334,273.171 L289.335,273.173 M289.315,273.114 C289.314,273.11 289.313,273.108 289.312,273.104 C289.312,273.107 289.314,273.111 289.315,273.114 M289.293,273.049 C289.292,273.047 289.291,273.042 289.29,273.041 C289.291,273.043 289.292,273.046 289.293,273.049 M289.251,272.925 C289.25,272.923 289.249,272.919 289.248,272.918 C289.249,272.92 289.25,272.922 289.251,272.925 M289.228,272.859 L289.227,272.856 L289.228,272.859 M289.185,272.736 C289.185,272.734 289.184,272.733 289.184,272.731 C289.185,272.734 289.185,272.733 289.185,272.736 M289.163,272.671 L289.163,272.67 L289.163,272.671 M289.12,272.547 L289.119,272.545 L289.12,272.547" id="Fill-135" fill="#41454E"></path>
                        <path d="M285.024,276.111 C279.426,276.111 270.138,273.602 264.096,268.091 C256.576,261.233 249.464,253.866 244.128,245.21 C240.491,239.31 238.426,232.638 235.667,226.342 C260.974,232.339 281.77,251.546 289.119,272.545 L289.12,272.547 C289.134,272.588 289.148,272.628 289.163,272.67 L289.163,272.671 C289.17,272.69 289.177,272.711 289.184,272.731 C289.184,272.733 289.185,272.734 289.185,272.736 C289.199,272.776 289.213,272.816 289.227,272.856 L289.228,272.859 C289.235,272.879 289.241,272.898 289.248,272.918 C289.249,272.919 289.25,272.923 289.251,272.925 C289.264,272.964 289.277,273.002 289.29,273.041 C289.291,273.042 289.292,273.047 289.293,273.049 C289.299,273.067 289.305,273.086 289.312,273.104 C289.313,273.108 289.314,273.11 289.315,273.114 C289.321,273.133 289.327,273.151 289.334,273.171 L289.335,273.173 C289.341,273.192 289.347,273.209 289.354,273.229 C289.354,273.231 289.355,273.235 289.356,273.237 C289.362,273.255 289.368,273.274 289.375,273.292 C289.376,273.295 289.377,273.299 289.378,273.303 C289.384,273.321 289.391,273.34 289.397,273.358 L289.398,273.361 C289.403,273.378 289.41,273.398 289.416,273.415 C289.416,273.417 289.418,273.424 289.419,273.426 C289.425,273.444 289.431,273.461 289.437,273.48 C289.438,273.483 289.44,273.487 289.441,273.491 C289.447,273.509 289.453,273.528 289.459,273.547 C289.46,273.55 289.461,273.554 289.462,273.557 C289.588,273.948 289.583,274.434 289.482,274.992 C288.835,275.728 287.212,276.111 285.024,276.111" id="Fill-136" fill="#4E535F"></path>
                        <path d="M225.375,372.164 L239.084,373.287 C239.998,373.362 240.806,372.676 240.881,371.762 L241.07,369.462 C241.144,368.548 240.458,367.74 239.545,367.665 L225.835,366.542 C224.922,366.467 224.113,367.153 224.038,368.067 L223.85,370.367 C223.775,371.28 224.461,372.089 225.375,372.164" id="Fill-137" fill="#4C4C4C"></path>
                        <path d="M289.416,194.87 C289.631,196.461 290.753,197.623 291.923,197.465 C293.093,197.307 293.867,195.889 293.652,194.297 C293.437,192.706 292.315,191.544 291.145,191.702 C289.975,191.86 289.201,193.278 289.416,194.87" id="Fill-138" fill="#353535"></path>
                        <path d="M309.948,200.878 C309.379,202.124 308.183,202.849 306.354,202.384 C305.09,202.063 304.627,200.801 304.627,200.801 C304.627,200.801 304.647,202.401 302.606,202.203 C300.476,201.996 300.264,200.669 300.264,200.669 C300.264,200.669 299.467,202.176 296.889,201.688 C295.177,201.365 295.188,200.41 295.188,200.41 C295.188,200.41 294.02,201.385 292.411,200.802 C288.801,199.494 290.167,197 291.531,197.474 C292.535,197.822 294.07,195.832 293.208,193.708 C291.375,189.188 289.458,193.521 289.458,193.521 C288.681,191.563 290.276,188.459 292.48,187.687 C301.693,184.462 315.539,188.648 309.948,200.878" id="Fill-139" fill="#E7A387"></path>
                        <path d="M227.457,265.732 L233.463,265.732 C234.013,265.732 234.463,265.282 234.463,264.732 L234.463,264.198 C234.463,263.648 234.013,263.198 233.463,263.198 L227.457,263.198 C226.907,263.198 226.457,263.648 226.457,264.198 L226.457,264.732 C226.457,265.282 226.907,265.732 227.457,265.732" id="Fill-140" fill="#383838"></path>
                        <path d="M331.533,229.919 C332.954,229.819 334.329,229.85 335.502,230.104 L338.602,241.159 C337.647,241.334 336.697,241.551 335.765,241.797 C334.24,242.201 332.67,241.349 332.232,239.834 C331.491,237.269 330.746,234.705 329.996,232.143 C329.685,231.082 330.43,229.997 331.533,229.919" id="Fill-143" fill="#DD1B5C"></path>
                        <path d="M234.064,369.914 C234.064,370.674 233.345,371.289 232.457,371.289 C231.57,371.289 230.851,370.674 230.851,369.914 C230.851,369.155 231.57,368.539 232.457,368.539 C233.345,368.539 234.064,369.155 234.064,369.914" id="Fill-158" fill="#353535"></path>
                    </g>
                </g>
            </g>
        </g>
    </g>
</svg>