<?xml version="1.0" encoding="UTF-8"?>
<svg width="250px" height="250px" viewBox="0 0 250 250" version="1.1" xmlns="http://www.w3.org/2000/svg" xmlns:xlink="http://www.w3.org/1999/xlink">
    <!-- Generator: Sketch 48.2 (47327) - http://www.bohemiancoding.com/sketch -->
    <title>lifehack/train</title>
    <desc>Created with Sketch.</desc>
    <defs>
        <circle id="path-1" cx="125" cy="125" r="125"></circle>
        <polygon id="path-3" points="0 0.07 1050 0.07 1050 700 0 700"></polygon>
        <polygon id="path-5" points="0 1.60475 1050 1.60475 1050 327.25 0 327.25"></polygon>
        <polygon id="path-7" points="0.6825 0.68425 827.75 0.68425 827.75 73.25325 0.6825 73.25325"></polygon>
    </defs>
    <g id="+poputchik-laifhak-ver2-1440" stroke="none" stroke-width="1" fill="none" fill-rule="evenodd" transform="translate(-539.000000, -3872.000000)">
        <g id="comfort" transform="translate(69.000000, 2874.000000)">
            <g id="lifehack/train" transform="translate(470.000000, 998.000000)">
                <mask id="mask-2" fill="white">
                    <use xlink:href="#path-1"></use>
                </mask>
                <use id="Mask" fill="#D8D8D8" xlink:href="#path-1"></use>
                <g id="shutterstock_264525392" mask="url(#mask-2)">
                    <g transform="translate(-180.000000, 0.000000) scale(-1, 1) translate(180.000000, -0.000000) translate(-705.000000, -350.000000)">
                        <g id="Group-6" stroke-width="1" fill="none">
                            <mask id="mask-4" fill="white">
                                <use xlink:href="#path-3"></use>
                            </mask>
                            <g id="Clip-2"></g>
                            <polygon id="Fill-1" fill="#C4F3FF" mask="url(#mask-4)" points="0 700 1050 700 1050 0.07 0 0.07"></polygon>
                            <path d="M1049.426,342.286 C1044.3895,347.788 1038.64775,350.93625 1032.066,349.31925 C1009.715,343.82425 996.33275,328.49775 983.5595,315.67725 C970.78625,302.85675 951.62725,273.553 942.04775,273.45325 C937.76725,273.40775 911.176,291.90875 879.43275,310.4115 C840.147,333.3085 792.9705,356.2055 770.434,343.94675 C764.03775,340.466 707.71925,248.51225 699.73575,252.175 C691.75225,255.83775 644.67025,331.45525 607.92375,350 C587.73575,329.8505 574.0315,308.65625 567.71575,309.771 C560.9835,306.29025 524.07425,346.00475 511.83475,351.89525 C485.46925,364.58275 470.32475,381.199 447.972,375.704 C425.621,370.21075 400.0745,331.7475 387.303,318.927 C374.52975,306.1065 355.37075,276.80275 345.79125,276.703 C336.21175,276.60325 313.86075,317.0965 304.28125,336.2765 C294.70175,355.45825 285.12225,383.0295 272.349,384.86175 C259.5775,386.69225 235.62875,346.40025 235.62875,346.40025 C235.62875,346.40025 210.084,326.25425 205.29425,320.75925 C200.5045,315.26425 170.16825,278.635 157.39675,276.80275 C144.6235,274.97225 111.09525,329.917 103.1135,333.57975 C95.13,337.2425 82.35675,300.61325 79.16475,296.9505 C75.971,293.28775 71.18125,282.29775 63.19775,296.9505 C55.216,311.6015 0.93275,395.85 0.93275,395.85 L0.93275,441.637 L243.6105,463.61525 L574.68425,424.2315 L579.397,439.341 L822.07475,461.31925 L1049.426,434.273 L1049.426,342.286" id="Fill-3" fill="#BABABA" mask="url(#mask-4)"></path>
                            <path d="M670.97625,457.716 L689.22,457.716 L670.97625,418.16425 L684.62975,418.16425 L652.7325,366.338 L628.96225,404.96225 C626.16575,401.5235 624.358,399.511 624.358,399.511 C624.358,399.511 614.4985,410.48875 605.066,425.17825 C604.24525,419.825 603.14275,414.78675 601.7725,410.21225 C602.3045,405.90025 602.595,401.3625 602.595,396.67425 C602.595,368.543 592.3575,345.737 579.7295,345.737 C567.09975,345.737 556.86225,368.543 556.86225,396.67425 C556.86225,401.3625 557.15275,405.90025 557.68475,410.21225 C556.17275,415.25925 554.9705,420.85225 554.134,426.83375 C552.6605,425.1555 550.84925,423.89375 548.82625,423.22875 C545.72175,418.47925 541.982,415.7055 537.95875,415.7055 C534.04225,415.7055 530.4005,418.341 527.345,422.86125 C527.0195,422.919 526.701,422.99775 526.38425,423.08525 L516.9885,407.82 L512.28625,415.4605 L488.19575,376.3165 L465.91125,412.5275 C462.5355,408.10525 458.62075,405.5695 454.44525,405.5695 C449.82525,405.5695 445.52725,408.67925 441.92225,414.0115 C434.8155,415.268 429.35725,422.562 429.35725,431.39775 C429.35725,432.761 429.499,434.08225 429.74575,435.358 C428.86725,436.19625 428.0535,437.1535 427.27475,438.1615 C423.17275,432.86425 420.2135,429.569 420.2135,429.569 C420.2135,429.569 413.16625,437.409 405.72175,448.40425 L394.30125,423.6435 L409.6015,423.6435 L373.8525,365.55575 L345.06325,412.33325 C343.27475,411.31825 341.40925,410.75475 339.4825,410.75475 C334.8625,410.75475 330.56275,413.8645 326.9595,419.19675 C324.24875,419.67625 321.7795,421.0395 319.76,423.02575 C319.28225,421.02025 318.7765,419.055 318.21475,417.18425 C318.77825,412.63425 319.0845,407.848 319.0845,402.90075 C319.0845,373.22075 308.2835,349.16 294.959,349.16 C281.63625,349.16 270.83525,373.22075 270.83525,402.90075 C270.83525,407.848 271.1415,412.63425 271.70325,417.18425 C269.4685,424.641 267.8865,433.23525 267.10425,442.505 L247.842,411.2045 L236.4215,429.7615 L228.7845,413.203 L242.59725,413.203 L210.3255,360.76425 L184.093,403.38725 L170.268,380.926 L154.686,406.24675 C151.20175,395.6505 145.58075,388.76425 139.2335,388.76425 C128.66,388.76425 120.09025,407.85675 120.09025,431.4065 C120.09025,434.62125 120.28975,437.71875 120.59425,440.72875 C119.75075,441.61425 119.0105,442.62925 118.391,443.751 C117.565,436.85425 116.2665,430.42125 114.55325,424.70575 C115.08175,420.42875 115.36875,415.9295 115.36875,411.278 C115.36875,383.376 105.21525,360.759 92.6905,360.759 C80.164,360.759 70.0105,383.376 70.0105,411.278 C70.0105,415.9295 70.29925,420.42875 70.82775,424.70575 C69.314,429.7545 68.11175,435.351 67.28225,441.34125 C57.40875,425.621 46.6655,413.6615 46.6655,413.6615 C46.6655,413.6615 39.45725,421.6835 31.4265,433.22125 L12.0715,401.77375 L-15.93375,447.27725 L-3.94625,447.27725 L-19.96575,482.006 L-3.94625,482.006 L-28.24675,521.52275 L-5.551,521.52275 L-5.551,551.09425 L685.671,551.09425 L685.671,502.7225 L698.6525,502.7225 L670.97625,457.716" id="Fill-4" fill="#57652C" mask="url(#mask-4)"></path>
                        </g>
                        <polygon id="Fill-23" fill="#5B381C" points="308.38675 510.61675 313.495 510.61675 313.495 487.669 308.38675 487.669"></polygon>
                        <polyline id="Fill-24" fill="#99B324" points="326.16325 445.84225 341.3865 445.84225 326.16325 408.80525 337.55575 408.80525 310.94175 360.2725 284.32775 408.80525 295.7185 408.80525 280.49525 445.84225 295.7185 445.84225 272.62725 487.98925 349.25625 487.98925 326.16325 445.84225"></polyline>
                        <polygon id="Fill-25" fill="#55341A" points="310.94175 510.61675 313.495 510.61675 313.495 487.98925 310.94175 487.98925"></polygon>
                        <path d="M313.495,487.98925 L310.94175,487.98925 L310.94175,477.68 C311.794,475.04275 312.26825,472.12375 312.26825,469.0525 C312.26825,466.0005 311.787,463.10775 310.94175,460.481 L310.94175,458.997 C311.787,455.99575 312.26825,452.69 312.26825,449.20225 C312.26825,445.69175 311.794,442.35625 310.94175,439.3375 L310.94175,360.2725 L337.55575,408.80525 L326.16325,408.80525 L335.00775,430.3215 C328.391,440.19675 318.8815,456.71325 318.8815,470.07275 C318.8815,478.25925 320.481,484.02025 323.18825,487.98925 L313.495,487.98925" id="Fill-26" fill="#8EA621"></path>
                        <polygon id="Fill-61" fill="#5B381C" points="339.57875 510.61675 343.58975 510.61675 343.58975 492.59875 339.57875 492.59875"></polygon>
                        <path d="M347.16675,493.34075 L347.16675,495.04525 C347.16675,498.42975 344.41225,501.18075 341.0295,501.18075 L341.0295,502.23425 C344.99325,502.23425 348.22025,499.009 348.22025,495.04525 L348.22025,493.34075 L347.16675,493.34075" id="Fill-62" fill="#5B381C"></path>
                        <path d="M363.608,470.07275 C363.608,490.56 353.5945,495.8625 341.24475,495.8625 C328.89325,495.8625 318.8815,490.56 318.8815,470.07275 C318.8815,449.5855 341.24475,421.673 341.24475,421.673 C341.24475,421.673 363.608,449.5855 363.608,470.07275" id="Fill-63" fill="#7C9D49"></path>
                        <path d="M343.58975,500.62075 L343.58975,495.79425 L343.58975,500.605 C345.59525,499.67575 347.00225,497.7035 347.13175,495.38475 C347.1405,495.383 347.14925,495.38125 347.158,495.38125 C347.032,497.707 345.60225,499.69325 343.58975,500.62075" id="Fill-64" fill="#515E29"></path>
                        <path d="M343.58975,510.61675 L341.0295,510.61675 L341.0295,502.23425 C341.93075,502.23425 342.7935,502.06625 343.58975,501.76175 L343.58975,510.61675 M341.0295,501.18075 L341.0295,495.8625 C341.10125,495.8625 341.173,495.8625 341.24475,495.8625 C342.0375,495.8625 342.818,495.8415 343.58975,495.79425 L343.58975,500.62075 C342.80925,500.98125 341.943,501.18075 341.0295,501.18075" id="Fill-65" fill="#55341A"></path>
                        <path d="M341.0295,502.23425 L341.0295,501.18075 C341.943,501.18075 342.80925,500.98125 343.58975,500.62075 C345.60225,499.69325 347.032,497.707 347.158,495.38125 C347.51325,495.3165 347.865,495.2465 348.21325,495.1695 C348.16075,498.17775 346.255,500.7345 343.58975,501.75475 L343.58975,501.76175 C342.7935,502.06625 341.93075,502.23425 341.0295,502.23425" id="Fill-66" fill="#55341A"></path>
                        <path d="M363.55025,472.696 C363.55025,472.68725 363.55025,472.682 363.55025,472.67325 C363.55025,472.682 363.55025,472.689 363.55025,472.696 M363.55375,472.598 C363.55375,472.59275 363.5555,472.591 363.5555,472.58575 C363.5555,472.58925 363.55375,472.59275 363.55375,472.598 M363.56425,472.3425 C363.566,472.33375 363.566,472.32325 363.566,472.31625 C363.566,472.325 363.566,472.33375 363.56425,472.3425 M363.56775,472.24975 C363.5695,472.2375 363.5695,472.22525 363.5695,472.21475 C363.5695,472.22525 363.5695,472.23925 363.56775,472.24975 M363.57125,472.14825 C363.573,472.13775 363.573,472.12725 363.573,472.11675 C363.573,472.12725 363.573,472.13775 363.57125,472.14825 M363.58,471.891 C363.58,471.87875 363.58175,471.86825 363.58175,471.85775 C363.58175,471.86825 363.58,471.8805 363.58,471.891 M363.5835,471.7965 C363.5835,471.7825 363.5835,471.765 363.58525,471.751 C363.5835,471.76675 363.5835,471.78075 363.5835,471.7965 M363.587,471.695 C363.587,471.6775 363.587,471.6565 363.587,471.639 C363.587,471.65825 363.587,471.67575 363.587,471.695 M363.58875,471.5935 C363.58875,471.56725 363.5905,471.541 363.5905,471.513 C363.5905,471.53925 363.58875,471.56725 363.58875,471.5935 M363.59225,471.45175 C363.59225,471.429 363.594,471.40975 363.594,471.387 C363.594,471.40975 363.59225,471.43075 363.59225,471.45175 M363.594,471.34325 C363.59575,471.32225 363.59575,471.30125 363.59575,471.282 C363.59575,471.30125 363.59575,471.32225 363.594,471.34325 M363.5975,471.23475 C363.5975,471.21375 363.5975,471.191 363.5975,471.16825 C363.5975,471.191 363.5975,471.21375 363.5975,471.23475 M363.59925,471.128 C363.59925,471.09825 363.59925,471.06675 363.601,471.037 C363.59925,471.06675 363.59925,471.09825 363.59925,471.128 M363.601,470.995 C363.601,470.96875 363.601,470.94425 363.60275,470.918 C363.601,470.94425 363.601,470.96875 363.601,470.995 M363.60275,470.8795 C363.60275,470.85675 363.60275,470.8305 363.60275,470.80775 C363.60275,470.83225 363.60275,470.855 363.60275,470.8795 M363.6045,470.7675 C363.6045,470.743 363.6045,470.7185 363.6045,470.694 C363.6045,470.7185 363.6045,470.743 363.6045,470.7675 M363.6045,470.659 C363.60625,470.624 363.60625,470.59075 363.60625,470.55575 C363.60625,470.59075 363.60625,470.624 363.6045,470.659 M363.60625,470.5365 C363.60625,470.505 363.60625,470.47175 363.60625,470.44025 C363.60625,470.4735 363.60625,470.505 363.60625,470.5365 M363.60625,470.40875 C363.60625,470.3825 363.608,470.358 363.608,470.33175 C363.608,470.358 363.60625,470.3825 363.60625,470.40875 M363.608,470.29325 C363.608,470.267 363.608,470.2425 363.608,470.218 C363.608,470.2425 363.608,470.267 363.608,470.29325 M363.608,470.183 C363.608,470.14625 363.608,470.1095 363.608,470.07275 C363.608,470.1095 363.608,470.14625 363.608,470.183" id="Fill-67" fill="#515E29"></path>
                        <path d="M341.24475,495.8625 C341.173,495.8625 341.10125,495.8625 341.0295,495.8625 L341.0295,421.94775 C341.16075,421.77975 341.2395,421.68 341.24475,421.673 C341.24475,421.673 363.608,449.5855 363.608,470.07275 C363.608,470.1095 363.608,470.14625 363.608,470.183 C363.608,470.1935 363.608,470.20575 363.608,470.218 C363.608,470.2425 363.608,470.267 363.608,470.29325 C363.608,470.3055 363.608,470.3195 363.608,470.33175 C363.608,470.358 363.60625,470.3825 363.60625,470.40875 C363.60625,470.41925 363.60625,470.42975 363.60625,470.44025 C363.60625,470.47175 363.60625,470.505 363.60625,470.5365 C363.60625,470.54175 363.60625,470.5505 363.60625,470.55575 C363.60625,470.59075 363.60625,470.624 363.6045,470.659 C363.6045,470.67125 363.6045,470.68175 363.6045,470.694 C363.6045,470.7185 363.6045,470.743 363.6045,470.7675 C363.6045,470.77975 363.60275,470.79375 363.60275,470.80775 C363.60275,470.8305 363.60275,470.85675 363.60275,470.8795 C363.60275,470.89175 363.60275,470.90575 363.60275,470.918 C363.601,470.94425 363.601,470.96875 363.601,470.995 C363.601,471.009 363.601,471.023 363.601,471.037 C363.59925,471.06675 363.59925,471.09825 363.59925,471.128 C363.59925,471.142 363.5975,471.15425 363.5975,471.16825 C363.5975,471.191 363.5975,471.21375 363.5975,471.23475 C363.59575,471.2505 363.59575,471.26625 363.59575,471.282 C363.59575,471.30125 363.59575,471.32225 363.594,471.34325 C363.594,471.35725 363.594,471.373 363.594,471.387 C363.594,471.40975 363.59225,471.429 363.59225,471.45175 C363.59225,471.471 363.5905,471.49375 363.5905,471.513 C363.5905,471.541 363.58875,471.56725 363.58875,471.5935 C363.58875,471.60925 363.58875,471.62325 363.587,471.639 C363.587,471.6565 363.587,471.6775 363.587,471.695 C363.58525,471.71425 363.58525,471.73175 363.58525,471.751 C363.5835,471.765 363.5835,471.7825 363.5835,471.7965 C363.5835,471.81575 363.58175,471.83675 363.58175,471.85775 C363.58175,471.86825 363.58,471.87875 363.58,471.891 C363.57825,471.96625 363.5765,472.0415 363.573,472.11675 C363.573,472.12725 363.573,472.13775 363.57125,472.14825 C363.57125,472.171 363.57125,472.192 363.5695,472.21475 C363.5695,472.22525 363.5695,472.2375 363.56775,472.24975 C363.56775,472.2725 363.566,472.2935 363.566,472.31625 C363.566,472.32325 363.566,472.33375 363.56425,472.3425 C363.5625,472.42475 363.559,472.50525 363.5555,472.58575 C363.5555,472.591 363.55375,472.59275 363.55375,472.598 C363.55375,472.6225 363.552,472.64875 363.55025,472.67325 C363.55025,472.682 363.55025,472.68725 363.55025,472.696 C362.8905,487.2385 356.6605,493.2865 348.21325,495.16425 C348.21325,495.166 348.21325,495.16775 348.21325,495.1695 C347.865,495.2465 347.51325,495.3165 347.158,495.38125 C347.14925,495.38125 347.1405,495.383 347.13175,495.38475 C347.13175,495.383 347.13175,495.38125 347.1335,495.3795 C345.9855,495.58425 344.8025,495.72075 343.58975,495.7925 L343.58975,495.79425 C342.818,495.8415 342.0375,495.8625 341.24475,495.8625" id="Fill-68" fill="#739244"></path>
                        <polygon id="Fill-77" fill="#5B381C" points="286.041 510.61675 290.63125 510.61675 290.63125 490.483 286.041 490.483"></polygon>
                        <path d="M281.17075,489.37875 L281.17075,487.47475 L279.965,487.47475 L279.965,489.37875 C279.965,493.80975 283.65575,497.413 288.19525,497.413 L288.19525,496.237 C284.32075,496.237 281.17075,493.16225 281.17075,489.37875" id="Fill-78" fill="#5B381C"></path>
                        <path d="M294.7245,491.31075 L294.7245,493.21475 C294.7245,496.99825 291.57275,500.073 287.7,500.073 L287.7,501.249 C292.23775,501.249 295.93025,497.64575 295.93025,493.21475 L295.93025,491.31075 L294.7245,491.31075" id="Fill-79" fill="#5B381C"></path>
                        <path d="M312.26825,449.20225 C312.26825,440.7305 309.50675,433.26675 305.31375,428.869 C305.494,427.8505 305.59725,426.7935 305.59725,425.7015 C305.59725,419.223 302.24775,413.7805 297.69425,412.1425 C295.02025,407.659 291.80025,405.041 288.33525,405.041 C284.963,405.041 281.82525,407.5295 279.195,411.79425 C274.00625,412.8005 270.0215,418.635 270.0215,425.7015 C270.0215,426.7935 270.1265,427.8505 270.305,428.869 C266.112,433.26675 263.35225,440.7305 263.35225,449.20225 C263.35225,452.99975 263.92275,456.58025 264.9115,459.788 C263.92275,462.595 263.35225,465.72925 263.35225,469.0525 C263.35225,480.35575 269.76775,489.59225 277.9,490.40425 C280.7665,491.67825 284.389,492.44475 288.33525,492.44475 C292.56325,492.44475 296.415,491.5645 299.36725,490.1225 C306.69975,488.31475 312.26825,479.5805 312.26825,469.0525 C312.26825,465.72925 311.69775,462.595 310.70725,459.788 C311.69775,456.58025 312.26825,452.99975 312.26825,449.20225" id="Fill-80" fill="#497F0A"></path>
                        <path d="M290.63125,499.44825 L290.63125,499.42725 C292.97975,498.36675 294.6405,496.09 294.721,493.4195 C294.6405,496.0935 292.985,498.38775 290.63125,499.44825 M294.721,493.40375 C294.72275,493.39675 294.72275,493.38975 294.72275,493.38275 C294.72275,493.38975 294.72275,493.39675 294.721,493.40375 M294.72275,493.36 C294.72275,493.35475 294.72275,493.3495 294.72275,493.346 C294.72275,493.35125 294.72275,493.35475 294.72275,493.36 M294.7245,493.30925 C294.7245,493.304 294.7245,493.3005 294.7245,493.29525 C294.7245,493.3005 294.7245,493.304 294.7245,493.30925 M294.7245,493.26725 C294.7245,493.26375 294.7245,493.2585 294.7245,493.255 C294.7245,493.2585 294.7245,493.26375 294.7245,493.26725" id="Fill-81" fill="#515E29"></path>
                        <path d="M306.215,485.94175 C308.252,483.77525 309.8865,480.942 310.94175,477.68 C309.8865,480.942 308.252,483.77525 306.215,485.94175 M310.94175,460.481 C310.8945,460.3375 310.84725,460.194 310.79825,460.05225 C310.84725,460.194 310.8945,460.3375 310.94175,460.481" id="Fill-82" fill="#8EA621"></path>
                        <path d="M310.94175,477.68 C311.794,475.041 312.26825,472.12375 312.26825,469.0525 C312.26825,466.0005 311.787,463.10775 310.94175,460.481 C311.787,463.10775 312.26825,466.0005 312.26825,469.0525 C312.26825,472.12375 311.794,475.04275 310.94175,477.68" id="Fill-83" fill="#849A1F"></path>
                        <path d="M310.70725,459.788 C310.78775,459.52725 310.8665,459.263 310.94175,458.997 C310.8665,459.263 310.78775,459.52725 310.70725,459.788 M310.94175,439.33925 C310.44825,437.5945 309.82875,435.95825 309.10075,434.45675 C309.82875,435.95825 310.44825,437.5945 310.94175,439.3375 L310.94175,439.33925" id="Fill-84" fill="#8EA621"></path>
                        <path d="M310.94175,458.997 C311.787,455.99575 312.26825,452.69 312.26825,449.20225 C312.26825,445.6935 311.794,442.35625 310.94175,439.33925 L310.94175,439.3375 C311.794,442.35625 312.26825,445.69175 312.26825,449.20225 C312.26825,452.69 311.787,455.99575 310.94175,458.997" id="Fill-85" fill="#849A1F"></path>
                        <path d="M290.63125,510.61675 L287.81025,510.61675 L287.81025,501.24725 C288.8025,501.235 289.75275,501.05125 290.63125,500.72225 L290.63125,510.61675 M287.81025,500.073 L287.81025,497.40425 C287.938,497.4095 288.06575,497.413 288.19525,497.413 L288.19525,496.237 C288.06575,496.237 287.93625,496.2335 287.81025,496.2265 L287.81025,492.4395 C287.98525,492.443 288.16025,492.44475 288.33525,492.44475 C289.114,492.44475 289.8805,492.415 290.63125,492.35725 L290.63125,499.429 L290.63125,499.42725 L290.63125,499.44825 C289.77025,499.835 288.81475,500.05725 287.81025,500.073" id="Fill-86" fill="#55341A"></path>
                        <path d="M288.19525,497.413 C288.06575,497.413 287.938,497.4095 287.81025,497.40425 L287.81025,496.2265 C287.93625,496.2335 288.06575,496.237 288.19525,496.237 L288.19525,497.413" id="Fill-87" fill="#55341A"></path>
                        <path d="M287.81025,501.24725 L287.81025,500.073 C288.81475,500.05725 289.77025,499.835 290.63125,499.44825 C292.985,498.38775 294.6405,496.0935 294.721,493.4195 C294.721,493.41425 294.721,493.409 294.721,493.40375 C294.72275,493.39675 294.72275,493.38975 294.72275,493.38275 C294.72275,493.37575 294.72275,493.367 294.72275,493.36 C294.72275,493.35475 294.72275,493.35125 294.72275,493.346 C294.72275,493.33375 294.72275,493.3215 294.7245,493.30925 C294.7245,493.304 294.7245,493.3005 294.7245,493.29525 C294.7245,493.2865 294.7245,493.276 294.7245,493.26725 C294.7245,493.26375 294.7245,493.2585 294.7245,493.255 C294.7245,493.24275 294.7245,493.22875 294.7245,493.21475 L294.7245,491.736 C295.134,491.6415 295.5365,491.5365 295.93025,491.4245 L295.93025,493.21475 C295.93025,496.63425 293.72,499.541 290.63125,500.69775 L290.63125,500.72225 C289.75275,501.05125 288.8025,501.235 287.81025,501.24725" id="Fill-88" fill="#55341A"></path>
                        <path d="M288.33525,492.44475 C288.16025,492.44475 287.98525,492.443 287.81025,492.4395 L287.81025,405.09 C287.98525,405.076 288.1585,405.041 288.33525,405.041 C291.80025,405.041 295.02025,407.659 297.69425,412.1425 C302.24775,413.7805 305.59725,419.223 305.59725,425.7015 C305.59725,425.8205 305.5955,425.9395 305.59375,426.0585 C305.5745,427.02275 305.473,427.96075 305.31375,428.869 C306.76625,430.39325 308.04725,432.28325 309.10075,434.45675 C309.82875,435.95825 310.44825,437.5945 310.94175,439.33925 C311.794,442.35625 312.26825,445.6935 312.26825,449.20225 C312.26825,452.69 311.787,455.99575 310.94175,458.997 C310.8665,459.263 310.78775,459.52725 310.70725,459.788 C310.73875,459.8755 310.7685,459.96475 310.79825,460.05225 C310.84725,460.194 310.8945,460.3375 310.94175,460.481 C311.787,463.10775 312.26825,466.0005 312.26825,469.0525 C312.26825,472.12375 311.794,475.041 310.94175,477.68 C309.8865,480.942 308.252,483.77525 306.215,485.94175 C304.2515,488.0295 301.91525,489.49425 299.3655,490.1225 C298.33475,490.6265 297.1605,491.0325 295.93025,491.386 L295.93025,491.4245 C295.5365,491.5365 295.134,491.6415 294.7245,491.736 L294.7245,491.715 C293.433,492.016 292.061,492.21375 290.63125,492.32575 L290.63125,492.35725 C289.8805,492.415 289.114,492.44475 288.33525,492.44475" id="Fill-89" fill="#447609"></path>
                        <polygon id="Fill-104" fill="#5B381C" points="94.73275 510.61675 98.75075 510.61675 98.75075 492.569 94.73275 492.569"></polygon>
                        <path d="M91.4025,492.93125 L91.4025,491.225 L90.34725,491.225 L90.34725,492.93125 C90.34725,496.902 93.57775,500.1325 97.55025,500.1325 L97.55025,499.079 C94.1605,499.079 91.4025,496.321 91.4025,492.93125" id="Fill-105" fill="#5B381C"></path>
                        <path d="M116.70575,441.7805 C116.70575,430.549 115.36175,420.14875 113.0815,411.60875 C113.477,408.0195 113.69225,404.2465 113.69225,400.34575 C113.69225,376.94125 106.1025,357.96775 96.74175,357.96775 C87.37925,357.96775 79.79125,376.94125 79.79125,400.34575 C79.79125,404.2465 80.00475,408.0195 80.40025,411.60875 C78.12,420.14875 76.776,430.549 76.776,441.7805 C76.776,470.80075 73.9305,494.6375 96.74175,494.326 C119.55125,494.01625 116.70575,470.80075 116.70575,441.7805" id="Fill-106" fill="#8DB109"></path>
                        <path d="M98.749,510.61675 L96.74175,510.61675 L96.74175,500.087 C97.00775,500.11675 97.27725,500.1325 97.55025,500.1325 L97.55025,499.079 C97.2755,499.079 97.006,499.0615 96.74175,499.0265 L96.74175,494.326 C97.43475,494.31725 98.10325,494.2875 98.749,494.235 L98.749,510.61675" id="Fill-107" fill="#55341A"></path>
                        <path d="M97.55025,500.1325 C97.27725,500.1325 97.00775,500.11675 96.74175,500.087 L96.74175,499.0265 C97.006,499.0615 97.2755,499.079 97.55025,499.079 L97.55025,500.1325" id="Fill-108" fill="#55341A"></path>
                        <path d="M115.96025,427.54075 C115.70125,425.1065 115.37575,422.744 114.99075,420.46725 C114.99075,420.4655 114.99075,420.4655 114.99075,420.4655 C115.37575,422.74225 115.70125,425.1065 115.962,427.539 C115.96025,427.54075 115.962,427.539 115.96025,427.54075" id="Fill-109" fill="#ADADAD"></path>
                        <path d="M114.99075,420.46725 C114.46225,417.34175 113.82,414.37725 113.0815,411.60875 C113.386,408.8385 113.58375,405.95975 113.659,402.997 C113.58375,405.95975 113.386,408.84025 113.0815,411.60875 C113.82175,414.37725 114.46225,417.34175 114.99075,420.4655 C114.99075,420.4655 114.99075,420.4655 114.99075,420.46725 M113.68875,399.658 C113.6835,398.881 113.67125,398.10575 113.65025,397.33925 C113.67125,398.1075 113.6835,398.87925 113.68875,399.658" id="Fill-110" fill="#515E29"></path>
                        <path d="M113.10425,389.2455 C112.76825,386.1515 112.2975,383.1975 111.706,380.42725 C112.2975,383.1975 112.77,386.1515 113.10425,389.2455" id="Fill-111" fill="#ADADAD"></path>
                        <path d="M113.638,396.93325 C113.554,394.29425 113.372,391.72525 113.10425,389.2455 C113.372,391.72525 113.554,394.29425 113.638,396.93325" id="Fill-112" fill="#515E29"></path>
                        <path d="M96.74175,494.326 L96.74175,357.96775 C103.0855,357.9695 108.6155,366.68275 111.52225,379.5855 C111.52225,379.589 111.524,379.59425 111.524,379.59775 C111.566,379.77975 111.60625,379.96175 111.6465,380.1455 C111.6465,380.149 111.6465,380.1525 111.64825,380.156 C111.65525,380.191 111.66225,380.22425 111.671,380.25925 C111.67625,380.289 111.68325,380.3205 111.69025,380.35025 C111.6955,380.3765 111.70075,380.40275 111.706,380.42725 C112.2975,383.1975 112.76825,386.1515 113.10425,389.2455 C113.372,391.72525 113.554,394.29425 113.638,396.93325 C113.6415,397.06625 113.645,397.2045 113.65025,397.33925 C113.67125,398.10575 113.6835,398.881 113.68875,399.658 C113.6905,399.88725 113.69225,400.11475 113.69225,400.34575 C113.69225,401.2365 113.68,402.12025 113.659,402.997 C113.58375,405.95975 113.386,408.8385 113.0815,411.60875 C113.82,414.37725 114.46225,417.34175 114.99075,420.46725 C115.37575,422.744 115.70125,425.1065 115.96025,427.54075 C114.97325,429.53225 114.3975,431.9245 114.3975,434.497 C114.3975,435.47525 114.4885,436.422 114.646,437.33725 C110.9745,441.27825 108.5595,447.97025 108.5595,455.5635 C108.5595,458.96725 109.05825,462.1785 109.9245,465.05375 C109.05825,467.57025 108.5595,470.379 108.5595,473.3575 C108.5595,478.47975 109.9945,483.12775 112.33425,486.5665 C109.6585,490.973 105.4235,493.70475 98.749,494.23325 L98.749,494.235 C98.10325,494.2875 97.43475,494.31725 96.74175,494.326" id="Fill-113" fill="#83A508"></path>
                        <polygon id="Fill-114" fill="#5B381C" points="253.70275 510.61675 258.419 510.61675 258.419 489.43475 253.70275 489.43475"></polygon>
                        <path d="M249.795,489.86 L249.795,487.85625 L248.556,487.85625 L248.556,489.86 C248.556,494.52025 252.34825,498.31075 257.01025,498.31075 L257.01025,497.07525 C253.0325,497.07525 249.795,493.8395 249.795,489.86" id="Fill-115" fill="#5B381C"></path>
                        <path d="M279.4925,429.8245 C279.4925,416.64175 277.91575,404.4355 275.23825,394.4115 C275.702,390.201 275.95575,385.77175 275.95575,381.192 C275.95575,353.724 267.04825,331.45525 256.06,331.45525 C245.0735,331.45525 236.166,353.724 236.166,381.192 C236.166,385.77175 236.418,390.201 236.88175,394.4115 C234.206,404.4355 232.62925,416.64175 232.62925,429.8245 C232.62925,463.88475 229.2885,491.862 256.06,491.49625 C282.83325,491.13225 279.4925,463.88475 279.4925,429.8245" id="Fill-116" fill="#8DB109"></path>
                        <path d="M258.419,510.61675 L256.06175,510.61675 L256.06175,498.25825 C256.37325,498.29325 256.69,498.31075 257.01025,498.31075 L257.01025,497.07525 C256.68825,497.07525 256.3715,497.05425 256.06175,497.01225 L256.06175,491.49625 C256.87375,491.48575 257.6595,491.45075 258.419,491.3895 L258.419,510.61675" id="Fill-117" fill="#55341A"></path>
                        <path d="M279.49425,431.32775 C279.49425,431.3225 279.49425,431.31375 279.49425,431.3085 C279.49425,431.3155 279.49425,431.32075 279.49425,431.32775 M279.49425,431.21925 L279.49425,431.21575 L279.49425,431.21925 M279.49425,431.13 C279.49425,431.123 279.49425,431.11775 279.49425,431.11075 C279.49425,431.1195 279.49425,431.12125 279.49425,431.13 M279.4925,431.01975 L279.4925,431.01625 L279.4925,431.01975 M279.4925,430.955 C279.4925,430.9375 279.4925,430.92175 279.4925,430.9025 C279.4925,430.92175 279.4925,430.9375 279.4925,430.955 M279.4925,430.84125 C279.4925,430.829 279.4925,430.82025 279.4925,430.808 C279.4925,430.82025 279.4925,430.83075 279.4925,430.84125 M279.4925,430.75725 C279.4925,430.73975 279.4925,430.72225 279.4925,430.7065 C279.4925,430.724 279.4925,430.738 279.4925,430.75725 M279.4925,430.6365 C279.4925,430.6295 279.4925,430.62425 279.4925,430.6155 C279.4925,430.6225 279.4925,430.6295 279.4925,430.6365 M279.4925,430.56475 C279.4925,430.5455 279.4925,430.5245 279.4925,430.507 C279.4925,430.52625 279.4925,430.54375 279.4925,430.56475 M279.4925,430.479 C279.4925,430.42475 279.4925,430.36875 279.4925,430.31625 C279.4925,430.3705 279.4925,430.42475 279.4925,430.479 M279.4925,430.23225 C279.4925,430.22875 279.4925,430.22525 279.4925,430.22175 C279.4925,430.22525 279.4925,430.22875 279.4925,430.23225" id="Fill-118" fill="#447609"></path>
                        <path d="M278.4915,411.96225 C277.76175,405.62025 276.654,399.71225 275.23825,394.4115 C275.702,390.201 275.95575,385.77175 275.95575,381.192 C275.95575,385.77175 275.702,390.201 275.24,394.4115 C276.654,399.71225 277.76175,405.62025 278.4915,411.96225" id="Fill-119" fill="#515E29"></path>
                        <path d="M279.342,422.81925 C279.181,419.08825 278.894,415.4605 278.4915,411.96225 C278.894,415.4605 279.181,419.08825 279.342,422.81925" id="Fill-120" fill="#447609"></path>
                        <path d="M275.5375,371.014 C274.44725,357.90125 271.292,346.68375 266.959,339.577 C271.292,346.682 274.44725,357.903 275.5375,371.014" id="Fill-121" fill="#B6E2ED"></path>
                        <path d="M275.92425,378.37975 C275.86825,375.87025 275.737,373.40975 275.5375,371.014 C275.737,373.4115 275.86825,375.87025 275.92425,378.37975" id="Fill-122" fill="#515E29"></path>
                        <path d="M257.01025,498.31075 C256.69,498.31075 256.37325,498.29325 256.06175,498.25825 L256.06175,497.01225 C256.3715,497.05425 256.68825,497.07525 257.01025,497.07525 L257.01025,498.31075" id="Fill-124" fill="#55341A"></path>
                        <path d="M256.06175,491.49625 L256.06175,331.45525 C256.06525,331.45525 256.06875,331.45525 256.07225,331.45525 C256.07925,331.45525 256.08625,331.45525 256.09325,331.45525 C260.07275,331.47275 263.7775,334.40925 266.88375,339.4545 C266.889,339.4615 266.8925,339.4685 266.89775,339.4755 C266.90125,339.4825 266.90475,339.48775 266.91,339.49475 C266.9135,339.50175 266.917,339.507 266.9205,339.514 C266.92575,339.521 266.92925,339.528 266.9345,339.53675 C266.94325,339.549 266.95025,339.56125 266.95725,339.57525 C266.959,339.57525 266.959,339.57525 266.959,339.577 C271.292,346.68375 274.44725,357.90125 275.5375,371.014 C275.737,373.40975 275.86825,375.87025 275.92425,378.37975 C275.926,378.45675 275.92775,378.5355 275.9295,378.6125 C275.933,378.78925 275.93475,378.96425 275.93825,379.141 C275.94875,379.82175 275.95575,380.506 275.95575,381.192 C275.95575,385.77175 275.702,390.201 275.23825,394.4115 C276.654,399.71225 277.76175,405.62025 278.4915,411.96225 C278.894,415.4605 279.181,419.08825 279.342,422.81925 C279.44175,425.11875 279.4925,427.455 279.4925,429.8245 C279.4925,429.9575 279.4925,430.08875 279.4925,430.22175 C279.4925,430.22525 279.4925,430.22875 279.4925,430.23225 C279.4925,430.2585 279.4925,430.29 279.4925,430.31625 C279.4925,430.36875 279.4925,430.42475 279.4925,430.479 C279.4925,430.48775 279.4925,430.4965 279.4925,430.507 C279.4925,430.5245 279.4925,430.5455 279.4925,430.56475 C279.4925,430.5805 279.4925,430.59975 279.4925,430.6155 C279.4925,430.62425 279.4925,430.6295 279.4925,430.6365 C279.4925,430.65925 279.4925,430.68375 279.4925,430.7065 C279.4925,430.72225 279.4925,430.73975 279.4925,430.75725 C279.4925,430.773 279.4925,430.79225 279.4925,430.808 C279.4925,430.82025 279.4925,430.829 279.4925,430.84125 C279.4925,430.86225 279.4925,430.88325 279.4925,430.9025 C279.4925,430.92175 279.4925,430.9375 279.4925,430.955 C279.4925,430.976 279.4925,430.997 279.4925,431.01625 L279.4925,431.01975 C279.4925,431.0495 279.49425,431.081 279.49425,431.11075 C279.49425,431.11775 279.49425,431.123 279.49425,431.13 C279.49425,431.158 279.49425,431.18775 279.49425,431.21575 L279.49425,431.21925 C279.49425,431.249 279.49425,431.27875 279.49425,431.3085 C279.49425,431.31375 279.49425,431.3225 279.49425,431.32775 C279.58175,463.65375 282.261,489.496 258.419,491.38775 L258.419,491.3895 C257.6595,491.45075 256.87375,491.48575 256.06,491.49625" id="Fill-125" fill="#83A508"></path>
                        <polygon id="Fill-143" fill="#5B381C" points="128.4185 510.61675 132.4365 510.61675 132.4365 492.569 128.4185 492.569"></polygon>
                        <path d="M124.1555,491.58025 L124.1555,489.87225 L123.102,489.87225 L123.102,491.58025 C123.102,495.551 126.3325,498.7815 130.305,498.7815 L130.305,497.728 C126.9135,497.728 124.1555,494.97 124.1555,491.58025" id="Fill-144" fill="#5B381C"></path>
                        <path d="M136.0205,493.311 L136.0205,495.01725 C136.0205,498.40875 133.26075,501.165 129.871,501.165 L129.871,502.2185 C133.8435,502.2185 137.074,498.98975 137.074,495.01725 L137.074,493.311 L136.0205,493.311" id="Fill-145" fill="#5B381C"></path>
                        <path d="M151.375,455.5635 C151.375,447.97025 148.96,441.27825 145.2885,437.33725 C145.446,436.422 145.537,435.47525 145.537,434.497 C145.537,428.68875 142.60575,423.8115 138.61925,422.3415 C136.2795,418.3235 133.46025,415.97675 130.4275,415.97675 C127.47525,415.97675 124.7295,418.20625 122.4265,422.03 C117.88525,422.93125 114.3975,428.162 114.3975,434.497 C114.3975,435.47525 114.4885,436.422 114.646,437.33725 C110.9745,441.27825 108.5595,447.97025 108.5595,455.5635 C108.5595,458.96725 109.05825,462.1785 109.9245,465.05375 C109.05825,467.57025 108.5595,470.379 108.5595,473.3575 C108.5595,483.49 114.17525,491.76925 121.29425,492.49725 C123.802,493.64 126.973,494.326 130.4275,494.326 C134.12875,494.326 137.49925,493.5385 140.08225,492.24525 C146.503,490.62475 151.375,482.7935 151.375,473.3575 C151.375,470.379 150.87625,467.57025 150.01,465.05375 C150.87625,462.1785 151.375,458.96725 151.375,455.5635" id="Fill-146" fill="#497F0A"></path>
                        <path d="M132.4365,510.61675 L129.96725,510.61675 L129.96725,502.2185 C130.83525,502.20625 131.66825,502.04175 132.4365,501.74775 L132.4365,510.61675" id="Fill-147" fill="#55341A"></path>
                        <path d="M132.4365,500.605 L132.4365,494.249 L132.4365,500.5875 C134.49275,499.6355 135.947,497.59325 136.017,495.19925 C135.947,497.59675 134.498,499.65475 132.4365,500.605" id="Fill-148" fill="#515E29"></path>
                        <path d="M129.96725,501.165 L129.96725,498.77275 C130.07925,498.778 130.19125,498.7815 130.305,498.7815 L130.305,497.728 C130.19125,497.728 130.07925,497.7245 129.96725,497.7175 L129.96725,494.3225 C130.1195,494.326 130.2735,494.326 130.4275,494.326 C131.11,494.326 131.78025,494.29975 132.4365,494.249 L132.4365,500.605 C131.68225,500.9515 130.8475,501.151 129.96725,501.165" id="Fill-149" fill="#55341A"></path>
                        <path d="M137.0705,495.27625 C137.0705,495.27275 137.0705,495.2675 137.0705,495.26225 C137.0705,495.2675 137.0705,495.27275 137.0705,495.27625 M137.0705,495.2395 C137.07225,495.2325 137.07225,495.2255 137.07225,495.22025 C137.07225,495.2255 137.07225,495.2325 137.0705,495.2395 M137.07225,495.19925 C137.07225,495.18525 137.07225,495.173 137.074,495.16075 C137.07225,495.173 137.07225,495.18525 137.07225,495.19925 M136.017,495.187 C136.017,495.18 136.017,495.173 136.01875,495.16775 C136.017,495.173 136.017,495.18 136.017,495.187 M136.01875,495.1485 C136.01875,495.145 136.01875,495.13975 136.01875,495.1345 C136.01875,495.13975 136.01875,495.145 136.01875,495.1485 M137.074,495.14675 C137.074,495.138 137.074,495.1275 137.074,495.117 C137.074,495.1275 137.074,495.138 137.074,495.14675 M137.074,495.103 C137.074,495.0925 137.074,495.082 137.074,495.07325 C137.074,495.082 137.074,495.0925 137.074,495.103 M136.01875,495.10125 C136.01875,495.09775 136.01875,495.09425 136.01875,495.089 C136.01875,495.09425 136.01875,495.09775 136.01875,495.10125 M136.0205,495.0645 C136.0205,495.061 136.0205,495.0575 136.0205,495.054 C136.0205,495.0575 136.0205,495.061 136.0205,495.0645 M137.074,495.061 C137.074,495.047 137.074,495.03125 137.074,495.01725 L137.074,493.4125 L137.074,495.01725 C137.074,495.03125 137.074,495.047 137.074,495.061 M140.03675,492.268 C140.05075,492.261 140.0665,492.254 140.08225,492.24525 C140.0665,492.254 140.05075,492.261 140.03675,492.268 M147.39375,486.86575 C149.85425,483.399 151.375,478.6285 151.375,473.3575 C151.375,471.7335 151.22625,470.16025 150.9515,468.657 C151.22625,470.16025 151.375,471.7335 151.375,473.3575 C151.375,478.6285 149.85425,483.399 147.39375,486.86575 M150.01,465.05375 C150.08875,464.7895 150.16575,464.52175 150.23925,464.25225 C150.16575,464.52175 150.08875,464.7895 150.01,465.05375 M150.90775,461.195 C151.2105,459.3995 151.375,457.513 151.375,455.5635 C151.375,448.05775 149.016,441.43575 145.41625,437.47725 C149.016,441.43575 151.375,448.05775 151.375,455.5635 C151.375,457.513 151.21225,459.3995 150.90775,461.195" id="Fill-150" fill="#515E29"></path>
                        <path d="M130.305,498.7815 C130.19125,498.7815 130.07925,498.778 129.96725,498.77275 L129.96725,497.7175 C130.07925,497.7245 130.19125,497.728 130.305,497.728 L130.305,498.7815" id="Fill-151" fill="#55341A"></path>
                        <path d="M129.96725,502.2185 L129.96725,501.165 C130.8475,501.151 131.68225,500.9515 132.4365,500.605 C134.498,499.65475 135.947,497.59675 136.017,495.19925 C136.017,495.19575 136.017,495.1905 136.017,495.187 C136.017,495.18 136.017,495.173 136.01875,495.16775 C136.01875,495.16075 136.01875,495.1555 136.01875,495.1485 C136.01875,495.145 136.01875,495.13975 136.01875,495.1345 C136.01875,495.124 136.01875,495.11175 136.01875,495.10125 C136.01875,495.09775 136.01875,495.09425 136.01875,495.089 C136.01875,495.082 136.01875,495.07325 136.0205,495.0645 C136.0205,495.061 136.0205,495.0575 136.0205,495.054 C136.0205,495.04175 136.0205,495.0295 136.0205,495.01725 L136.0205,493.6925 C136.37925,493.60675 136.731,493.514 137.074,493.4125 L137.074,495.01725 C137.074,495.03125 137.074,495.047 137.074,495.061 C137.074,495.0645 137.074,495.068 137.074,495.07325 C137.074,495.082 137.074,495.0925 137.074,495.103 C137.074,495.10825 137.074,495.11175 137.074,495.117 C137.074,495.1275 137.074,495.138 137.074,495.14675 C137.074,495.152 137.074,495.1555 137.074,495.16075 C137.07225,495.173 137.07225,495.18525 137.07225,495.19925 C137.07225,495.20625 137.07225,495.21325 137.07225,495.22025 C137.07225,495.2255 137.07225,495.2325 137.0705,495.2395 C137.0705,495.2465 137.0705,495.25525 137.0705,495.26225 C137.0705,495.2675 137.0705,495.27275 137.0705,495.27625 C136.9655,498.23025 135.065,500.717 132.4365,501.725 L132.4365,501.74775 C131.66825,502.04175 130.83525,502.20625 129.96725,502.2185" id="Fill-152" fill="#55341A"></path>
                        <path d="M130.4275,494.326 C130.2735,494.326 130.1195,494.326 129.96725,494.3225 L129.96725,416.0205 L130.4275,415.97675 C133.46025,415.97675 136.27775,418.3235 138.61925,422.3415 C142.60575,423.8115 145.537,428.68875 145.537,434.497 C145.537,434.5425 145.537,434.588 145.53525,434.63525 C145.52825,435.5645 145.439,436.46575 145.2885,437.33725 C145.33225,437.38275 145.37425,437.43 145.41625,437.47725 C149.016,441.43575 151.375,448.05775 151.375,455.5635 C151.375,457.513 151.2105,459.3995 150.90775,461.195 C150.731,462.24675 150.507,463.267 150.23925,464.25225 C150.16575,464.52175 150.08875,464.7895 150.01,465.05375 C150.40375,466.19825 150.72225,467.40225 150.9515,468.657 C151.22625,470.16025 151.375,471.7335 151.375,473.3575 C151.375,478.6285 149.85425,483.399 147.39375,486.86575 C145.44775,489.6045 142.9155,491.5295 140.08225,492.24525 C140.0665,492.254 140.05075,492.261 140.03675,492.268 C139.14425,492.71075 138.13275,493.066 137.074,493.3775 L137.074,493.4125 C136.731,493.514 136.37925,493.60675 136.0205,493.6925 L136.0205,493.67325 C134.89,493.94275 133.6895,494.12125 132.4365,494.221 L132.4365,494.249 C131.78025,494.29975 131.11,494.326 130.4275,494.326" id="Fill-153" fill="#447609"></path>
                        <polygon id="Fill-154" fill="#5B381C" points="183.78675 510.61675 188.41725 510.61675 188.41725 489.81975 183.78675 489.81975"></polygon>
                        <polyline id="Fill-155" fill="#99B324" points="199.899 451.9095 213.696 451.9095 199.899 418.341 210.22225 418.341 186.102 374.35475 161.98 418.341 172.305 418.341 158.508 451.9095 172.305 451.9095 151.375 490.1085 220.82725 490.1085 199.899 451.9095"></polyline>
                        <polygon id="Fill-156" fill="#55341A" points="186.102 510.61675 188.41725 510.61675 188.41725 493.5385 186.102 493.5385"></polygon>
                        <polyline id="Fill-157" fill="#8EA621" points="186.102 489.314 186.102 374.35475 205.65125 410.00575 201.082 418.341 199.899 418.341 200.40475 419.57475 192.61725 433.776 201.215 433.776 189.72625 461.72875 201.215 461.72875 186.102 489.314"></polyline>
                        <polygon id="Fill-158" fill="#5B381C" points="210.777 510.61675 214.63225 510.61675 214.63225 493.297 210.777 493.297"></polygon>
                        <polyline id="Fill-159" fill="#91A25F" points="224.1925 461.72875 235.683 461.72875 224.1925 433.776 232.79025 433.776 212.70375 397.14675 192.61725 433.776 201.215 433.776 189.72625 461.72875 201.215 461.72875 183.78675 493.5385 241.6225 493.5385 224.1925 461.72875"></polyline>
                        <polygon id="Fill-160" fill="#5B381C" points="210.777 510.61675 214.63225 510.61675 214.63225 493.297 210.777 493.297"></polygon>
                        <polyline id="Fill-161" fill="#91A25F" points="224.1925 461.72875 235.683 461.72875 224.1925 433.776 232.79025 433.776 212.70375 397.14675 192.61725 433.776 201.215 433.776 189.72625 461.72875 201.215 461.72875 183.78675 493.5385 241.6225 493.5385 224.1925 461.72875"></polyline>
                        <polyline id="Fill-162" fill="#515E29" points="232.52775 454.055 224.1925 433.776 232.61525 433.776 224.1925 433.776 232.52775 454.055"></polyline>
                        <polyline id="Fill-163" fill="#83A508" points="235.683 461.72875 232.79375 461.72875 235.683 461.72875 232.52775 454.055 235.683 461.72875"></polyline>
                        <polygon id="Fill-164" fill="#55341A" points="212.70375 510.61675 214.63225 510.61675 214.63225 493.5385 212.70375 493.5385"></polygon>
                        <polyline id="Fill-165" fill="#879758" points="241.6225 493.5385 212.70375 493.5385 212.70375 397.14675 232.79025 433.776 224.1925 433.776 235.683 461.72875 224.1925 461.72875 241.6225 493.5385"></polyline>
                        <g id="Group-253" stroke-width="1" fill="none" transform="translate(0.000000, 372.750000)">
                            <mask id="mask-6" fill="white">
                                <use xlink:href="#path-5"></use>
                            </mask>
                            <g id="Clip-248"></g>
                            <path d="M708.4875,168.37975 L4.116,168.37975 C-4.72325,168.37975 -11.956,161.14875 -11.956,152.3095 L-11.956,152.30775 C-11.956,143.4685 -4.72325,136.2375 4.116,136.2375 L708.4875,136.2375 C717.32675,136.2375 724.5595,143.4685 724.5595,152.30775 L724.5595,152.3095 C724.5595,161.14875 717.32675,168.37975 708.4875,168.37975" id="Fill-249" fill="#829F29" mask="url(#mask-6)"></path>
                            <path d="M-77.224,158.95425 C-77.224,158.95425 -26.593,122.08875 9.3415,129.43875 C45.276,136.787 110.96575,157.70125 147.53725,151.8685 C184.10875,146.034 214.81075,150.08875 240.877,148.10425 C266.9415,146.11975 345.114,152.66125 368.50275,151.8685 C391.8915,151.074 426.51875,151.46075 458.1465,144.12475 C489.776,136.787 553.329,138.42325 603.8025,148.10425 C654.276,157.787 743.14975,150.38975 793.0825,144.12475 C843.0135,137.858 902.3805,145.09425 933.604,148.10425 C971.264,151.7355 1053.0205,147.96075 1062.481,144.12475 C1071.94325,140.287 1179.20775,139.7935 1221.8255,144.12475 C1264.4415,148.45425 1341.5745,136.48425 1377.67525,128.46925 C1413.776,120.45425 1466.22175,128.47625 1485.25125,148.10425 C1490.8285,153.85825 1495.8825,178.34425 1495.8825,178.34425 L-77.224,178.34425 L-77.224,158.95425" id="Fill-251" fill="#7A7A74" mask="url(#mask-6)"></path>
                            <polygon id="Fill-252" fill="#99B324" mask="url(#mask-6)" points="0 327.25 1050 327.25 1050 178.34425 0 178.34425"></polygon>
                        </g>
                        <polygon id="Fill-254" fill="#222320" points="193.21925 535.1745 456.3405 535.1745 456.3405 533.015 193.21925 533.015"></polygon>
                        <path d="M261.506,538.27375 L282.87,538.27375 C283.8325,538.27375 284.62,537.48625 284.62,536.52375 L284.62,533.82525 C284.62,532.86275 283.8325,532.07525 282.87,532.07525 L261.506,532.07525 C260.5435,532.07525 259.756,532.86275 259.756,533.82525 L259.756,536.52375 C259.756,537.48625 260.5435,538.27375 261.506,538.27375" id="Fill-256" fill="#3B3D39"></path>
                        <path d="M336.05075,537.047 C336.05075,541.6915 339.815,545.4575 344.46125,545.4575 C349.10575,545.4575 352.87175,541.6915 352.87175,537.047 C352.87175,532.40075 349.10575,528.63475 344.46125,528.63475 C339.815,528.63475 336.05075,532.40075 336.05075,537.047" id="Fill-264" fill="#11262B"></path>
                        <path d="M337.76575,537.047 C337.76575,540.743 340.7635,543.74075 344.46125,543.74075 C348.159,543.74075 351.15675,540.743 351.15675,537.047 C351.15675,533.34925 348.159,530.3515 344.46125,530.3515 C340.7635,530.3515 337.76575,533.34925 337.76575,537.047" id="Fill-265" fill="#2A505E"></path>
                        <path d="M340.053,537.047 C340.053,539.48125 342.027,541.4535 344.46125,541.4535 C346.8955,541.4535 348.8695,539.48125 348.8695,537.047 C348.8695,534.61275 346.8955,532.63875 344.46125,532.63875 C342.027,532.63875 340.053,534.61275 340.053,537.047" id="Fill-266" fill="#222320"></path>
                        <path d="M292.11525,537.047 C292.11525,541.6915 295.8795,545.4575 300.52575,545.4575 C305.17025,545.4575 308.93625,541.6915 308.93625,537.047 C308.93625,532.40075 305.17025,528.63475 300.52575,528.63475 C295.8795,528.63475 292.11525,532.40075 292.11525,537.047" id="Fill-267" fill="#11262B"></path>
                        <path d="M293.83025,537.047 C293.83025,540.743 296.828,543.74075 300.52575,543.74075 C304.22175,543.74075 307.2195,540.743 307.2195,537.047 C307.2195,533.34925 304.22175,530.3515 300.52575,530.3515 C296.828,530.3515 293.83025,533.34925 293.83025,537.047" id="Fill-268" fill="#2A505E"></path>
                        <path d="M296.1175,537.047 C296.1175,539.48125 298.0915,541.4535 300.52575,541.4535 C302.96,541.4535 304.93225,539.48125 304.93225,537.047 C304.93225,534.61275 302.96,532.63875 300.52575,532.63875 C298.0915,532.63875 296.1175,534.61275 296.1175,537.047" id="Fill-269" fill="#222320"></path>
                        <polygon id="Fill-270" fill="#3B3D39" points="292.173 538.83725 352.81225 538.83725 352.81225 527.35375 292.173 527.35375"></polygon>
                        <path d="M235.43975,537.047 C235.43975,541.6915 239.204,545.4575 243.85025,545.4575 C248.49475,545.4575 252.26075,541.6915 252.26075,537.047 C252.26075,532.40075 248.49475,528.63475 243.85025,528.63475 C239.204,528.63475 235.43975,532.40075 235.43975,537.047" id="Fill-271" fill="#11262B"></path>
                        <path d="M237.15475,537.047 C237.15475,540.743 240.1525,543.74075 243.85025,543.74075 C247.548,543.74075 250.54575,540.743 250.54575,537.047 C250.54575,533.34925 247.548,530.3515 243.85025,530.3515 C240.1525,530.3515 237.15475,533.34925 237.15475,537.047" id="Fill-272" fill="#2A505E"></path>
                        <path d="M239.442,537.047 C239.442,539.48125 241.416,541.4535 243.85025,541.4535 C246.2845,541.4535 248.25675,539.48125 248.25675,537.047 C248.25675,534.61275 246.2845,532.63875 243.85025,532.63875 C241.416,532.63875 239.442,534.61275 239.442,537.047" id="Fill-273" fill="#222320"></path>
                        <path d="M191.5025,537.047 C191.5025,541.6915 195.2685,545.4575 199.91475,545.4575 C204.55925,545.4575 208.32525,541.6915 208.32525,537.047 C208.32525,532.40075 204.55925,528.63475 199.91475,528.63475 C195.2685,528.63475 191.5025,532.40075 191.5025,537.047" id="Fill-274" fill="#11262B"></path>
                        <path d="M193.21925,537.047 C193.21925,540.743 196.217,543.74075 199.91475,543.74075 C203.61075,543.74075 206.6085,540.743 206.6085,537.047 C206.6085,533.34925 203.61075,530.3515 199.91475,530.3515 C196.217,530.3515 193.21925,533.34925 193.21925,537.047" id="Fill-275" fill="#2A505E"></path>
                        <path d="M195.5065,537.047 C195.5065,539.48125 197.4805,541.4535 199.91475,541.4535 C202.349,541.4535 204.32125,539.48125 204.32125,537.047 C204.32125,534.61275 202.349,532.63875 199.91475,532.63875 C197.4805,532.63875 195.5065,534.61275 195.5065,537.047" id="Fill-276" fill="#222320"></path>
                        <polygon id="Fill-277" fill="#3B3D39" points="191.562 538.83725 252.20125 538.83725 252.20125 527.35375 191.562 527.35375"></polygon>
                        <path d="M165.88775,510.2125 C181.94575,471.28375 207.865,463.46825 214.95425,462.67725 L214.95425,462.60375 L457.9925,462.60375 L457.9925,533.11475 L195.2545,533.11475 C179.32425,532.1855 160.867,522.38375 165.88775,510.2125" id="Fill-278" fill="#FFF1C9"></path>
                        <path d="M165.17375,512.785 L457.9925,512.785 L457.9925,515.35925 L165.12125,515.35925 C165.02675,514.51925 165.04075,513.66 165.17375,512.785" id="Fill-279" fill="#FF7900"></path>
                        <path d="M191.8,473.67425 L457.9925,473.67425 L457.9925,497.85925 L171.85525,497.85925 C178.1185,486.70125 185.1675,478.97325 191.8,473.67425" id="Fill-280" fill="#FF7900"></path>
                        <polygon id="Fill-281" fill="#486772" points="243.5335 496.83025 419.01125 496.83025 419.01125 474.70325 243.5335 474.70325"></polygon>
                        <path d="M242.5045,497.85925 L420.042,497.85925 L420.042,473.67425 L242.5045,473.67425 L242.5045,497.85925 Z M244.5625,495.80125 L417.98225,495.80125 L417.98225,475.73225 L244.5625,475.73225 L244.5625,495.80125 Z" id="Fill-282" fill="#2A505E"></path>
                        <path d="M203.63175,466.22975 L203.63175,492.19975 C203.63175,495.32525 201.09775,497.85925 197.9705,497.85925 L171.85525,497.85925 C182.10325,479.6015 194.46525,470.53825 203.63175,466.22975" id="Fill-283" fill="#486772"></path>
                        <polygon id="Fill-284" fill="#486772" points="215.98325 519.477 231.93975 519.477 231.93975 474.70325 215.98325 474.70325"></polygon>
                        <path d="M214.95425,520.506 L232.96875,520.506 L232.96875,473.67425 L214.95425,473.67425 L214.95425,520.506 Z M217.014,518.44625 L230.909,518.44625 L230.909,475.73225 L217.014,475.73225 L217.014,518.44625 Z" id="Fill-285" fill="#2A505E"></path>
                        <polygon id="Fill-289" fill="#C6BAAB" points="211.0815 533.11475 236.84325 533.11475 236.84325 520.506 211.0815 520.506"></polygon>
                        <path d="M214.95425,533.11475 L195.2545,533.11475 C184.18575,532.469 171.90425,527.5375 167.11975,520.506 L457.9925,520.506 L457.9925,533.11475 L214.95425,533.11475" id="Fill-290" fill="#FF7900"></path>
                        <polyline id="Fill-291" fill="#5E7C84" points="244.5625 475.74975 244.5625 494.5465 261.3835 475.74975 244.5625 475.74975"></polyline>
                        <polyline id="Fill-292" fill="#5E7C84" points="264.061 475.74975 264.061 494.5465 280.882 475.74975 264.061 475.74975"></polyline>
                        <polyline id="Fill-293" fill="#5E7C84" points="283.55775 475.74975 283.55775 494.5465 300.37875 475.74975 283.55775 475.74975"></polyline>
                        <polyline id="Fill-294" fill="#5E7C84" points="303.05625 475.74975 303.05625 494.5465 319.87725 475.74975 303.05625 475.74975"></polyline>
                        <polyline id="Fill-295" fill="#5E7C84" points="322.553 475.74975 322.553 494.5465 339.374 475.74975 322.553 475.74975"></polyline>
                        <polyline id="Fill-296" fill="#5E7C84" points="342.0515 475.74975 342.0515 494.5465 358.8725 475.74975 342.0515 475.74975"></polyline>
                        <path d="M173.04525,495.80125 L197.421,495.80125 C199.71,495.80125 201.572,493.93925 201.572,491.6485 L201.572,467.25875 C202.27375,466.893 202.96325,466.543 203.63175,466.22975 L203.63175,491.6485 C203.63175,495.0785 200.851,497.85925 197.421,497.85925 L171.85525,497.85925 C172.249,497.15925 172.64625,496.475 173.04525,495.80125" id="Fill-300" fill="#2A505E"></path>
                        <polygon id="Fill-302" fill="#2A505E" points="262.00125 497.85925 264.061 497.85925 264.061 473.67425 262.00125 473.67425"></polygon>
                        <polygon id="Fill-303" fill="#2A505E" points="281.49975 497.85925 283.55775 497.85925 283.55775 473.67425 281.49975 473.67425"></polygon>
                        <polygon id="Fill-304" fill="#2A505E" points="300.9965 497.85925 303.05625 497.85925 303.05625 473.67425 300.9965 473.67425"></polygon>
                        <polygon id="Fill-305" fill="#2A505E" points="320.495 497.85925 322.553 497.85925 322.553 473.67425 320.495 473.67425"></polygon>
                        <polygon id="Fill-306" fill="#2A505E" points="339.99175 497.85925 342.0515 497.85925 342.0515 473.67425 339.99175 473.67425"></polygon>
                        <g id="Group-318" stroke-width="1" fill="none" transform="translate(222.250000, 462.000000)">
                            <mask id="mask-8" fill="white">
                                <use xlink:href="#path-7"></use>
                            </mask>
                            <g id="Clip-313"></g>
                            <polygon id="Fill-312" fill="#4D6770" mask="url(#mask-8)" points="0.6825 56.44625 2.7405 56.44625 2.7405 13.73225 0.6825 13.73225"></polygon>
                        </g>
                        <g id="Group-443" stroke-width="1" fill="none" transform="translate(0.000000, 497.000000)">
                            <polygon id="Fill-442" fill="#353335" points="0.875 55.6675 1050 55.6675 1050 49.098 0.875 49.098"></polygon>
                        </g>
                        <polyline id="Fill-451" fill="#FFFFFF" points="321.5415 581.05775 321.5415 635.25 318.311 635.25 318.311 581.05775 303.7755 581.05775 303.7755 577.829 336.07525 577.829 336.07525 581.05775 321.5415 581.05775"></polyline>
                        <path d="M341.6385,600.00675 L344.869,600.00675 L344.869,606.431 C345.53925,605.47375 346.31625,604.55325 347.20175,603.66775 C350.049,600.8205 352.968,599.326 355.95875,599.1825 L355.95875,602.69825 C353.92525,602.7945 351.81825,603.93025 349.64125,606.109 C346.57875,609.147 344.988,612.79575 344.869,617.05525 L344.869,635.25 L341.6385,635.25 L341.6385,600.00675" id="Fill-452" fill="#FFFFFF"></path>
                    </g>
                </g>
            </g>
        </g>
    </g>
</svg>