<?xml version="1.0" encoding="UTF-8" standalone="no"?>
<svg width="165px" height="50px" viewBox="0 0 165 50" version="1.1" xmlns="http://www.w3.org/2000/svg" xmlns:xlink="http://www.w3.org/1999/xlink">
    <!-- Generator: Sketch 48.1 (47250) - http://www.bohemiancoding.com/sketch -->
    <title>logo</title>
    <desc>Created with Sketch.</desc>
    <defs>
        <polygon id="path-1" points="39.3834216 0.274354527 0.0191980022 0.274354527 0.0191980022 49.8634557 78.7476453 49.8634557 78.7476453 0.274354527"></polygon>
    </defs>
    <g id="menu" stroke="none" stroke-width="1" fill="none" fill-rule="evenodd">
        <g id="logo">
            <g>
                <g>
                    <g>
                        <g id="Group-4">
                            <mask id="mask-2" fill="white">
                                <use xlink:href="#path-1"></use>
                            </mask>
                            <g id="Clip-2"></g>
                            <polyline id="Fill-1" fill="#B3B5B2" mask="url(#mask-2)" points="66.0244893 0.339265913 78.7476453 21.1729429 63.1038332 21.1729429 57.9117335 12.8479777 66.0244893 0.339265913"></polyline>
                            <polyline id="Fill-3" fill="#FE3824" mask="url(#mask-2)" points="0 49.8826413 16.4539677 49.8826413 47.2443636 0.274354527 30.2925277 0.274354527 0 49.8826413"></polyline>
                        </g>
                        <polyline id="Fill-5" fill="#FE3824" points="48.6356987 0.733568255 65.8598131 0.733568255 42.455506 36.6784127 25.6121495 36.6784127 48.6356987 0.733568255"></polyline>
                        <polyline id="Fill-16" fill="#E21A1A" points="54 41 57.1639741 41 57.1639741 30.5142676 61.8360259 30.5142676 61.8360259 41 65 41 65 28 54 28 54 41"></polyline>
                        <path d="M76.3923727,36.3187338 C76.2395999,36.8356349 76.0051798,37.2842267 75.6891126,37.6640928 C75.4067144,37.9993912 75.0767587,38.2463875 74.698404,38.4059146 C74.3200492,38.5650252 73.9219139,38.6445804 73.504419,38.6445804 C73.0865033,38.6445804 72.688368,38.5666912 72.3100133,38.4100798 C71.9316585,38.2534683 71.601282,38.0106373 71.3193046,37.6807536 C71.0369063,37.3512864 70.809641,36.9251866 70.6375085,36.4024543 C70.465376,35.8801384 70.3790994,35.2474448 70.3790994,34.5043735 C70.3790994,33.7779629 70.4683221,33.139438 70.6459257,32.5887988 C70.8239503,32.0385761 71.0537408,31.6070616 71.3361391,31.2938387 C71.6412639,30.9585403 71.9754281,30.7186248 72.3398945,30.5732594 C72.7039399,30.427894 73.0919745,30.3554196 73.504419,30.3554196 C73.9109715,30.3554196 74.3015313,30.4308097 74.6773609,30.5815898 C75.0527696,30.73237 75.3844087,30.9756176 75.6722782,31.310916 C75.9546764,31.6349684 76.1832044,32.0594021 76.3582829,32.5846336 C76.5333614,33.1098651 76.6209006,33.7471404 76.6209006,34.4956265 C76.6209006,35.1945468 76.5447247,35.8018327 76.3923727,36.3187338 Z M73.4960018,28 C71.4687105,28 69.8795364,28.5827112 68.7276377,29.7477172 C67.5757389,30.9127231 67,32.4979975 67,34.5043735 C67,36.4936721 67.5757389,38.0735318 68.7276377,39.2439525 C69.8795364,40.4147897 71.4687105,41 73.4960018,41 C75.5283434,41 77.1204636,40.4147897 78.2723623,39.2439525 C79.4242611,38.0735318 80,36.4936721 80,34.5043735 C80,32.4979975 79.421315,30.9127231 78.2639451,29.7477172 C77.1061543,28.5827112 75.5169802,28 73.4960018,28 Z" id="Fill-14" fill="#E21A1A"></path>
                        <polyline id="Fill-15" fill="#E21A1A" points="82 41 85.1638563 41 85.1638563 30.5142676 89.8357342 30.5142676 89.8357342 41 93 41 93 28 82 28 82 41"></polyline>
                        <path d="M101.855286,34.1228948 L98.6312825,28 L95,28 L100.27513,37.6612187 C100.193674,37.8405052 99.9740035,37.9848826 99.6165511,38.0947819 C99.2590988,38.2046811 98.7928943,38.2594152 98.2175043,38.2594152 C97.915078,38.2594152 97.6096187,38.2408832 97.3019931,38.2033881 C96.9935009,38.1654621 96.7785962,38.129691 96.6568458,38.0947819 L96.4562392,38.0947819 L96.4562392,40.9133736 C96.6360485,40.9306127 97.0051993,40.9495757 97.5632582,40.9698316 C98.1213172,40.9900875 98.6039861,41 99.0108319,41 C99.3769497,41 99.7443674,40.9741414 100.113518,40.9219931 C100.482669,40.8702758 100.856153,40.7543429 101.233969,40.5750564 C101.611785,40.4018035 101.977903,40.1328736 102.332756,39.7686978 C102.687175,39.4045219 103.000867,38.9244132 103.274263,38.3288025 L108,28 L104.52253,28 L101.855286,34.1228948" id="Fill-20" fill="#E21A1A"></path>
                        <polyline id="Fill-19" fill="#E21A1A" points="109 30.5142676 112.892557 30.5142676 112.892557 41 116.107027 41 116.107027 30.5142676 120 30.5142676 120 28 109 28 109 30.5142676"></polyline>
                        <path d="M129.727819,33.9279445 C129.500866,33.9687281 129.20532,34.0038714 128.842026,34.0329406 C128.478309,34.0620098 128.182763,34.0763275 127.95581,34.0763275 C127.330844,34.0763275 126.846453,34.0095117 126.50306,33.8758803 C126.159244,33.7418149 125.896724,33.5439709 125.714654,33.2819144 C125.521575,33.0142175 125.402171,32.7074725 125.356865,32.3608117 C125.311559,32.0145847 125.288695,31.588092 125.288695,31.0817675 L125.288695,28 L122,28 L122,32.8020559 C122,33.4598004 122.109242,34.0299035 122.327726,34.513233 C122.546634,34.9961286 122.848955,35.3948537 123.235536,35.7094083 C123.615767,36.023529 124.057393,36.2534793 124.560414,36.3988252 C125.063012,36.544605 125.609646,36.617061 126.200316,36.617061 C126.967551,36.617061 127.584895,36.58105 128.05362,36.5081601 C128.522345,36.4352702 129.080411,36.3289724 129.727819,36.1892668 L129.727819,41 L133,41 L133,28 L129.727819,28 L129.727819,33.9279445" id="Fill-18" fill="#E21A1A"></path>
                        <polyline id="Fill-17" fill="#E21A1A" points="144.385685 28 139.305181 35.8313253 139.305181 28 136 28 136 41 139.234485 41 144.695258 32.3477956 144.695258 41 148 41 148 28 144.385685 28"></polyline>
                        <path d="M157.963186,34.3086198 C158.153805,34.2038369 158.349576,34.0280442 158.551787,33.7812417 C158.753569,33.5344391 159.01245,33.106215 159.328861,32.4961364 C159.644843,31.880429 159.933777,31.450473 160.196093,31.2067013 C160.458409,30.9624967 160.82548,30.8408273 161.297735,30.8408273 L162.257272,30.8408273 L162.257272,28.0264122 C162.147794,28.0264122 161.977783,28.0220823 161.747236,28.0134226 C161.517119,28.0043299 161.254803,28 160.961146,28 C159.970699,28 159.230546,28.167133 158.740689,28.5009659 C158.251261,28.8352318 157.784587,29.394218 157.341526,30.1783573 C157.23763,30.3645417 157.109263,30.6009526 156.956853,30.8884559 C156.804014,31.1759592 156.66749,31.4244937 156.546421,31.6336264 C156.350649,31.9704903 156.163465,32.2536637 155.984866,32.4831468 C155.806268,32.7126299 155.639262,32.8853917 155.483847,33.0014322 C155.334013,33.1118439 155.170012,33.1889155 154.991414,33.2322142 C154.812815,33.2759459 154.588279,33.3036571 154.317377,33.3153477 L154.317377,28.0264122 L151,28.0264122 L151,41 L154.317377,41 L154.317377,35.7634559 L155.132231,35.7634559 L158.932596,41 L163,41 L157.963186,34.3086198" id="Fill-21" fill="#E21A1A"></path>
                    </g>
                </g>
            </g>
        </g>
    </g>
</svg>